SplineFontDB: 3.2
FontName: MFEKSans-Black
FullName: MFEK Sans Black
FamilyName: MFEK Sans Black
Weight: Black
Copyright: 
Version: 0.1
ItalicAngle: 0
UnderlinePosition: -200
UnderlineWidth: 100
Ascent: 1600
Descent: 400
InvalidEm: 0
LayerCount: 2
Layer: 0 0 "Back" 1
Layer: 1 0 "Fore" 0
XUID: [1021 31 -699969567 16487490]
FSType: 0
OS2Version: 0
OS2_WeightWidthSlopeOnly: 0
OS2_UseTypoMetrics: 1
CreationTime: 1460762150
ModificationTime: 1688473329
PfmFamily: 33
TTFWeight: 900
TTFWidth: 5
LineGap: 0
VLineGap: 0
OS2TypoAscent: 2500
OS2TypoAOffset: 0
OS2TypoDescent: -850
OS2TypoDOffset: 0
OS2TypoLinegap: 0
OS2WinAscent: 2500
OS2WinAOffset: 0
OS2WinDescent: 850
OS2WinDOffset: 0
HheadAscent: 2500
HheadAOffset: 0
HheadDescent: -850
HheadDOffset: 0
OS2CapHeight: 1500
OS2XHeight: 1040
OS2FamilyClass: 2053
OS2Vendor: 'it* '
OS2UnicodeRanges: 00000001.00000000.00000000.00000000
Lookup: 258 0 0 "kerning yeah boi" { "say cheese" [300,0,4] } ['kern' ('DFLT' <'dflt' > 'grek' <'dflt' > 'latn' <'dflt' > ) ]
MarkAttachClasses: 1
DEI: 91125
KernClass2: 30 23 "say cheese"
 73 A Agrave Aacute Acircumflex Atilde Adieresis Aring Amacron Abreve Aogonek
 96 D O Ograve Oacute Ocircumflex Otilde Odieresis Oslash Dcaron Dcroat Omacron Obreve Ohungarumlaut
 81 E AE Egrave Eacute Ecircumflex Edieresis Emacron Ebreve Edotaccent Eogonek Ecaron
 1 F
 39 G Gcircumflex Gbreve Gdotaccent uni0122
 104 J U Ugrave Uacute Ucircumflex Udieresis IJ Jcircumflex Utilde Umacron Ubreve Uring Uhungarumlaut Uogonek
 11 K X uni0136
 23 L Lacute uni013B Lslash
 1 P
 1 Q
 23 R Racute uni0156 Rcaron
 36 S Sacute Scircumflex Scedilla Scaron
 21 T uni0162 Tcaron Tbar
 1 V
 53 W Wcircumflex Wgrave Wacute Wdieresis uni1E86 uni1E88
 30 Y Ycircumflex Ydieresis Ygrave
 26 Z Zacute Zdotaccent Zcaron
 73 a agrave aacute acircumflex atilde adieresis aring amacron abreve aogonek

StartChar: ampersand
Encoding: 38 38 0
Width: 1701
VWidth: 1920
Flags: HMW
LayerCount: 2
Fore
SplineSet
1061.65039062 10 m 2
 506.650390625 734 l 2
 382.650390625 919 338.650390625 1000 338.650390625 1113 c 0
 338.650390625 1283 466.650390625 1435 873.650390625 1435 c 0
 1210.65039062 1435 1408.65039062 1313.02636719 1408.65039062 1123 c 0
 1408.65039062 875 1014.65039062 697 785.650390625 596 c 0
 641.650390625 533 614.650390625 492 614.650390625 448 c 0
 614.650390625 427 624.591796875 409.764648438 631.650390625 398 c 2
 637.650390625 388 l 2
 648.415039062 370.05859375 680.650390625 355 715.650390625 355 c 0
 957.650390625 355 1232.65039062 446 1310.65039062 640 c 0
 1312.65917969 644.99609375 1316.65039062 648 1323.65039062 648 c 2
 1693.65039062 648 l 2
 1700.65039062 648 1703.32009185 644.715782067 1699.65039062 637 c 0
 1504.65039062 227 867.650390625 -35 559.650390625 -35 c 0
 343.650390625 -35 215.822238464 24.9698650494 147.650390625 119 c 2
 89.650390625 199 l 2
 33.0285143448 277.099139697 9.650390625 352 9.650390625 448 c 0
 9.650390625 637 200.650390625 747 675.650390625 862 c 0
 843.331054688 902.596679688 973.650390625 1032 973.650390625 1113 c 0
 973.650390625 1133 950.650390625 1150 913.650390625 1150 c 0
 876.650390625 1150 858.650390625 1132 858.650390625 1103 c 0
 858.650390625 1054 929.650390625 973 995.650390625 876 c 2
 1611.65039062 10 l 2
 1616.65039062 3 1615.65039062 0 1608.65039062 0 c 2
 1078.65039062 0 l 2
 1071.65039062 0 1066.65039062 3 1061.65039062 10 c 2
EndSplineSet
EndChar

StartChar: period
Encoding: 46 46 1
Width: 740
VWidth: 1920
Flags: HMW
LayerCount: 2
Fore
SplineSet
615 0 m 6
 125 0 l 6
 118 0 115 3 115 10 c 6
 115 450 l 6
 115 457 118 460 125 460 c 6
 615 460 l 6
 622 460 625 457 625 450 c 6
 625 10 l 6
 625 3 622 0 615 0 c 6
EndSplineSet
EndChar

StartChar: zero
Encoding: 48 48 2
Width: 1350
VWidth: 1920
Flags: HMW
LayerCount: 2
Fore
SplineSet
50 488 m 262
 50 913 l 262
 50 1238.79492188 273.346679688 1435 675 1435 c 260
 1076.65332031 1435 1300 1238.79492188 1300 913 c 262
 1300 488 l 262
 1300 161.891601562 1076.37792969 -35 675 -35 c 260
 273.622070312 -35 50 161.891601562 50 488 c 262
540 508 m 262
 540 359.787109375 571.172851562 305 675 305 c 260
 778.827148438 305 810 359.787109375 810 508 c 262
 810 893 l 262
 810 1040.875 779.051757812 1095 675 1095 c 260
 570.948242188 1095 540 1040.875 540 893 c 262
 540 508 l 262
EndSplineSet
EndChar

StartChar: one
Encoding: 49 49 3
Width: 640
VWidth: 1920
Flags: HMW
LayerCount: 2
Fore
SplineSet
86 1324.24902344 m 4
 227.940429688 1326.59082031 277.987304688 1367.43554688 288.745117188 1440 c 4
 289.842773438 1447.40527344 294.3984375 1450 301 1450 c 6
 555 1450 l 6
 562 1450 565 1447 565 1440 c 6
 565 10 l 6
 565 3 562 0 555 0 c 6
 85 0 l 6
 78 0 75 3 75 10 c 6
 75 1314 l 6
 75 1320.734375 77.9843174535 1324.11677711 86 1324.24902344 c 4
EndSplineSet
EndChar

StartChar: two
Encoding: 50 50 4
Width: 1280
VWidth: 1920
Flags: HMW
LayerCount: 2
Fore
SplineSet
30 60 m 258
 30 604.034179688 735 695.631835938 735 993 c 258
 735 998 l 258
 735 1058 698 1085 641 1085 c 256
 571 1085 535 1054.57617188 535 1002 c 258
 535 912 l 2
 535 905 532 902 525 902 c 2
 65 902 l 2
 58 902 55 905 55 912 c 2
 55 1002 l 258
 55 1275.74121094 262 1435 659 1435 c 256
 986 1435 1215 1303 1215 1043 c 258
 1215 998 l 258
 1215 582.094726562 620 531 620 380 c 258
 620 370 l 257
 1240 370 l 2
 1247 370 1250 367 1250 360 c 2
 1250 10 l 2
 1250 3 1247 0 1240 0 c 2
 40 0 l 2
 33 0 30 3 30 10 c 2
 30 60 l 258
EndSplineSet
EndChar

StartChar: three
Encoding: 51 51 5
Width: 1300
VWidth: 1920
Flags: HMW
LayerCount: 2
Fore
SplineSet
40 507 m 2
 510 507 l 2
 517 507 520 504 520 497 c 2
 520 487 l 2
 520 367.036132812 561 315 640 315 c 0
 727 315 775 352 775 422 c 2
 775 447 l 2
 775 517 726.918945312 560 630 560 c 2
 550 560 l 2
 543 560 540 563 540 570 c 2
 540 900 l 2
 540 907 543 910 550 910 c 2
 610 910 l 2
 676.885742188 910 720 933 720 993 c 2
 720 1008 l 2
 720 1048 696 1085 639 1085 c 0
 569 1085 545 1054.81445312 545 992 c 2
 545 962 l 2
 545 955 542 952 535 952 c 2
 75 952 l 2
 68 952 65 955 65 962 c 2
 65 1052 l 2
 65 1286 297 1435 644 1435 c 0
 991 1435 1215 1313 1215 1083 c 2
 1215 1058 l 2
 1215 808 967 720 710 720 c 1
 730 770 l 1
 987 770 1265 672 1265 422 c 2
 1265 347 l 2
 1265 107 1027 -35 630 -35 c 4
 278 -35 30 129 30 427 c 6
 30 497 l 2
 30 504 33 507 40 507 c 2
  Spiro
    40 507 [
    510 507 ]
    515.699 505.965 o
    518.965 502.699 o
    520 497 [
    520 487 ]
    533.529 375.833 o
    573.831 326.241 o
    640 315 o
    713.607 327.161 o
    759.364 363.196 o
    775 422 [
    775 447 ]
    758.977 507.357 o
    710.603 546.286 o
    630 560 [
    550 560 ]
    544.301 561.035 o
    541.035 564.301 o
    540 570 [
    540 900 ]
    541.035 905.699 o
    544.301 908.965 o
    550 910 [
    610 910 ]
    668.197 918.168 o
    706.372 944.852 o
    720 993 [
    720 1008 ]
    711.684 1045.71 o
    685.297 1073.95 o
    639 1085 o
    583.56 1074.87 o
    553.796 1043.99 o
    545 992 [
    545 962 ]
    543.965 956.301 o
    540.699 953.035 o
    535 952 [
    75 952 ]
    69.3007 953.035 o
    66.0349 956.301 o
    65 962 [
    65 1052 ]
    137.858 1255.13 o
    339.924 1387.8 o
    644 1435 o
    946.005 1394.93 o
    1144.21 1276.32 o
    1215 1083 [
    1215 1058 ]
    1141.32 859.41 o
    954.924 752.007 o
    710 720 v
    730 770 v
    982.688 735.405 o
    1183.56 623.179 o
    1265 422 [
    1265 347 ]
    1188.74 141.466 o
    970.792 10.614 o
    630 -35 o
    318.267 11.7929 o
    107.184 161.65 o
    30 427 [
    30 497 ]
    31.0349 502.699 o
    34.3007 505.965 o
    0 0 z
  EndSpiro
EndSplineSet
EndChar

StartChar: four
Encoding: 52 52 6
Width: 1310
VWidth: 1920
InSpiro: 1
Flags: HMW
LayerCount: 2
Fore
SplineSet
1310 570 m 2
 1310 240 l 2
 1310 233 1307 230 1300 230 c 2
 1120 230 l 257
 1120 10 l 2
 1120 3 1117 0 1110 0 c 2
 640 0 l 2
 633 0 630 3 630 10 c 2
 630 230 l 257
 30 230 l 2
 23 230 20 233 20 240 c 2
 20 690 l 2
 20 697 21.6259765625 702.678710938 27 710 c 2
 603 1390 l 2
 606.83984375 1395.16015625 612.5078125 1400 620 1400 c 2
 1110 1400 l 2
 1117 1400 1120 1397 1120 1390 c 2
 1120 580 l 257
 1300 580 l 2
 1307 580 1310 577 1310 570 c 2
640 580 m 257
 640 980.833007812 l 257
 305 580 l 257
 640 580 l 257
EndSplineSet
EndChar

StartChar: five
Encoding: 53 53 7
Width: 1300
VWidth: 1920
Flags: HMW
LayerCount: 2
Fore
SplineSet
70 418 m 2
 520 418 l 2
 526.907226562 418 529.617527224 414.956850353 530.643554688 409 c 0
 543.91015625 331.977539062 597.780273438 305 645 305 c 0
 714 305 760 355 760 448 c 2
 760 473 l 2
 760 573 729 605 665 605 c 0
 613.91015625 605 575.405273438 564.098632812 556 513.57421875 c 0
 552.481621785 504.413616179 546.759765625 503 540 503 c 2
 90 503 l 2
 83 503 79.7822265625 504.877929688 81 513 c 2
 190 1390 l 2
 191.026367188 1396.84570312 194 1400 201 1400 c 2
 1181 1400 l 2
 1188 1400 1191 1397 1191 1390 c 2
 1191 1245 l 2
 1191 1125 1141 1050 921 1050 c 2
 556 1050 l 5
 492.328125 745.357421875 l 1
 469.328125 745.357421875 l 1
 523.97265625 868.810546875 699.609375 955 860 955 c 0
 1100 955 1250 840 1250 513 c 2
 1250 448 l 2
 1250 121 1045 -35 635 -35 c 0
 301.010742188 -35 76.26953125 101.000976562 60.5361328125 408 c 0
 60.1764402488 415.018525987 62.9169921875 418 70 418 c 2
EndSplineSet
EndChar

StartChar: six
Encoding: 54 54 8
Width: 1429
VWidth: 1920
Flags: HMW
LayerCount: 2
Fore
SplineSet
730 640 m 260
 620 640 560 585 560 502 c 262
 560 442 l 261
 470 522 l 261
 470 786 603 890 900 890 c 260
 1227 890 1369 731 1369 457 c 262
 1369 407 l 262
 1369 129 1121 -35 729 -35 c 260
 252 -35 75 167 75 527 c 262
 75 843 l 262
 75 1223 293 1435 720 1435 c 260
 1117 1435 1314 1215.83496094 1314 1032 c 262
 1314 1002 l 6
 1314 995 1311 992 1304 992 c 6
 854 992 l 6
 847 992 844 995 844 1002 c 6
 844 1012 l 262
 844 1044.91113281 820 1085 740 1085 c 260
 613 1085 560 988 560 838 c 262
 560 462 l 262
 560 372 612 315 719 315 c 260
 838 315 879 377 879 457 c 262
 879 477 l 262
 879 560 840 640 730 640 c 260
EndSplineSet
EndChar

StartChar: seven
Encoding: 55 55 9
Width: 1195
VWidth: 1920
Flags: HMW
LayerCount: 2
Fore
SplineSet
1261 1390 m 2
 839 10 l 2
 835.9375 2.611328125 832.49609375 0 825 0 c 2
 235 0 l 2
 228 0 225.935652204 3.2209572149 229 10 c 2
 755 950 l 257
 85 950 l 2
 78 950 75 953 75 960 c 2
 75 1390 l 2
 75 1397 78 1400 85 1400 c 2
 1255 1400 l 2
 1262.37207031 1400 1264.21484375 1396.23046875 1261 1390 c 2
EndSplineSet
EndChar

StartChar: eight
Encoding: 56 56 10
Width: 1382
VWidth: 1920
Flags: HMW
LayerCount: 2
Fore
SplineSet
691 310 m 256
 780.859375 310 827 356.100585938 827 432 c 258
 827 437 l 258
 827 514.159179688 781.689453125 559.927734375 691 559.927734375 c 256
 600.310546875 559.927734375 555 514.159179688 555 437 c 258
 555 432 l 258
 555 356.100585938 601.140625 310 691 310 c 256
691 910 m 256
 741.428710938 910 777 947.231445312 777 1003 c 258
 777 1008 l 258
 777 1054.95996094 739.329101562 1090 691 1090 c 256
 642.670898438 1090 605 1054.95996094 605 1008 c 258
 605 1003 l 258
 605 947.231445312 640.571289062 910 691 910 c 256
722 760 m 257
 1152.07519531 760 1317 623.61328125 1317 392 c 258
 1317 347 l 258
 1317 99.75 1149.09082031 -35 691 -35 c 256
 282.909179688 -35 65 99.75 65 347 c 258
 65 392 l 258
 65 623.61328125 279.924804688 760 660 760 c 257
 662 720.282226562 l 257
 295.81640625 725.765625 115 837.047851562 115 1058 c 258
 115 1083 l 258
 115 1304.25878906 323.2265625 1435 691 1435 c 256
 1108.7734375 1435 1267 1304.25878906 1267 1083 c 258
 1267 1058 l 258
 1267 837.047851562 1136.18359375 725.765625 720 720.282226562 c 257
 722 760 l 257
EndSplineSet
EndChar

StartChar: nine
Encoding: 57 57 11
Width: 1429
VWidth: 1920
Flags: HMW
LayerCount: 2
Fore
SplineSet
699 760 m 256
 809 760 869 815 869 898 c 258
 869 958 l 257
 959 878 l 257
 959 614 826 510 529 510 c 256
 202 510 60 669 60 943 c 258
 60 993 l 258
 60 1271 308 1435 700 1435 c 256
 1177 1435 1354 1233 1354 873 c 258
 1354 557 l 258
 1354 177 1116 -35 679 -35 c 260
 252 -35 55 154.165039062 55 368 c 262
 55 398 l 6
 55 405 58 408 65 408 c 6
 515 408 l 6
 522 408 525 405 525 398 c 6
 525 388 l 262
 525 345.088867188 579 315 659 315 c 256
 786 315 869 392 869 562 c 262
 869 938 l 258
 869 1028 817 1085 710 1085 c 256
 591 1085 550 1023 550 943 c 258
 550 923 l 258
 550 840 589 760 699 760 c 256
EndSplineSet
EndChar

StartChar: A
Encoding: 65 65 12
Width: 1445
VWidth: 1920
Flags: HMW
AnchorPoint: "ogonek" 1167.74 0 basechar 0
AnchorPoint: "bottom" 662.741 0 basechar 0
AnchorPoint: "top" 711.741 1400 basechar 0
LayerCount: 2
Fore
SplineSet
347.7421875 520 m 1
 977.7421875 520 l 1
 977.7421875 270 l 1
 347.7421875 270 l 1
 347.7421875 520 l 1
  Spiro
    347.743 520 v
    977.743 520 v
    977.743 270 v
    347.743 270 v
    0 0 z
  EndSpiro
659.7421875 978 m 1
 360.7421875 10 l 2
 359.413085938 5.6962890625 356.079101562 0 347.7421875 0 c 2
 -12.2578125 0 l 2
 -15.462890625 0 -22.3837890625 0.9931640625 -19.2578125 10 c 2
 459.7421875 1390 l 2
 462.743164062 1398.64550781 468.342773438 1400 472.7421875 1400 c 2
 972.7421875 1400 l 2
 978.819335938 1400 983.173828125 1397.24902344 985.7421875 1390 c 2
 1474.7421875 10 l 2
 1475.70996094 7.26953125 1477.38085938 0 1467.7421875 0 c 2
 987.7421875 0 l 2
 984.689453125 0 977.983398438 0.0400390625 974.7421875 10 c 2
 659.7421875 978 l 1
  Spiro
    659.743 978 v
    360.743 10 ]
    358.064 4.74781 o
    353.786 1.25812 o
    347.743 0 [
    -12.2569 0 ]
    -17.6235 1.25682 o
    -19.8873 4.74519 o
    -19.2569 10 [
    459.743 1390 ]
    462.443 1395.25 o
    466.711 1398.74 o
    472.743 1400 [
    972.743 1400 ]
    978.775 1398.74 o
    983.043 1395.25 o
    985.743 1390 [
    1474.74 10 ]
    1475.37 4.74519 o
    1473.11 1.25682 o
    1467.74 0 [
    987.743 0 ]
    981.791 1.06094 o
    977.604 4.35285 o
    974.743 10 [
    0 0 z
  EndSpiro
EndSplineSet
EndChar

StartChar: B
Encoding: 66 66 13
Width: 1380
VWidth: 1920
Flags: HMW
AnchorPoint: "top" 644 1400 basechar 0
AnchorPoint: "bottom" 675 0 basechar 0
LayerCount: 2
Fore
SplineSet
560 840 m 257
 710 840 l 258
 786.899414062 840 815 888 815 938 c 258
 815 953 l 258
 815 1003 786.993164062 1050 710 1050 c 258
 560 1050 l 257
 560 840 l 257
850 750 m 257
 1107 750 1365 652 1365 402 c 258
 1365 347 l 258
 1365 67 1106.99511719 0 850 0 c 258
 80 0 l 258
 73 0 70 3 70 10 c 258
 70 1390 l 258
 70 1397 73 1400 80 1400 c 258
 830 1400 l 258
 1086.90527344 1400 1315 1313 1315 1063 c 258
 1315 1038 l 258
 1315 788 1087 700 830 700 c 257
 850 750 l 257
750 590 m 258
 560 590 l 257
 560 350 l 257
 750 350 l 258
 836.899414062 350 865 407 865 457 c 258
 865 482 l 258
 865 532 837 590 750 590 c 258
EndSplineSet
EndChar

StartChar: C
Encoding: 67 67 14
Width: 1440
VWidth: 1920
Flags: HMW
AnchorPoint: "top" 754 1400 basechar 0
AnchorPoint: "bottom" 735 0 basechar 0
LayerCount: 2
Fore
SplineSet
1420 598 m 260
 1415 526 1403 456 1381 389 c 4
 1304 150 1110 -35 745 -35 c 260
 258 -35 50 238 50 618 c 262
 50 783 l 262
 50 1163 258 1435 745 1435 c 260
 1101 1435 1284 1267 1355 1066 c 4
 1377 1003 1388 938 1390 873 c 260
 1390 864 1387 863 1380 863 c 262
 1031 863 l 262
 1024 863 1020 864 1020 873 c 260
 1018 999 942 1095 795 1095 c 260
 648 1095 550 1003 550 793 c 262
 550 608 l 262
 550 388 638 305 805 305 c 260
 972 305 1053 415 1050 598 c 260
 1050 607 1053 608 1060 608 c 262
 1410 608 l 262
 1417 608 1421 607 1420 598 c 260
EndSplineSet
EndChar

StartChar: D
Encoding: 68 68 15
Width: 1430
VWidth: 1920
Flags: HMW
AnchorPoint: "top" 654 1400 basechar 0
AnchorPoint: "bottom" 625 0 basechar 0
LayerCount: 2
Fore
SplineSet
705 0 m 262
 80 0 l 262
 73 0 70 3 70 10 c 262
 70 1390 l 262
 70 1397 73 1400 80 1400 c 262
 705 1400 l 262
 1118.99902344 1400 1380 1168.79492188 1380 783 c 262
 1380 618 l 262
 1380 231.891601562 1159.19921875 0 705 0 c 262
665 350 m 262
 819.389648438 350 880 439.787109375 880 608 c 262
 880 793 l 262
 880 960.875 819.00390625 1050 665 1050 c 262
 560 1050 l 261
 560 350 l 261
 665 350 l 262
EndSplineSet
EndChar

StartChar: E
Encoding: 69 69 16
Width: 1310
VWidth: 1920
Flags: HMW
AnchorPoint: "ogonek" 1100 0 basechar 0
AnchorPoint: "top" 684 1400 basechar 0
AnchorPoint: "bottom" 685 0 basechar 0
LayerCount: 2
Fore
SplineSet
560 840 m 257
 950 840 l 262
 957 840 960 837 960 830 c 262
 960 600 l 262
 960 593 957 590 950 590 c 262
 560 590 l 257
 560 350 l 257
 1270 350 l 258
 1277 350 1280 347 1280 340 c 258
 1280 10 l 258
 1280 3 1277 0 1270 0 c 258
 80 0 l 258
 73 0 70 3 70 10 c 258
 70 1390 l 258
 70 1397 73 1400 80 1400 c 258
 1250 1400 l 258
 1257 1400 1260 1397 1260 1390 c 258
 1260 1060 l 258
 1260 1053 1256.99902344 1050 1250 1050 c 258
 560 1050 l 257
 560 840 l 257
EndSplineSet
EndChar

StartChar: F
Encoding: 70 70 17
Width: 1220
VWidth: 1920
Flags: HMW
AnchorPoint: "top" 644 1400 basechar 0
AnchorPoint: "bottom" 645 0 basechar 0
LayerCount: 2
Fore
SplineSet
560 790 m 257
 960 790 l 262
 968.518554688 790 970 788.595703125 970 780 c 262
 970 550 l 262
 970 541.479492188 968.595703125 540 960 540 c 262
 560 540 l 257
 560 10 l 258
 560 1.4794921875 558.595703125 0 550 0 c 258
 80 0 l 258
 71.4794921875 0 70 1.404296875 70 10 c 258
 70 1390 l 258
 70 1397 73 1400 80 1400 c 258
 1200 1400 l 258
 1207 1400 1210 1397 1210 1390 c 258
 1210 1060 l 258
 1210 1053 1206.99902344 1050.09472656 1200 1050 c 258
 560 1050 l 257
 560 790 l 257
EndSplineSet
EndChar

StartChar: G
Encoding: 71 71 18
Width: 1485
VWidth: 1920
Flags: HMW
AnchorPoint: "top" 744 1400 basechar 0
AnchorPoint: "bottom" 745 0 basechar 0
LayerCount: 2
Fore
SplineSet
800 525 m 6
 800 750 l 6
 800 757 803 760 810 760 c 6
 1410 760 l 6
 1417 760 1420 757 1420 750 c 6
 1420 10 l 6
 1420 3 1417 0 1410 0 c 6
 1220 0 l 6
 1213 0 1210 3 1208 10 c 6
 1130 320 l 5
 1320 620 l 5
 1300 230 1052 -35 725 -35 c 4
 248 -35 50 238 50 618 c 6
 50 783 l 6
 50 1163 258 1435 745 1435 c 4
 1063 1435 1241 1285 1326 1114 c 4
 1366 1034 1386 949 1390 873 c 4
 1390 864 1387 863 1380 863 c 6
 1030 863 l 6
 1023 863 1021 864 1020 873 c 4
 1011 1010 932 1095 795 1095 c 4
 648 1095 550 1003 550 793 c 6
 550 608 l 6
 550 388 628 305 805 305 c 4
 941 305 1031 402 1046 615 c 5
 1168 515 l 5
 810 515 l 6
 803 515 800 518 800 525 c 6
EndSplineSet
EndChar

StartChar: H
Encoding: 72 72 19
Width: 1420
VWidth: 1920
Flags: HMW
AnchorPoint: "top" 704 1400 basechar 0
AnchorPoint: "bottom" 705 0 basechar 0
LayerCount: 2
Fore
SplineSet
870 1400 m 6
 1340 1400 l 6
 1347 1400 1350 1397 1350 1390 c 6
 1350 10 l 6
 1350 3 1347 0 1340 0 c 6
 870 0 l 6
 863 0 860 3 860 10 c 6
 860 540 l 261
 560 540 l 261
 560 10 l 6
 560 3 557 0 550 0 c 6
 80 0 l 6
 73 0 70 3 70 10 c 6
 70 1390 l 22
 70 1397 73 1400 80 1400 c 14
 550 1400 l 22
 557 1400 560 1397 560 1390 c 14
 560 890 l 261
 860 890 l 261
 860 1390 l 6
 860 1397 863 1400 870 1400 c 6
EndSplineSet
EndChar

StartChar: I
Encoding: 73 73 20
Width: 630
VWidth: 1920
Flags: HMW
AnchorPoint: "ogonek" 320 0 basechar 0
AnchorPoint: "top" 319 1400 basechar 0
AnchorPoint: "bottom" 320 0 basechar 0
LayerCount: 2
Fore
SplineSet
80 1400 m 14
 550 1400 l 22
 557 1400 560 1397 560 1390 c 14
 560 10 l 22
 560 3 557 0 550 0 c 14
 80 0 l 22
 73 0 70 3 70 10 c 14
 70 1390 l 22
 70 1397 73 1400 80 1400 c 14
EndSplineSet
EndChar

StartChar: J
Encoding: 74 74 21
Width: 1240
VWidth: 1920
Flags: HMW
AnchorPoint: "top" 976 1400 basechar 0
AnchorPoint: "bottom" 577 0 basechar 0
LayerCount: 2
Fore
SplineSet
680 1400 m 2
 1160 1400 l 2
 1167 1400 1170 1397 1170 1390 c 2
 1170 538 l 258
 1170 152.475585938 1020.64941406 -35 575.575195312 -35 c 256
 179.5703125 -35 20 154.524414062 20 478 c 258
 20 653 l 2
 20 660 23 663 30 663 c 2
 380 663 l 2
 387 663 390 660 390 653 c 2
 390 488 l 258
 390 376.828125 439.043945312 325 532.811523438 325 c 260
 627.5859375 325 670 368.626953125 670 508 c 258
 670 1390 l 2
 670 1397 673 1400 680 1400 c 2
EndSplineSet
EndChar

StartChar: K
Encoding: 75 75 22
Width: 1460
VWidth: 1920
Flags: HMW
AnchorPoint: "top" 644 1400 basechar 0
AnchorPoint: "bottom" 645 0 basechar 0
LayerCount: 2
Fore
SplineSet
80 1400 m 10
 550 1400 l 18
 557 1400 560 1397 560 1390 c 10
 560 10 l 18
 560 3 557 0 550 0 c 10
 80 0 l 18
 73 0 70 3 70 10 c 10
 70 1390 l 18
 70 1397 73 1400 80 1400 c 10
550 710 m 257
 890 960 l 257
 1553 10 l 258
 1558.87988281 1.5283203125 1557 0 1550 0 c 2
 970 0 l 2
 963 0 958.485351562 1.9658203125 953 10 c 258
 550 710 l 257
1000 1390 m 258
 1005.45703125 1394.54296875 1010 1400 1020 1400 c 2
 1504 1400 l 2
 1517 1400 1517.15039062 1397.07617188 1510 1390 c 258
 835.801980198 688 l 1
 782.01980198 632 l 5
 540 380 l 257
 230 510 l 257
 1000 1390 l 258
EndSplineSet
EndChar

StartChar: L
Encoding: 76 76 23
Width: 1135
VWidth: 1920
Flags: HMW
AnchorPoint: "top" 284 1400 basechar 0
AnchorPoint: "bottom" 645 0 basechar 0
LayerCount: 2
Fore
SplineSet
80 1400 m 2
 550 1400 l 2
 557 1400 560 1397 560 1390 c 2
 560 350 l 281
 1110 350 l 6
 1117 350 1120 347 1120 340 c 6
 1120 10 l 6
 1120 3 1117 0 1110 0 c 6
 80 0 l 2
 73 0 70 3 70 10 c 2
 70 1390 l 2
 70 1397 73 1400 80 1400 c 2
EndSplineSet
EndChar

StartChar: M
Encoding: 77 77 24
Width: 1840
VWidth: 1920
Flags: HMW
AnchorPoint: "top" 864 1400 basechar 0
AnchorPoint: "bottom" 865 0 basechar 0
LayerCount: 2
Fore
SplineSet
400 830 m 261
 400 10 l 6
 400 3 397 0 390 0 c 6
 60 0 l 6
 53 0 50 3 50 10 c 6
 50 1390 l 6
 50 1397 53 1400 60 1400 c 6
 660 1400 l 6
 667 1400 671 1397 674 1390 c 6
 910 689 l 261
 1176 1390 l 6
 1179 1397 1183 1400 1190 1400 c 6
 1760 1400 l 6
 1767 1400 1770 1397 1770 1390 c 6
 1770 10 l 6
 1770 3 1767 0 1760 0 c 6
 1310 0 l 6
 1303 0 1300 3 1300 10 c 6
 1300 830 l 261
 1004 10 l 6
 1001 3 997 0 990 0 c 6
 730 0 l 6
 723 0 719 3 716 10 c 6
 400 830 l 261
EndSplineSet
EndChar

StartChar: N
Encoding: 78 78 25
Width: 1380
VWidth: 1920
Flags: HMW
AnchorPoint: "top" 694 1400 basechar 0
AnchorPoint: "bottom" 685 0 basechar 0
LayerCount: 2
Fore
SplineSet
970 1400 m 2
 1320 1400 l 2
 1327 1400 1330 1397 1330 1390 c 2
 1330 10 l 2
 1330 3 1327 0 1320 0 c 2
 830 0 l 2
 823 0 816.821798778 1.24356300084 813 10 c 2
 400 956.434570312 l 1
 420 956.434570312 l 257
 420 10 l 2
 420 3 417 0 410 0 c 2
 60 0 l 2
 53 0 50 3 50 10 c 2
 50 1390 l 2
 50 1397 53 1400 60 1400 c 2
 650 1400 l 2
 658 1400 663.42753896 1399.03626701 667 1390 c 2
 980 597.87890625 l 5
 960 597.87890625 l 261
 960 1390 l 2
 960 1397 963 1400 970 1400 c 2
EndSplineSet
EndChar

StartChar: O
Encoding: 79 79 26
Width: 1590
VWidth: 1920
Flags: HMW
AnchorPoint: "top" 794 1400 basechar 0
AnchorPoint: "bottom" 795 0 basechar 0
LayerCount: 2
Fore
SplineSet
50 618 m 262
 50 783 l 262
 50 1168.79492188 313.346679688 1435 795 1435 c 260
 1276.65332031 1435 1540 1168.79492188 1540 783 c 262
 1540 618 l 262
 1540 231.891601562 1276.37792969 -35 795 -35 c 260
 313.622070312 -35 50 231.891601562 50 618 c 262
550 608 m 262
 550 409.787109375 631.172851562 305 795 305 c 260
 958.827148438 305 1040 409.787109375 1040 608 c 262
 1040 793 l 262
 1040 990.875 959.051757812 1095 795 1095 c 260
 630.948242188 1095 550 990.875 550 793 c 262
 550 608 l 262
EndSplineSet
EndChar

StartChar: P
Encoding: 80 80 27
Width: 1330
VWidth: 1920
Flags: HMW
AnchorPoint: "top" 624 1400 basechar 0
AnchorPoint: "bottom" 275 0 basechar 0
LayerCount: 2
Fore
SplineSet
560 1050 m 261
 560 750 l 261
 670 750 l 262
 787 750 825 798 825 888 c 262
 825 912 l 262
 825 1002 787 1050 670 1050 c 262
 560 1050 l 261
720 1400 m 262
 1106.87988281 1400 1275 1252 1275 982 c 262
 1275 918 l 262
 1275 648 1107 500 720 500 c 262
 560 500 l 261
 560 10 l 6
 560 3 557 0 550 0 c 6
 80 0 l 6
 73 0 70 3 70 10 c 6
 70 1390 l 6
 70 1397 73 1400 80 1400 c 6
 720 1400 l 262
EndSplineSet
EndChar

StartChar: Q
Encoding: 81 81 28
Width: 1660
VWidth: 1920
Flags: HMW
AnchorPoint: "top" 764 1400 basechar 0
AnchorPoint: "bottom" 765 0 basechar 0
LayerCount: 2
Fore
SplineSet
1635 410 m 6
 1635 10 l 6
 1635 2.8271484375 1635.18261719 -1.0556640625 1623.53417969 -3 c 4
 1313.84667969 -54.705078125 1160 92.7939453125 1160 358 c 261
 1270 588 l 261
 1270 238 1222 -35 745 -35 c 260
 268 -35 70 258 70 608 c 258
 70 793 l 258
 70 1143 278 1435 765 1435 c 260
 1252 1435 1460 1143 1460 793 c 262
 1460 578 l 262
 1460 464.23828125 1531.64648438 424.983398438 1623 420.303710938 c 4
 1635 419.688476562 1635 416.688476562 1635 410 c 6
960 608 m 262
 960 793 l 262
 960 963 922 1095 765 1095 c 260
 608 1095 570 963 570 793 c 258
 570 608 l 258
 570 428 608 305 765 305 c 260
 922 305 960 428 960 608 c 262
EndSplineSet
EndChar

StartChar: R
Encoding: 82 82 29
Width: 1410
VWidth: 1920
Flags: HMW
AnchorPoint: "top" 674 1400 basechar 0
AnchorPoint: "bottom" 675 0 basechar 0
LayerCount: 2
Fore
SplineSet
560 1050 m 261
 560 740 l 261
 660 740 l 262
 787 740 815 803 815 893 c 262
 815 897 l 262
 815 977 787 1050 660 1050 c 262
 560 1050 l 261
760 1400 m 262
 1166.99707031 1400 1315 1212 1315 982 c 262
 1315 958 l 262
 1315 718 1087 580 760 580 c 261
 760 640 l 261
 1117 640 1325 612 1325 372 c 262
 1325 328 l 262
 1325 214.202148438 1356.47558594 129.181640625 1402.37011719 61 c 4
 1410 49.6650390625 1410 46.6650390625 1410 40 c 6
 1410 10 l 6
 1410 3 1407 0 1400 0 c 6
 900 0 l 6
 892.829101562 0 889.829101562 0 884.77734375 9 c 4
 829.123046875 108.147460938 815 240.670898438 815 328 c 262
 815 372 l 262
 815 452 787 490 680 490 c 262
 560 490 l 261
 560 10 l 6
 560 3 557 0 550 0 c 6
 80 0 l 6
 73 0 70 3 70 10 c 6
 70 1390 l 6
 70 1397 73 1400 80 1400 c 6
 760 1400 l 262
EndSplineSet
EndChar

StartChar: S
Encoding: 83 83 30
Width: 1359
VWidth: 1920
Flags: HMW
AnchorPoint: "top" 653 1400 basechar 0
AnchorPoint: "bottom" 654 0 basechar 0
LayerCount: 2
Back
SplineSet
29 488 m 6
 379 488 l 6
 382 488 389 487 389 480 c 4
 389 455 390 445 390 431 c 4
 394 324 494 285 679 285 c 260
 847 285 889 317 889 368 c 260
 889 412 858 425 657 464 c 260
 355 523 69 615 69 973 c 260
 69 1243 267 1435 679 1435 c 260
 1093 1435 1259 1236 1259 1021 c 6
 1259 971 l 6
 1259 964 1254 963 1249 963 c 6
 919 963 l 6
 914 963 909 964 909 971 c 4
 909 985 909 1005 908 1009 c 4
 901 1063 826 1135 669 1135 c 260
 547 1135 499 1083 499 1043 c 260
 499 992 546 969 677 942 c 260
 1047 865 1329 757 1329 428 c 260
 1329 111 1088 -35 649 -35 c 260
 261 -35 20 123 20 399 c 6
 20 479 l 6
 20 486 26 488 29 488 c 6
EndSplineSet
Fore
SplineSet
29 488 m 2
 379 488 l 2
 382 488 389 487 389 480 c 0
 389 455 390 445 390 431 c 0
 394 324 494 285 669 285 c 260
 827 285 889 317 889 368 c 256
 889 420.539530524 794.358296311 433.60615154 671.425466018 462.212344638 c 0
 428.496172235 518.741444884 69 577.597008474 69 973 c 256
 69 1243 267 1435 679 1435 c 256
 1093 1435 1259 1236 1259 1021 c 2
 1259 971 l 2
 1259 964 1254 963 1249 963 c 2
 919 963 l 2
 914 963 909 964 909 971 c 0
 909 985 909 1005 908 1009 c 0
 901 1063 826 1135 689 1135 c 256
 567 1135 499 1093 499 1043 c 256
 499 981.707709744 603.362672321 951.817637032 740.26067373 925.523687106 c 0
 985.315488277 878.456096955 1329 788.419934872 1329 428 c 256
 1329 111 1088 -35 649 -35 c 256
 261 -35 20 123 20 399 c 2
 20 479 l 2
 20 486 26 488 29 488 c 2
EndSplineSet
EndChar

StartChar: T
Encoding: 84 84 31
Width: 1350
VWidth: 1920
Flags: HMW
AnchorPoint: "top" 674 1400 basechar 0
AnchorPoint: "bottom" 635 0 basechar 0
LayerCount: 2
Fore
SplineSet
40 1400 m 6
 1310 1400 l 6
 1317 1400 1320 1397 1320 1390 c 6
 1320 1060 l 6
 1320 1053 1317 1050 1310 1050 c 6
 920 1050 l 261
 920 10 l 6
 920 3 917 0 910 0 c 6
 440 0 l 6
 433 0 430 3 430 10 c 6
 430 1050 l 261
 40 1050 l 6
 33 1050 30 1053 30 1060 c 6
 30 1390 l 6
 30 1397 33 1400 40 1400 c 6
EndSplineSet
EndChar

StartChar: U
Encoding: 85 85 32
Width: 1370
VWidth: 1920
Flags: HMW
AnchorPoint: "ogonek" 795 0 basechar 0
AnchorPoint: "top" 699 1400 basechar 0
AnchorPoint: "bottom" 700 0 basechar 0
LayerCount: 2
Fore
SplineSet
950 588 m 262
 950 1390 l 2
 950 1397 953 1400 960 1400 c 2
 1310 1400 l 2
 1317 1400 1320 1397 1320 1390 c 2
 1320 498 l 258
 1320 178.043945312 1192 -35 695 -35 c 256
 138 -35 60 208.009765625 60 588 c 258
 60 1390 l 2
 60 1397 63 1400 70 1400 c 2
 550 1400 l 2
 557 1400 560 1397 560 1390 c 2
 560 658 l 262
 560 408.067382812 598 305 765 305 c 260
 892 305 950 378.01171875 950 588 c 262
EndSplineSet
EndChar

StartChar: V
Encoding: 86 86 33
Width: 1445
VWidth: 1920
Flags: HMW
AnchorPoint: "top" 781.265 1400 basechar 0
AnchorPoint: "bottom" 782.265 0 basechar 0
LayerCount: 2
Fore
SplineSet
785.264648438 422 m 261
 1084.26464844 1390 l 258
 1086.21679688 1395.99414062 1090.26464844 1400 1097.26464844 1400 c 258
 1457.26464844 1400 l 258
 1464.26464844 1400 1466.26464844 1396 1464.26464844 1390 c 258
 985.264648438 10 l 258
 983.264648438 4 979.264648438 0 972.264648438 0 c 258
 472.264648438 0 l 258
 465.264648438 0 461.264648438 4 459.264648438 10 c 258
 -29.7353515625 1390 l 258
 -31.7353515625 1396 -29.7353515625 1400 -22.7353515625 1400 c 258
 457.264648438 1400 l 258
 464.264648438 1400 467.903320312 1396.8828125 470.264648438 1390 c 258
 785.264648438 422 l 261
EndSplineSet
EndChar

StartChar: W
Encoding: 87 87 34
Width: 1834
VWidth: 1920
Flags: HMW
AnchorPoint: "top" 931.613 1400 basechar 0
AnchorPoint: "bottom" 932.613 0 basechar 0
LayerCount: 2
Fore
SplineSet
577.544921875 690.13671875 m 257
 774.61328125 1390 l 2
 776.461914062 1396.47167969 780.61328125 1400 787.61328125 1400 c 2
 1137.61328125 1400 l 2
 1144.61328125 1400 1148.84375 1396.51953125 1150.61328125 1390 c 2
 1365.32128906 653.888671875 l 261
 1514.61328125 1390 l 2
 1516.21289062 1396.61328125 1520.61328125 1400 1527.61328125 1400 c 2
 1887.61328125 1400 l 2
 1894.61328125 1400 1896.36035156 1396.53320312 1894.61328125 1390 c 2
 1565.61328125 10 l 2
 1563.73339844 2.9677734375 1559.64160156 0 1552.61328125 0 c 2
 1102.61328125 0 l 2
 1095.64746094 0 1091.5625 2.71875 1089.61328125 10 c 2
 900.915039062 650.9921875 l 257
 695.61328125 10 l 2
 693.689453125 2.9794921875 689.641601562 0 682.61328125 0 c 2
 287.61328125 0 l 2
 280.61328125 0 276.5625 2.5068359375 274.61328125 10 c 2
 -44.38671875 1390 l 2
 -46.0927734375 1396.55664062 -44.38671875 1400 -37.38671875 1400 c 2
 437.61328125 1400 l 2
 444.61328125 1400 449.005859375 1396.609375 450.61328125 1390 c 2
 577.544921875 690.13671875 l 257
EndSplineSet
EndChar

StartChar: X
Encoding: 88 88 35
Width: 1433
VWidth: 1920
Flags: HMW
AnchorPoint: "top" 731 1400 basechar 0
AnchorPoint: "bottom" 732 0 basechar 0
LayerCount: 2
Fore
SplineSet
942 1400 m 2
 1417 1400 l 2
 1424 1400 1425 1398 1420 1390 c 2
 978 755 l 257
 1470 10 l 2
 1475 2 1474 0 1467 0 c 2
 867 0 l 2
 860 0 856 2 851 10 c 2
 676 363 l 257
 459 10 l 2
 453 2 449 0 442 0 c 2
 -33 0 l 2
 -40 0 -42 2 -36 10 c 2
 476 659 l 257
 -6 1390 l 2
 -11 1398 -10 1400 -3 1400 c 2
 607 1400 l 2
 615 1400 619 1398 624 1390 c 2
 758 1062 l 257
 925 1390 l 2
 930 1398 935 1400 942 1400 c 2
EndSplineSet
EndChar

StartChar: Y
Encoding: 89 89 36
Width: 1490
VWidth: 1920
Flags: HMW
AnchorPoint: "top" 779.039 1400 basechar 0
AnchorPoint: "bottom" 750.039 0 basechar 0
LayerCount: 2
Fore
SplineSet
1100.0390625 1400 m 2
 1485.0390625 1400 l 2
 1492.0390625 1400 1493.32128906 1397.20898438 1489.0390625 1390 c 2
 990.0390625 550 l 257
 990.0390625 10 l 2
 990.0390625 3 987.0390625 0 980.0390625 0 c 2
 510.0390625 0 l 2
 503.0390625 0 500.0390625 3 500.0390625 10 c 2
 500.0390625 550 l 257
 1.0390625 1390 l 2
 -3.599609375 1397.80859375 -1.9609375 1400 5.0390625 1400 c 2
 560.0390625 1400 l 2
 567.09765625 1400 571.661132812 1397.36914062 576.0390625 1390 c 2
 830.0390625 899.901367188 l 257
 1084.0390625 1390 l 2
 1088.41699219 1397.36914062 1092.9296875 1400 1100.0390625 1400 c 2
EndSplineSet
EndChar

StartChar: Z
Encoding: 90 90 37
Width: 1270
VWidth: 1920
Flags: HMW
AnchorPoint: "top" 666.66 1400 basechar 0
AnchorPoint: "bottom" 667.66 0 basechar 0
LayerCount: 2
Fore
SplineSet
-70.33984375 10 m 2
 608.731445312 1050 l 257
 72.66015625 1050 l 2
 65.66015625 1050 62.66015625 1053 62.66015625 1060 c 2
 62.66015625 1390 l 2
 62.66015625 1397 65.66015625 1400 72.66015625 1400 c 2
 1302.66015625 1400 l 2
 1309.66015625 1400 1311.16699219 1397.76757812 1305.66015625 1390 c 2
 626.588867188 350 l 257
 1242.66015625 350 l 6
 1249.66015625 350 1252.66015625 347 1252.66015625 340 c 6
 1252.66015625 10 l 6
 1252.66015625 3 1249.66015625 0 1242.66015625 0 c 6
 -67.33984375 0 l 2
 -74.33984375 0 -75.9833984375 2.0390625 -70.33984375 10 c 2
EndSplineSet
EndChar

StartChar: a
Encoding: 97 97 38
Width: 1290
VWidth: 1920
Flags: HMW
AnchorPoint: "ogonek" 1036.04 0 basechar 0
AnchorPoint: "top" 660.04 1050 basechar 0
AnchorPoint: "bottom" 631.04 0 basechar 0
LayerCount: 2
Fore
SplineSet
516.040039062 320 m 4
 516.040039062 256.396484375 548.221679688 235 596.040039062 235 c 260
 680.040039062 235 734.040039062 292 734.040039062 438 c 261
 864.040039062 328 l 261
 864.040039062 125 693.040039062 -35 412.040039062 -35 c 260
 172.776367188 -35 26.0400390625 55.109375 26.0400390625 270 c 4
 26.0400390625 461.0078125 144.599609375 575.212890625 485.040039062 615 c 260
 669.09765625 636.510742188 734.040039062 675 734.040039062 718 c 261
 774.040039062 538 l 261
 774.040039062 475 706.123046875 453.532226562 642.040039062 440 c 260
 564.118164062 423.545898438 516.040039062 400.081054688 516.040039062 320 c 4
734.040039062 208 m 262
 734.040039062 738 l 262
 734.040039062 778 714.040039062 805 649.040039062 805 c 260
 580.293945312 805 567.36328125 754.200195312 564.17578125 702 c 4
 563.809719457 696.005177386 560.903320312 693 554.040039062 693 c 6
 104.040039062 693 l 6
 96.9736328125 693 94.0244140625 695.9921875 94.8935546875 702 c 4
 128.569335938 934.799804688 338.421875 1085 684.040039062 1085 c 260
 1044.04003906 1085 1214.04003906 961 1214.04003906 693 c 262
 1214.04003906 208 l 262
 1214.04003906 113.612304688 1235.51269531 48.6728515625 1271.45800781 7 c 4
 1275.71972656 2.05859375 1274.65039062 0 1268.04003906 0 c 6
 834.040039062 0 l 6
 826.723632812 0 821.786132812 2.0537109375 818.376953125 6 c 4
 781.4375 48.76171875 734.040039062 112.8359375 734.040039062 208 c 262
EndSplineSet
EndChar

StartChar: b
Encoding: 98 98 39
Width: 1315
VWidth: 1920
Flags: HMW
LayerCount: 2
Fore
SplineSet
60 1450 m 2
 530 1450 l 2
 537 1450 540 1447 540 1440 c 2
 540 325 l 257
 197 -25 l 2
 189.966796875 -32.1767578125 177 -35 170 -35 c 2
 60 -35 l 2
 53 -35 50 -32 50 -25 c 2
 50 1440 l 2
 50 1447 53 1450 60 1450 c 2
480 633 m 257
 480 923 617 1085 874 1085 c 256
 1141 1085 1290 943 1290 603 c 258
 1290 447 l 258
 1290 127 1101 -35 784 -35 c 256
 497 -35 290 127 290 417 c 257
 540 487 l 257
 540 347 587 305 664 305 c 256
 751 305 800 357 800 467 c 258
 800 583 l 258
 800 693 751 745 664 745 c 256
 587 745 540 673 540 563 c 257
 480 633 l 257
EndSplineSet
EndChar

StartChar: c
Encoding: 99 99 40
Width: 1130
VWidth: 1920
Flags: HMW
AnchorPoint: "bottom" 640.393 0 basechar 0
AnchorPoint: "top" 634.393 1050 basechar 0
LayerCount: 2
Fore
SplineSet
1114.98046875 430 m 4
 1111.14302766 363.319549717 1097.30555396 300.103379978 1072.79989109 243.00000829 c 4
 1002.28977334 78.6965375805 843.459326527 -35 580.392578125 -35 c 260
 200.392578125 -35 25.392578125 151 25.392578125 448 c 262
 25.392578125 603 l 262
 25.392578125 900 205.392578125 1085 585.392578125 1085 c 260
 852.779354344 1085 1007.0480844 984.502682698 1071.00000275 806.469673056 c 4
 1090.65638714 751.749105441 1101.78042044 689.703636322 1105.03417969 621 c 4
 1105.27148438 615.989257812 1102.43457031 613 1095.39257812 613 c 6
 805.392578125 613 l 6
 798.434570312 613 795.047851562 615.975585938 794.982421875 620 c 4
 794.448495938 652.818946222 788.66787354 681.204023747 778.641821964 704.999980568 c 4
 753.697549824 764.203029574 702.474606331 795 640.392578125 795 c 260
 556.392578125 795 515.392578125 733 515.392578125 583 c 262
 515.392578125 468 l 262
 515.392578125 325 566.392578125 255 655.392578125 255 c 260
 710.597429635 255 754.737250291 285.777305582 780.383224998 332.999997194 c 4
 795.5400592 360.908724216 804.237290568 394.561559982 804.94140625 431 c 4
 805.01953125 435.030273438 808.439453125 438 815.392578125 438 c 6
 1105.39257812 438 l 6
 1112.44140625 438 1115.26855469 435.012695312 1114.98046875 430 c 4
EndSplineSet
EndChar

StartChar: d
Encoding: 100 100 41
Width: 1315
VWidth: 1920
Flags: HMW
LayerCount: 2
Fore
SplineSet
835 417 m 261
 835 127 698 -35 441 -35 c 260
 174 -35 25 107 25 447 c 262
 25 603 l 262
 25 943 174 1085 441 1085 c 260
 698 1085 835 923 835 633 c 261
 775 563 l 261
 775 673 728 745 651 745 c 260
 564 745 515 693 515 583 c 262
 515 467 l 262
 515 357 564 305 651 305 c 260
 728 305 775 377 775 487 c 261
 835 417 l 261
1265 1440 m 6
 1265 10 l 6
 1265 3 1262 0 1255 0 c 6
 800 0 l 6
 793 0 790 3 790 10 c 6
 790 220 l 261
 775 252 l 261
 775 1440 l 6
 775 1447 778 1450 785 1450 c 6
 1255 1450 l 6
 1262 1450 1265 1447 1265 1440 c 6
EndSplineSet
EndChar

StartChar: e
Encoding: 101 101 42
Width: 1258
VWidth: 1920
Flags: HMW
AnchorPoint: "ogonek" 839 60 basechar 0
AnchorPoint: "bottom" 633 0 basechar 0
AnchorPoint: "top" 644 1050 basechar 0
LayerCount: 2
Fore
SplineSet
1233 329 m 4
 1220 270 1197 218 1164 173 c 4
 1065 38 879 -35 631 -35 c 260
 262 -35 25 138 25 448 c 262
 25 603 l 262
 25 903 262 1085 639 1085 c 260
 1006 1085 1211 889 1235 624 c 260
 1241 553 1243 527 1243 443 c 4
 1243 438 1240 435 1233 435 c 6
 299 435 l 261
 299 605 l 261
 759 605 l 261
 754 747 707 805 634 805 c 260
 567 805 515 753 515 633 c 262
 515 418 l 262
 515 268 562 245 639 245 c 260
 721 245 752 274 764 332 c 4
 765 336 768 338 775 338 c 6
 1225 338 l 6
 1232 338 1234 335 1233 329 c 4
EndSplineSet
EndChar

StartChar: f
Encoding: 102 102 43
Width: 770
VWidth: 1920
Flags: HMW
LayerCount: 2
Fore
SplineSet
750 810 m 2
 20 810 l 2
 13 810 10 813 10 820 c 2
 10 1040 l 2
 10 1047 13 1050 20 1050 c 2
 750 1050 l 2
 757 1050 760 1047 760 1040 c 2
 760 820 l 2
 760 813 757 810 750 810 c 2
130 1188 m 262
 130 1425.14550781 360.911132812 1468.85058594 748 1441.16601562 c 4
 757.045898438 1440.51855469 760 1437.046875 760 1430 c 6
 760 1170 l 6
 760 1163.15625 756.849609375 1159.265625 744 1161.88964844 c 4
 668.801757812 1177.24707031 615 1153.49511719 615 1068 c 262
 615 10 l 6
 615 3 612 0 605 0 c 6
 140 0 l 6
 133 0 130 3 130 10 c 6
 130 1188 l 262
EndSplineSet
EndChar

StartChar: g
Encoding: 103 103 44
Width: 1270
VWidth: 1920
Flags: HMW
AnchorPoint: "top" 595 1100 basechar 0
LayerCount: 2
Fore
SplineSet
1294 1250 m 0
 1280 1058 1094 970 755 970 c 257
 725 1000 l 257
 784 1000 823 1061 854 1251 c 0
 855 1257 858 1260 865 1260 c 2
 1285 1260 l 2
 1292 1260 1295 1257 1294 1250 c 0
823 340 m 258
 1143 340 1285 242 1285 25 c 256
 1285 -212 1083 -360 693 -360 c 258
 468 -360 l 258
 138 -360 -15 -292 -15 -135 c 256
 -15 -18 118 90 428 90 c 257
 618 50 l 257
 498 50 445 -8 445 -65 c 256
 445 -132 488 -160 608 -160 c 258
 623 -160 l 258
 743 -160 825 -132 825 -75 c 256
 825 -28 793 0 713 0 c 258
 418 0 l 258
 178 0 6 118 6 305 c 256
 6 512 200 595 440 595 c 257
 420 495 l 257
 360 495 316 462 316 415 c 256
 316 363 518 340 648 340 c 258
 823 340 l 258
765 738 m 258
 765 753 l 258
 765 795 742 835 670 835 c 256
 602 835 575 798 575 753 c 258
 575 738 l 258
 575 703 602 655 670 655 c 256
 742 655 765 695 765 738 c 258
1235 738 m 258
 1235 548 1037 405 670 405 c 256
 303 405 105 548 105 738 c 258
 105 753 l 258
 105 943 303 1085 670 1085 c 256
 1037 1085 1235 943 1235 753 c 258
 1235 738 l 258
EndSplineSet
EndChar

StartChar: h
Encoding: 104 104 45
Width: 1255
VWidth: 1920
Flags: HMW
AnchorPoint: "bottom" 629 0 basechar 0
AnchorPoint: "top" 292 1450 basechar 0
LayerCount: 2
Fore
SplineSet
60 1450 m 2
 530 1450 l 2
 537 1450 540 1447 540 1440 c 2
 540 10 l 2
 540 3 536.595703125 0 530 0 c 2
 60 0 l 2
 53 0 50 3 50 10 c 2
 50 1440 l 2
 50 1447 53 1450 60 1450 c 2
490 703 m 257
 490 943 648 1085 865 1085 c 256
 1092 1085 1210 972.995117188 1210 663 c 258
 1210 10 l 2
 1210 3 1207 0 1200 0 c 2
 730 0 l 2
 723 0 720 3 720 10 c 2
 720 613 l 258
 720 713 702 755 645 755 c 256
 588 755 540 683 540 473 c 257
 490 703 l 257
EndSplineSet
EndChar

StartChar: i
Encoding: 105 105 46
Width: 590
VWidth: 1920
Flags: HMW
AnchorPoint: "bottom" 296 0 basechar 0
AnchorPoint: "ogonek" 296 0 basechar 0
LayerCount: 2
Fore
SplineSet
470 1500 m 2
 470 1170 l 2
 470 1163 467 1160 460 1160 c 2
 130 1160 l 2
 123 1160 120 1163 120 1170 c 2
 120 1500 l 2
 120 1507 123 1510 130 1510 c 2
 460 1510 l 2
 467 1510 470 1507 470 1500 c 2
540 1040 m 6
 540 10 l 6
 540 3 537 0 530 0 c 6
 60 0 l 6
 53 0 50 3 50 10 c 6
 50 1040 l 6
 50 1047 53 1050 60 1050 c 6
 530 1050 l 6
 537 1050 540 1047 540 1040 c 6
EndSplineSet
EndChar

StartChar: j
Encoding: 106 106 47
Width: 590
VWidth: 1920
Flags: HMW
LayerCount: 2
Fore
SplineSet
470 1500 m 2
 470 1170 l 2
 470 1163 467 1160 460 1160 c 2
 130 1160 l 2
 123 1160 120 1163 120 1170 c 2
 120 1500 l 2
 120 1507 123 1510 130 1510 c 2
 460 1510 l 2
 467 1510 470 1507 470 1500 c 2
540 2 m 262
 540 -355.388671875 268.923828125 -378.211914062 -119 -351.072265625 c 4
 -127.045898438 -350.509765625 -130 -347.040039062 -130 -340 c 6
 -130 -80 l 6
 -130 -73.0595703125 -127.018554688 -70.1767578125 -120 -71.2158203125 c 4
 -0.9189453125 -88.853515625 50 -55.2080078125 50 72 c 262
 50 1040 l 6
 50 1047 53 1050 60 1050 c 6
 530 1050 l 6
 537 1050 540 1047 540 1040 c 6
 540 2 l 262
EndSplineSet
EndChar

StartChar: k
Encoding: 107 107 48
Width: 1340
VWidth: 1920
Flags: HMW
LayerCount: 2
Fore
SplineSet
60 1450 m 6
 530 1450 l 6
 537 1450 540 1447 540 1440 c 6
 540 10 l 6
 540 3 537 0 530 0 c 6
 60 0 l 6
 53 0 50 3 50 10 c 6
 50 1440 l 6
 50 1447 53 1450 60 1450 c 6
270 463 m 261
 761 1040 l 6
 769 1048 772 1050 780 1050 c 6
 1330 1050 l 6
 1337 1050 1338 1048 1329 1040 c 6
 530 233 l 261
 270 463 l 261
480 653 m 261
 930 713 l 261
 1434 10 l 6
 1439 3 1437 0 1430 0 c 6
 840 0 l 6
 832 0 828 3 824 10 c 6
 480 653 l 261
EndSplineSet
EndChar

StartChar: l
Encoding: 108 108 49
Width: 590
VWidth: 1920
Flags: HMW
LayerCount: 2
Fore
SplineSet
60 1450 m 6
 530 1450 l 6
 537 1450 540 1447 540 1440 c 6
 540 10 l 6
 540 3 536.595703125 0 530 0 c 6
 60 0 l 6
 53 0 50 3 50 10 c 6
 50 1440 l 6
 50 1447 53 1450 60 1450 c 6
EndSplineSet
EndChar

StartChar: m
Encoding: 109 109 50
Width: 1625
VWidth: 1920
Flags: HMW
LayerCount: 2
Fore
SplineSet
940 703 m 257
 940 943 1088 1085 1285 1085 c 256
 1492 1085 1580 972.995117188 1580 663 c 258
 1580 10 l 2
 1580 3 1577 0 1570 0 c 2
 1120 0 l 2
 1113 0 1110 3 1110 10 c 2
 1110 613 l 258
 1110 713 1102 755 1065 755 c 256
 1028 755 1010 683 1010 473 c 257
 940 703 l 257
60 1050 m 2
 500 1050 l 2
 507 1050 510 1047 510 1040 c 2
 510 687 l 257
 520 660 l 257
 520 10 l 2
 520 3 517 0 510 0 c 2
 60 0 l 2
 53 0 50 3 50 10 c 2
 50 1040 l 2
 50 1047 53 1050 60 1050 c 2
470 703 m 257
 470 943 568 1085 755 1085 c 260
 942 1085 1010 972.995117188 1010 663 c 258
 1010 10 l 2
 1010 3 1007 0 1000 0 c 2
 630 0 l 2
 623 0 620 3 620 10 c 2
 620 613 l 258
 620 713 612 755 575 755 c 256
 538 755 520 683 520 473 c 257
 470 703 l 257
EndSplineSet
EndChar

StartChar: n
Encoding: 110 110 51
Width: 1255
VWidth: 1920
Flags: HMW
AnchorPoint: "bottom" 629 0 basechar 0
AnchorPoint: "top" 630 1050 basechar 0
LayerCount: 2
Fore
SplineSet
60 1050 m 6
 520 1050 l 6
 527 1050 530 1047 530 1040 c 6
 530 687 l 261
 540 660 l 261
 540 10 l 6
 540 3 537 0 530 0 c 6
 60 0 l 6
 53 0 50 3 50 10 c 6
 50 1040 l 6
 50 1047 53 1050 60 1050 c 6
490 703 m 261
 490 943 648 1085 865 1085 c 260
 1092 1085 1210 972.995117188 1210 663 c 262
 1210 10 l 6
 1210 3 1207 0 1200 0 c 6
 730 0 l 6
 723 0 720 3 720 10 c 6
 720 613 l 262
 720 713 702 755 645 755 c 260
 588 755 540 683 540 473 c 261
 490 703 l 261
EndSplineSet
EndChar

StartChar: o
Encoding: 111 111 52
Width: 1280
VWidth: 1920
Flags: HMW
AnchorPoint: "top" 640 1050 basechar 0
AnchorPoint: "bottom" 639 0 basechar 0
LayerCount: 2
Fore
SplineSet
25 448 m 262
 25 603 l 262
 25 893 263 1085 640 1085 c 260
 1017 1085 1255 893 1255 603 c 262
 1255 448 l 262
 1255 158 1017 -35 640 -35 c 260
 263 -35 25 158 25 448 c 262
520 418 m 262
 520 298 553 245 640 245 c 260
 727 245 760 298 760 418 c 262
 760 633 l 262
 760 753 727 805 640 805 c 260
 553 805 520 753 520 633 c 262
 520 418 l 262
EndSplineSet
EndChar

StartChar: p
Encoding: 112 112 53
Width: 1315
VWidth: 1920
Flags: HMW
LayerCount: 2
Fore
SplineSet
480 633 m 261
 480 923 617 1085 874 1085 c 260
 1141 1085 1290 943 1290 603 c 262
 1290 447 l 262
 1290 107 1141 -35 874 -35 c 260
 617 -35 480 127 480 417 c 261
 540 487 l 261
 540 377 587 305 664 305 c 260
 751 305 800 357 800 467 c 262
 800 583 l 262
 800 693 751 745 664 745 c 260
 587 745 540 673 540 563 c 261
 480 633 l 261
50 -350 m 2
 50 1040 l 2
 50 1047 53 1050 60 1050 c 2
 515 1050 l 2
 522 1050 525 1047 525 1040 c 2
 525 830 l 257
 540 798 l 257
 540 -350 l 2
 540 -357 537 -360 530 -360 c 2
 60 -360 l 2
 53 -360 50 -357 50 -350 c 2
EndSplineSet
EndChar

StartChar: q
Encoding: 113 113 54
Width: 1335
VWidth: 1920
Flags: HMW
LayerCount: 2
Fore
SplineSet
1255 -360 m 6
 785 -360 l 6
 778 -360 775 -357 775 -350 c 6
 775 725 l 261
 1118 1075 l 6
 1125.03320312 1082.17675781 1138 1085 1145 1085 c 6
 1255 1085 l 6
 1262 1085 1265 1082 1265 1075 c 6
 1265 -350 l 6
 1265 -357 1262 -360 1255 -360 c 6
835 417 m 261
 835 127 698 -35 441 -35 c 260
 174 -35 25 107 25 447 c 262
 25 603 l 262
 25 923 214 1085 531 1085 c 260
 818 1085 1025 923 1025 633 c 261
 775 563 l 261
 775 703 728 745 651 745 c 260
 564 745 515 693 515 583 c 262
 515 467 l 262
 515 357 564 305 651 305 c 260
 728 305 775 377 775 487 c 261
 835 417 l 261
EndSplineSet
EndChar

StartChar: r
Encoding: 114 114 55
Width: 935
VWidth: 1920
Flags: HMW
AnchorPoint: "top" 475 1050 basechar 0
AnchorPoint: "bottom" 324 0 basechar 0
LayerCount: 2
Fore
SplineSet
80 1050 m 2
 515 1050 l 2
 523.283277544 1049.4516908 525 1046.57611145 525 1040 c 2
 525 724 l 25
 560 715 l 25
 560 10 l 18
 560 1.71641391964 556.575747962 0 550 0 c 10
 80 0 l 22
 73.5132661147 0 70 3.50249416124 70 10 c 14
 70 1040 l 2
 70.1799327814 1046.48673389 73.5024941612 1049.83083917 80 1050 c 2
500 623 m 257
 500 818.681640625 540.590820312 1107.69042969 901 1076.02832031 c 0
 911.984375 1075.06347656 915 1072.26171875 915 1065 c 2
 915 685 l 2
 915 678.345703125 911.86328125 672.571289062 898 674.64453125 c 0
 672.557617188 708.360351562 560 596.54296875 560 383 c 257
 500 623 l 257
EndSplineSet
EndChar

StartChar: s
Encoding: 115 115 56
Width: 1159
VWidth: 1920
Flags: HMW
AnchorPoint: "top" 522 1050 basechar 0
AnchorPoint: "bottom" 561 0 basechar 0
LayerCount: 2
Back
SplineSet
29 358 m 2
 377 358 l 2
 385 358 389 355 389 349 c 0
 389 330.688476562 389.625890313 316.582353324 392 294.791015625 c 0
 397.165015242 247.382678937 454.391943566 225 531 225 c 256
 615 225 649 231 649 272 c 256
 649 311 610.392678925 319.967052946 494 354 c 258
 323 404 l 2
 132.59447243 459.674130868 49 571 49 738 c 256
 49 975 231 1085 561 1085 c 256
 879.985072191 1085 1063.07228944 966.51203587 1063.97849761 756.000024917 c 0
 1064 751.005022243 1064 748.005022243 1064 742 c 0
 1064 735 1061 733 1054 733 c 2
 715 733 l 2
 708 733 704 736 704 743 c 0
 704 752.53948349 704.144855891 760.544036917 703.8379842 768.000001019 c 0
 701.720967425 819.436485884 644.499290364 840 566 840 c 256
 495 840 459 828 459 795 c 256
 459 764 496.462915988 752.46851929 644 713 c 258
 801 671 l 2
 1054.95922462 603.061863476 1129 491 1129 302 c 256
 1129 59 941 -35 570 -35 c 256
 206.249267625 -35 27.2646567884 67.3755849264 20.1540935196 279 c 0
 19.6352139269 294.442882112 20 324.450828429 20 350 c 0
 20 357 22 358 29 358 c 2
EndSplineSet
Fore
SplineSet
29 358 m 2
 377 358 l 2
 385 358 389 355 389 349 c 0
 389 330.688476562 389.625890313 316.582353324 392 294.791015625 c 0
 397.165015242 247.382678937 455.391601562 225 531 225 c 256
 615 225 649 231 649 272 c 256
 649 392.72265625 49 339.932617188 49 718 c 256
 49 965 231 1085 561 1085 c 256
 880.985351562 1085 1063.07228944 966.51203587 1063.97849761 756.000024917 c 0
 1064 751.005022243 1064 748.005022243 1064 742 c 0
 1064 735 1061 733 1054 733 c 2
 715 733 l 2
 708 733 704 736 704 743 c 0
 704 752.53948349 704.144855891 760.544036917 703.8379842 768.000001019 c 0
 701.720967425 819.436485884 645.499023438 840 566 840 c 256
 495 840 459 828 459 795 c 256
 459 675.48828125 1129 752.778320312 1129 312 c 260
 1129 69 941 -35 570 -35 c 256
 207.249023438 -35 27.2646567884 67.3755849264 20.1540935196 279 c 0
 19.6352139269 294.442882112 20 324.450828429 20 350 c 0
 20 357 22 358 29 358 c 2
EndSplineSet
EndChar

StartChar: t
Encoding: 116 116 57
Width: 815
VWidth: 1920
Flags: HMW
AnchorPoint: "bottom" 559 0 basechar 0
LayerCount: 2
Fore
SplineSet
775 810 m 2
 -5 810 l 2
 -12 810 -15 813 -15 820 c 2
 -15 1040 l 2
 -15 1047 -12 1050 -5 1050 c 2
 775 1050 l 2
 782 1050 785 1047 785 1040 c 2
 785 820 l 2
 785 813 782 810 775 810 c 2
790 320 m 6
 790 10 l 6
 790 2.9619140625 787.06640625 -0.4794921875 780 -1.30859375 c 4
 292.491210938 -58.482421875 115 44.3720703125 115 352 c 262
 115 1290 l 6
 115 1297 118 1300 125 1300 c 6
 590 1300 l 6
 597 1300 600 1297 600 1290 c 6
 600 422 l 262
 600 314.506835938 681.08203125 310.674804688 781 328.901367188 c 4
 786.9921875 329.994140625 790 326.951171875 790 320 c 6
EndSplineSet
EndChar

StartChar: u
Encoding: 117 117 58
Width: 1255
VWidth: 1920
Flags: HMW
AnchorPoint: "ogonek" 954 0 basechar 0
AnchorPoint: "bottom" 568 0 basechar 0
AnchorPoint: "top" 619 1050 basechar 0
LayerCount: 2
Fore
SplineSet
1195 0 m 6
 735 0 l 6
 728 0 725 3 725 10 c 6
 725 363 l 261
 715 390 l 261
 715 1040 l 6
 715 1047 718 1050 725 1050 c 6
 1195 1050 l 6
 1202 1050 1205 1047 1205 1040 c 6
 1205 10 l 6
 1205 3 1202 0 1195 0 c 6
765 347 m 261
 765 107 607 -35 390 -35 c 260
 163 -35 45 77.0048828125 45 387 c 262
 45 1040 l 6
 45 1047 48 1050 55 1050 c 6
 525 1050 l 6
 532 1050 535 1047 535 1040 c 6
 535 437 l 262
 535 337 553 295 610 295 c 260
 667 295 715 367 715 577 c 261
 765 347 l 261
EndSplineSet
EndChar

StartChar: v
Encoding: 118 118 59
Width: 1218
VWidth: 1920
Flags: HMW
LayerCount: 2
Fore
SplineSet
668.650390625 338 m 261
 816.650390625 1040 l 6
 818.650390625 1047 823.650390625 1050 830.650390625 1050 c 6
 1230.65039062 1050 l 6
 1237.65039062 1050 1239.65039062 1047 1236.65039062 1040 c 6
 934.650390625 10 l 6
 931.650390625 2 927.650390625 0 920.650390625 0 c 6
 336.650390625 0 l 2
 329.650390625 0 325.650390625 3 322.650390625 10 c 2
 -29.349609375 1040 l 2
 -31.349609375 1047 -30.349609375 1050 -23.349609375 1050 c 2
 506.650390625 1050 l 6
 513.650390625 1050 517.650390625 1047 519.650390625 1040 c 6
 668.650390625 338 l 261
EndSplineSet
EndChar

StartChar: w
Encoding: 119 119 60
Width: 1530
VWidth: 1920
Flags: HMW
LayerCount: 2
Fore
SplineSet
1122.26464844 468 m 261
 1200.26464844 1040 l 6
 1202.26464844 1047 1205.26464844 1050 1212.26464844 1050 c 6
 1522.26464844 1050 l 2
 1529.26464844 1050 1531.26464844 1047 1529.26464844 1040 c 2
 1345.26464844 10 l 2
 1343.26464844 3 1339.26464844 0 1332.26464844 0 c 2
 857.264648438 0 l 2
 850.264648438 0 846.264648438 2 844.264648438 10 c 2
 767.264648438 358 l 257
 705.264648438 10 l 2
 703.264648438 2 699.264648438 0 692.264648438 0 c 2
 207.264648438 0 l 2
 200.264648438 0 196.264648438 2 194.264648438 10 c 2
 0.2646484375 1040 l 2
 -1.7353515625 1047 0.2646484375 1050 7.2646484375 1050 c 2
 467.264648438 1050 l 2
 474.264648438 1050 478.264648438 1047 480.264648438 1040 c 2
 562.264648438 498 l 257
 679.264648438 1040 l 2
 681.264648438 1047 685.264648438 1050 692.264648438 1050 c 2
 987.264648438 1050 l 6
 994.264648438 1050 998.264648438 1047 1000.26464844 1040 c 6
 1122.26464844 468 l 261
EndSplineSet
EndChar

StartChar: x
Encoding: 120 120 61
Width: 1277
VWidth: 1920
Flags: HMW
LayerCount: 2
Fore
SplineSet
395.868164062 0 m 2
 -54.1318359375 0 l 2
 -61.1318359375 0 -62.203125 2.666015625 -57.1318359375 10 c 2
 340.868164062 505 l 261
 -32.1318359375 1040 l 2
 -37.5107421875 1047.80566406 -36.1318359375 1050 -29.1318359375 1050 c 2
 570.868164062 1050 l 2
 577.926757812 1050 581.97265625 1047.70214844 586.868164062 1040 c 2
 678.868164062 865 l 257
 789.868164062 1040 l 2
 794.579101562 1047.78027344 798.758789062 1050 805.868164062 1050 c 2
 1255.86816406 1050 l 2
 1262.86816406 1050 1264.07714844 1047.38085938 1258.86816406 1040 c 2
 895.868164062 624 l 257
 1313.86816406 10 l 2
 1318.88378906 2.3779296875 1317.86816406 0 1310.86816406 0 c 2
 720.868164062 0 l 2
 712.809570312 0 709.782226562 2.306640625 704.868164062 10 c 2
 568.868164062 233 l 261
 411.868164062 10 l 2
 407.368164062 2.6923828125 402.977539062 0 395.868164062 0 c 2
EndSplineSet
EndChar

StartChar: y
Encoding: 121 121 62
Width: 1209
VWidth: 1920
Flags: HMW
AnchorPoint: "top" 616.894 1050 basechar 0
LayerCount: 2
Fore
SplineSet
660.893554688 338 m 257
 808.893554688 1040 l 2
 811.321289062 1046.84863281 814.865234375 1050 821.893554688 1050 c 2
 1221.89355469 1050 l 2
 1228.89355469 1050 1230.33984375 1046.578125 1227.89355469 1040 c 2
 954.893554688 139 l 258
 792.80078125 -416.305664062 533.048828125 -439.63671875 17.8935546875 -352.859375 c 0
 5.7392578125 -350.811523438 2.8935546875 -347.043945312 2.8935546875 -340 c 2
 2.8935546875 -30 l 2
 2.8935546875 -23.0888671875 6.02734375 -19.7861328125 13.8935546875 -23.4189453125 c 0
 132.430664062 -78.1650390625 270.670898438 -104.548828125 323.893554688 -10 c 257
 -29.1064453125 1040 l 2
 -31.3974609375 1046.62792969 -30.1064453125 1050 -23.1064453125 1050 c 2
 496.893554688 1050 l 2
 503.893554688 1050 507.844726562 1046.33789062 509.893554688 1040 c 2
 660.893554688 338 l 257
EndSplineSet
EndChar

StartChar: z
Encoding: 122 122 63
Width: 1130
VWidth: 1920
Flags: HMW
AnchorPoint: "top" 555.001 1050 basechar 0
LayerCount: 2
Fore
SplineSet
-40.9990234375 10 m 2
 399.000976562 700 l 1
 72.0009765625 700 l 2
 63.4814453125 700 62.0009765625 701.404296875 62.0009765625 710 c 2
 62.0009765625 1040 l 2
 62.0009765625 1048.52050781 63.4052734375 1050 72.0009765625 1050 c 2
 1142.00097656 1050 l 2
 1149.00097656 1050 1150.55078125 1047.85253906 1145.00097656 1040 c 2
 706.000976562 350 l 1
 1082.00097656 350 l 2
 1089.00097656 350 1092.00097656 347 1092.00097656 340 c 2
 1092.00097656 10 l 2
 1092.00097656 3.015625 1089.00097656 0 1082.00097656 0 c 2
 -37.9990234375 0 l 2
 -44.9990234375 0 -46.8330078125 1.7587890625 -40.9990234375 10 c 2
EndSplineSet
EndChar

StartChar: comma
Encoding: 44 44 65
Width: 740
VWidth: 1920
Flags: HMW
LayerCount: 2
Fore
SplineSet
193 -310 m 14
 95 -310 l 22
 88 -310 85.375961116 -307.113905975 90 -300 c 14
 285 0 l 261
 125 0 l 6
 116.479492188 0 115 1.404296875 115 10 c 6
 115 450 l 6
 115 457 118 460 125 460 c 6
 615 460 l 6
 622 460 625 457 625 450 c 6
 625 20 l 6
 625 13 623.3359375 8.5302734375 616 0 c 6
 214 -300 l 22
 205.768703778 -306.142758375 201 -310 193 -310 c 14
EndSplineSet
EndChar

StartChar: exclam
Encoding: 33 33 67
Width: 740
VWidth: 1920
Flags: HMW
LayerCount: 2
Fore
SplineSet
615 0 m 2
 125 0 l 2
 118 0 115 3 115 10 c 2
 115 450 l 2
 115 457 118 460 125 460 c 2
 615 460 l 2
 622 460 625 457 625 450 c 2
 625 10 l 2
 625 3 622 0 615 0 c 2
65 1050 m 6
 65 1440 l 6
 65 1447 68 1450 75 1450 c 6
 665 1450 l 6
 672 1450 675 1447 675 1440 c 6
 675 1050 l 6
 675 1043 674.817382812 1036.90332031 674 1030 c 6
 476 540 l 6
 475.182617188 533.096679688 472 530 465 530 c 6
 275 530 l 6
 268 530 264.817382812 533.096679688 264 540 c 6
 66 1030 l 6
 65.1826171875 1036.90332031 65 1043 65 1050 c 6
EndSplineSet
EndChar

StartChar: quotesingle
Encoding: 39 39 70
Width: 610
VWidth: 1920
Flags: HMW
LayerCount: 2
Fore
SplineSet
400 830 m 6
 200 830 l 2
 193 830 189.159179688 833.197265625 188 840 c 2
 72 1160 l 2
 70.8408203125 1166.80273438 70 1173 70 1180 c 2
 70 1410 l 2
 70 1417 73 1420 80 1420 c 2
 530 1420 l 2
 537 1420 540 1417 540 1410 c 2
 540 1180 l 2
 540 1173 539.159179688 1166.80273438 538 1160 c 2
 412 840 l 6
 410.840820312 833.197265625 407 830 400 830 c 6
EndSplineSet
EndChar

StartChar: question
Encoding: 63 63 71
Width: 1320
VWidth: 1920
Flags: HMW
LayerCount: 2
Fore
SplineSet
875 0 m 2
 385 0 l 2
 378 0 375 3 375 10 c 2
 375 450 l 2
 375 457 378 460 385 460 c 2
 875 460 l 2
 882 460 885 457 885 450 c 2
 885 10 l 2
 885 3 882 0 875 0 c 2
770 530 m 2
 480 530 l 2
 472.912109375 530 469.69140625 532.961914062 468.740234375 539 c 0
 425.885742188 810.931640625 725 858.14453125 725 1013 c 262
 725 1028 l 262
 725 1098 696 1135 639 1135 c 256
 579 1135 545 1074.77148438 545 982 c 258
 545 962 l 2
 545 955 542 952 535 952 c 2
 75 952 l 2
 68 952 65 955 65 962 c 2
 65 1052 l 258
 65 1276 262 1485 659 1485 c 256
 1056 1485 1285 1323 1285 1103 c 258
 1285 1078 l 258
 1285 714.727539062 869.930664062 773.434570312 781.556640625 538 c 0
 779.708984375 533.078125 776.930664062 530 770 530 c 2
EndSplineSet
EndChar

StartChar: parenleft
Encoding: 40 40 72
Width: 785
VWidth: 2048
Flags: HMW
LayerCount: 2
Fore
SplineSet
20 838 m 258
 20 1243 309.35546875 1561.42578125 739.315429688 1618 c 0
 747.224609375 1619.04101562 750 1617.13964844 750 1610 c 2
 750 1390 l 2
 750 1383.21679688 747.4375 1379.47753906 740.721679688 1376 c 0
 642.015625 1324.88964844 495 1209 495 808 c 258
 495 442 l 258
 495 41 642.015625 -74.8896484375 740.721679688 -126 c 0
 747.4375 -129.477539062 750 -133.216796875 750 -140 c 2
 750 -360 l 2
 750 -367.139648438 747.224609375 -369.041015625 739.315429688 -368 c 0
 309.35546875 -311.42578125 20 7 20 412 c 258
 20 838 l 258
EndSplineSet
EndChar

StartChar: parenright
Encoding: 41 41 73
Width: 785
VWidth: 2048
Flags: HMW
LayerCount: 2
Fore
SplineSet
765 412 m 262
 765 7 475.64453125 -311.42578125 45.6845703125 -368 c 0
 37.775390625 -369.041015625 35 -367.139648438 35 -360 c 2
 35 -140 l 2
 35 -133.216796875 37.5625 -129.477539062 44.2783203125 -126 c 0
 142.984375 -74.8896484375 290 41 290 442 c 262
 290 808 l 262
 290 1209 142.984375 1324.88964844 44.2783203125 1376 c 0
 37.5625 1379.47753906 35 1383.21679688 35 1390 c 2
 35 1610 l 2
 35 1617.13964844 37.775390625 1619.04101562 45.6845703125 1618 c 0
 475.64453125 1561.42578125 765 1243 765 838 c 262
 765 412 l 262
EndSplineSet
EndChar

StartChar: asterisk
Encoding: 42 42 74
Width: 1287
VWidth: 2048
Flags: HMW
LayerCount: 2
Back
SplineSet
678 920 m 261
 608 920 l 261
 409 1320 l 6
 408 1327 408 1333 409 1340 c 6
 417 1510 l 6
 418 1517 421 1520 428 1520 c 6
 858 1520 l 6
 865 1520 868 1517 869 1510 c 6
 877 1340 l 6
 878 1333 878 1327 877 1320 c 6
 678 920 l 261
EndSplineSet
Fore
SplineSet
655 887 m 257
 632 953 l 257
 950 1266 l 2
 956 1269 963 1270 970 1271 c 2
 1135 1318 l 2
 1142 1319 1146 1317 1148 1310 c 2
 1281 901 l 2
 1283 894 1280 891 1274 888 c 2
 1116 828 l 2
 1110 825 1102 823 1095 822 c 2
 655 887 l 257
614 900 m 257
 670 942 l 257
 1066 736 l 2
 1071 731 1074 725 1077 719 c 2
 1172 576 l 2
 1175 570 1175 566 1169 562 c 2
 821 309 l 2
 815 305 811 306 806 311 c 2
 700 443 l 2
 695 448 691 455 688 461 c 2
 614 900 l 257
615 941 m 257
 672 900 l 257
 598 460 l 2
 595 454 591 449 586 444 c 2
 479 310 l 2
 474 305 471 304 465 308 c 2
 117 561 l 2
 111 565 111 570 114 576 c 2
 207 718 l 2
 210 724 215 729 220 734 c 2
 615 941 l 257
653 953 m 257
 632 886 l 257
 190 820 l 2
 183 821 177 824 171 827 c 2
 11 887 l 2
 5 890 3 893 5 900 c 2
 138 1309 l 2
 140 1316 144 1318 151 1317 c 2
 315 1272 l 2
 322 1271 328 1268 334 1265 c 2
 653 953 l 257
678 920 m 261
 608 920 l 261
 409 1320 l 6
 408 1327 408 1333 409 1340 c 6
 417 1510 l 6
 418 1517 421 1520 428 1520 c 6
 858 1520 l 6
 865 1520 868 1517 869 1510 c 6
 877 1340 l 6
 878 1333 878 1327 877 1320 c 6
 678 920 l 261
EndSplineSet
EndChar

StartChar: at
Encoding: 64 64 75
Width: 1990
VWidth: 1920
Flags: HMW
LayerCount: 2
Fore
SplineSet
1165 472 m 257
 1165 182 1068 40 801 40 c 256
 584 40 415 157 415 497 c 258
 415 528 l 258
 415 848 594 985 831 985 c 256
 1088 985 1225 843 1225 553 c 257
 1075 533 l 257
 1075 633 1043 695 966 695 c 256
 899 695 855 653 855 553 c 258
 855 472 l 258
 855 372 899 330 966 330 c 256
 1043 330 1075 392 1075 492 c 257
 1165 472 l 257
1332.00000472 -254.827238957 m 0
 1264.32137181 -314.503652472 1144.91626673 -360 985 -360 c 256
 428 -360 100 13 100 493 c 258
 100 583 l 258
 100 1093 488 1435 1025 1435 c 256
 1632 1435 1890 1024 1890 633 c 258
 1890 543 l 258
 1890 183 1717 40 1490 40 c 256
 1283 40 1075 185 1075 405 c 258
 1075 775 l 257
 1358 975 l 2
 1361.83984375 980.16015625 1368 985 1375 985 c 2
 1505 985 l 2
 1512 985 1515 982 1515 975 c 2
 1515 535 l 258
 1515 341.000976562 1543 280 1610 280 c 256
 1667 280 1710 343 1710 543 c 258
 1710 633 l 258
 1710 973 1472 1295 1025 1295 c 256
 618 1295 290 1013 290 593 c 258
 290 483 l 258
 290 103 548 -220 985 -220 c 256
 1097.12312814 -220 1208.64729519 -181.401905932 1280.99999687 -124.412387155 c 0
 1288.40396194 -118.580560615 1291.24150507 -119.775370421 1294 -127 c 2
 1336 -237 l 2
 1338.95422969 -244.737268223 1338.71353661 -248.907504943 1332.00000472 -254.827238957 c 0
EndSplineSet
EndChar

StartChar: dollar
Encoding: 36 36 76
Width: 1219
VWidth: 1920
Flags: HMW
LayerCount: 2
Fore
SplineSet
29 488 m 2
 379 488 l 2
 381.7734375 488 389 487 389 480 c 2
 389 440 l 2
 389 326.4140625 468.641601562 285 609 285 c 256
 717.124023438 285 749 316.604492188 749 368 c 256
 749 411.729492188 688.109375 435.2265625 587 464.35546875 c 256
 290.890623337 549.662516416 69 614.966796875 69 973 c 256
 69 1243 247 1435 609 1435 c 256
 973 1435 1119 1236 1119 1021 c 2
 1119 971 l 2
 1119 964 1114.14453125 963 1109 963 c 2
 779 963 l 2
 773.85546875 963 769 964 769 971 c 2
 769 1001 l 2
 769 1056 714 1135 599 1135 c 256
 527 1135 499 1083 499 1043 c 256
 499 991.723632812 546.459238462 960.106307986 677 932.26171875 c 256
 1037.10253906 855.451171875 1189 756.510742188 1189 428 c 256
 1189 110.7265625 1018.34179688 -35 579.27734375 -35 c 256
 190.790039062 -35 20 122.553710938 20 399 c 2
 20 479 l 2
 20 486 26.296875 488 29 488 c 2
590 1590 m 6
 650 1590 l 6
 657 1590 660 1587 660 1580 c 6
 660 -180 l 6
 660 -187 657 -190 650 -190 c 6
 590 -190 l 6
 583 -190 580 -187 580 -180 c 6
 580 1580 l 6
 580 1587 583 1590 590 1590 c 6
  Spiro
    590 1590 [
    650 1590 ]
    655.699 1588.97 o
    658.965 1585.7 o
    660 1580 [
    660 -180 ]
    658.965 -185.699 o
    655.699 -188.965 o
    650 -190 [
    590 -190 ]
    584.301 -188.965 o
    581.035 -185.699 o
    580 -180 [
    580 1580 ]
    581.035 1585.7 o
    584.301 1588.97 o
    0 0 z
  EndSpiro
EndSplineSet
EndChar

StartChar: numbersign
Encoding: 35 35 77
Width: 1610
VWidth: 1920
Flags: HMW
LayerCount: 2
Fore
SplineSet
10 690 m 6
 1520 690 l 6
 1527 690 1530 687 1530 680 c 6
 1530 390 l 6
 1530 383 1528 380 1520 380 c 6
 10 380 l 6
 3 380 0 383 0 390 c 6
 0 680 l 6
 0 687 3 690 10 690 c 6
90 1100 m 2
 1600 1100 l 2
 1607 1100 1610 1097 1610 1090 c 2
 1610 800 l 2
 1610 793 1607 790 1600 790 c 2
 90 790 l 2
 83 790 80 793 80 800 c 2
 80 1090 l 2
 80 1097 83 1100 90 1100 c 2
1030 1400 m 2
 1460 1400 l 2
 1470 1400 1470 1397 1468 1390 c 2
 1142 10 l 2
 1140 3 1140 0 1130 0 c 2
 700 0 l 2
 690 0 690 3 692 10 c 2
 1018 1390 l 2
 1020 1397 1020 1400 1030 1400 c 2
460 1400 m 2
 890 1400 l 2
 897 1400 900 1397 898 1390 c 2
 572 10 l 2
 570 3 567 0 560 0 c 2
 130 0 l 2
 123 0 120 3 122 10 c 2
 448 1390 l 2
 450 1397 453 1400 460 1400 c 2
EndSplineSet
EndChar

StartChar: slash
Encoding: 47 47 78
Width: 1040
VWidth: 2048
Flags: HMW
LayerCount: 2
Fore
SplineSet
996 1390 m 6
 379 -90 l 6
 375.448242188 -98.51953125 372 -100 365 -100 c 6
 25 -100 l 2
 18 -100 15.4483532075 -98.5193472494 19 -90 c 2
 636 1390 l 2
 639.551646792 1398.51934725 644 1400 650 1400 c 2
 990 1400 l 6
 997 1400 999.551757812 1398.51953125 996 1390 c 6
EndSplineSet
EndChar

StartChar: percent
Encoding: 37 37 79
Width: 1855
VWidth: 2048
Flags: HMW
LayerCount: 2
Fore
SplineSet
50 1083 m 262
 50 1118 l 262
 50 1308 208 1435 485 1435 c 260
 762 1435 930 1308 930 1118 c 262
 930 1083 l 262
 930 893 762 765 485 765 c 260
 208 765 50 893 50 1083 c 262
425 1093 m 262
 425 1013 448 985 485 985 c 260
 522 985 555 1013 555 1093 c 262
 555 1108 l 262
 555 1188 522 1215 485 1215 c 260
 448 1215 425 1188 425 1108 c 262
 425 1093 l 262
925 283 m 262
 925 318 l 262
 925 508 1083 635 1360 635 c 260
 1637 635 1805 508 1805 318 c 262
 1805 283 l 262
 1805 93 1637 -35 1360 -35 c 260
 1083 -35 925 93 925 283 c 262
1300 293 m 262
 1300 213 1323 185 1360 185 c 260
 1397 185 1430 213 1430 293 c 262
 1430 308 l 262
 1430 388 1397 415 1360 415 c 260
 1323 415 1300 388 1300 308 c 262
 1300 293 l 262
1779 1390 m 6
 436 10 l 6
 431.551757812 2.7177734375 427 0 420 0 c 6
 80 0 l 6
 73 0 71.5517578125 2.7177734375 76 10 c 6
 1419 1390 l 6
 1423.44824219 1397.28222656 1428 1400 1435 1400 c 6
 1775 1400 l 6
 1782 1400 1783.44824219 1397.28222656 1779 1390 c 6
EndSplineSet
EndChar

StartChar: hyphen
Encoding: 45 45 80
Width: 570
VWidth: 1920
Flags: HMW
LayerCount: 2
Fore
SplineSet
40 445 m 10
 40 780 l 22
 40 787 43 790 50 790 c 14
 520 790 l 22
 527 790 530 787 530 780 c 14
 530 445 l 18
 530 438 527 435 520 435 c 10
 50 435 l 18
 43 435 40 438 40 445 c 10
EndSplineSet
EndChar

StartChar: underscore
Encoding: 95 95 81
Width: 900
VWidth: 1920
Flags: HMW
LayerCount: 2
Fore
SplineSet
0 -345 m 14
 0 -10 l 18
 0 -3 3 0 10 0 c 10
 890 0 l 18
 897 0 900 -3 900 -10 c 10
 900 -345 l 22
 900 -352 897 -355 890 -355 c 14
 10 -355 l 22
 3 -355 0 -352 0 -345 c 14
EndSplineSet
EndChar

StartChar: plus
Encoding: 43 43 82
Width: 1040
VWidth: 1920
Flags: HMW
LayerCount: 2
Fore
SplineSet
45 525 m 14
 45 860 l 18
 45 867 48 870 55 870 c 10
 985 870 l 18
 992 870 995 867 995 860 c 10
 995 525 l 22
 995 518 992 515 985 515 c 14
 55 515 l 22
 48 515 45 518 45 525 c 14
355 1190 m 10
 685 1190 l 18
 692 1190 695 1187 695 1180 c 10
 695 180 l 18
 695 173 692 170 685 170 c 10
 355 170 l 18
 348 170 345 173 345 180 c 10
 345 1180 l 18
 345 1187 348 1190 355 1190 c 10
EndSplineSet
EndChar

StartChar: equal
Encoding: 61 61 83
Width: 1180
VWidth: 1920
Flags: HMW
LayerCount: 2
Fore
SplineSet
150 95 m 14
 150 430 l 22
 150 437 153 440 160 440 c 14
 1020 440 l 22
 1027 440 1030 437 1030 430 c 14
 1030 95 l 22
 1030 88 1027 85 1020 85 c 14
 160 85 l 22
 153 85 150 88 150 95 c 14
150 565 m 14
 150 900 l 22
 150 907 153 910 160 910 c 14
 1020 910 l 22
 1027 910 1030 907 1030 900 c 14
 1030 565 l 22
 1030 558 1027 555 1020 555 c 14
 160 555 l 22
 153 555 150 558 150 565 c 14
EndSplineSet
EndChar

StartChar: less
Encoding: 60 60 84
Width: 1010
VWidth: 1920
Flags: HMW
LayerCount: 2
Fore
SplineSet
850 86 m 2
 80 444 l 2
 72.61328125 448.393554688 70 453 70 460 c 2
 70 740 l 6
 70 747 72.61328125 751.606445312 80 756 c 6
 850 1114 l 2
 857.386652447 1118.39361925 860 1117 860 1110 c 2
 860 750 l 2
 860 743 857.579101562 738.283203125 850 734 c 2
 409.01953125 600 l 257
 850 466 l 2
 857.579101562 461.716796875 860 457 860 450 c 2
 860 90 l 2
 860 83 857.386652447 81.6063807521 850 86 c 2
EndSplineSet
EndChar

StartChar: greater
Encoding: 62 62 85
Width: 1010
VWidth: 1920
Flags: HMW
LayerCount: 2
Fore
SplineSet
160 1114 m 2
 930 756 l 2
 937.38671875 751.606445312 940 747 940 740 c 2
 940 460 l 2
 940 453 937.38671875 448.393554688 930 444 c 2
 160 86 l 2
 152.61328125 81.6064453125 150 83 150 90 c 2
 150 450 l 6
 150 457 152.420898438 461.716796875 160 466 c 6
 600.98046875 600 l 257
 160 734 l 2
 152.420898438 738.283203125 150 743 150 750 c 2
 150 1110 l 2
 150 1117 152.61328125 1118.39355469 160 1114 c 2
EndSplineSet
EndChar

StartChar: backslash
Encoding: 92 92 86
Width: 1040
VWidth: 2048
Flags: HMW
LayerCount: 2
Fore
SplineSet
1021 -90 m 6
 1024.55175781 -98.51953125 1022 -100 1015 -100 c 6
 675 -100 l 2
 669 -100 664.551757812 -98.51953125 661 -90 c 2
 44 1390 l 2
 40.4482421875 1398.51953125 43 1400 50 1400 c 2
 390 1400 l 6
 397 1400 400.448242188 1398.51953125 404 1390 c 6
 1021 -90 l 6
EndSplineSet
EndChar

StartChar: bracketleft
Encoding: 91 91 87
Width: 760
VWidth: 1920
Flags: HMW
LayerCount: 2
Fore
SplineSet
470 1350 m 257
 470 -110 l 261
 700 -110 l 6
 707 -110 710 -113 710 -120 c 6
 710 -350 l 2
 710 -357 707 -360 700 -360 c 2
 80 -360 l 2
 73 -360 70 -357 70 -350 c 2
 70 1590 l 2
 70 1597 73 1600 80 1600 c 2
 700 1600 l 2
 707 1600 710 1597 710 1590 c 2
 710 1360 l 2
 710 1353 707 1350 700 1350 c 2
 470 1350 l 257
EndSplineSet
EndChar

StartChar: braceleft
Encoding: 123 123 88
Width: 775
VWidth: 2048
Flags: HMW
LayerCount: 2
Fore
SplineSet
155 1278 m 258
 155 1505 247 1598 665 1600 c 0
 671.999919875 1600.03349244 675 1597 675 1590 c 2
 675 1380 l 2
 675 1373 672 1370 664 1370 c 0
 565 1366 530 1312 530 1138 c 258
 530 956 l 258
 530 771 442 668 286 620 c 261
 442 572 530 469 530 284 c 258
 530 112 l 258
 530 -61 565 -114 662 -120 c 0
 672 -121 675 -123 675 -130 c 2
 675 -350 l 2
 675 -357 671.999583979 -360.086534461 663 -360 c 0
 247 -356 155 -265 155 -38 c 258
 155 284 l 258
 155 417 119 471 22 502 c 0
 13 505 10 509 10 516 c 2
 10 724 l 2
 10 731 13 735 20 737 c 0
 121 770 155 822 155 956 c 258
 155 1278 l 258
EndSplineSet
EndChar

StartChar: bracketright
Encoding: 93 93 89
Width: 750
VWidth: 1920
Flags: HMW
LayerCount: 2
Fore
SplineSet
290 -110 m 257
 290 1350 l 261
 60 1350 l 6
 53 1350 50 1353 50 1360 c 6
 50 1590 l 2
 50 1597 53 1600 60 1600 c 2
 670 1600 l 2
 677 1600 680 1597 680 1590 c 2
 680 -350 l 2
 680 -357 677 -360 670 -360 c 2
 60 -360 l 2
 53 -360 50 -357 50 -350 c 2
 50 -120 l 2
 50 -113 53 -110 60 -110 c 2
 290 -110 l 257
EndSplineSet
EndChar

StartChar: braceright
Encoding: 125 125 90
Width: 775
VWidth: 2048
Flags: HMW
LayerCount: 2
Fore
SplineSet
620 -38 m 258
 620 -265 528 -358 110 -360 c 0
 103.000080125 -360.03349244 100 -357 100 -350 c 2
 100 -130 l 2
 100 -123 103 -120 111 -120 c 0
 210 -116 245 -62 245 112 c 258
 245 284 l 258
 245 469 323 572 479 620 c 261
 323 668 245 771 245 956 c 258
 245 1128 l 258
 245 1301 210 1354 113 1360 c 0
 103 1361 100 1363 100 1370 c 2
 100 1590 l 2
 100 1597 103.000416021 1600.08653446 112 1600 c 0
 528 1596 620 1505 620 1278 c 258
 620 956 l 258
 620 823 656 769 753 738 c 0
 762 735 765 731 765 724 c 2
 765 516 l 2
 765 509 762 505 755 503 c 0
 654 470 620 418 620 284 c 258
 620 -38 l 258
EndSplineSet
EndChar

StartChar: bar
Encoding: 124 124 91
Width: 515
VWidth: 1920
Flags: HMW
LayerCount: 2
Fore
SplineSet
88 1600 m 10
 428 1600 l 22
 435 1600 438 1597 438 1590 c 14
 438 -350 l 22
 438 -357 435 -360 428 -360 c 14
 88 -360 l 18
 81 -360 78 -357 78 -350 c 10
 78 1590 l 18
 78 1597 81 1600 88 1600 c 10
EndSplineSet
EndChar

StartChar: asciitilde
Encoding: 126 126 92
Width: 1330
VWidth: 2048
Flags: HMW
LayerCount: 2
Fore
SplineSet
422 519 m 256
 369.913085938 519 363.124023438 469.868164062 360.083984375 417 c 0
 359.739257812 411.0078125 356.9140625 408 350 408 c 2
 10 408 l 2
 2.9111328125 408 -0.03125 410.999023438 0.0888671875 417 c 0
 4.2802734375 625.384765625 151.4453125 879 422 879 c 256
 711 879 807 682 909 682 c 260
 960.872070312 682 967.62890625 750.809570312 970.895507812 793 c 4
 971.436523438 799.982421875 974.106445312 803 981 803 c 6
 1320 803 l 6
 1327.109375 803 1330.04199219 800.001953125 1329.890625 793 c 4
 1325.39453125 585.125 1179.28125 332 909 332 c 260
 620 332 524 519 422 519 c 256
EndSplineSet
EndChar

StartChar: asciicircum
Encoding: 94 94 93
Width: 820
VWidth: 1920
Flags: HMW
LayerCount: 2
Fore
SplineSet
410 991.481445312 m 257
 354 740 l 2
 351.668945312 734.021484375 347 730 340 730 c 2
 -30 730 l 2
 -37 730 -38.6982421875 733.552734375 -36 740 c 2
 236 1390 l 2
 239.561523438 1398.50976562 243 1400 250 1400 c 2
 570 1400 l 2
 577 1400 580.438476562 1398.50976562 584 1390 c 2
 856 740 l 2
 859.1171875 733.82421875 862.494140625 730 850 730 c 2
 480 730 l 6
 469.571289062 730 467.76953125 733.76953125 466 740 c 6
 410 991.481445312 l 257
EndSplineSet
EndChar

StartChar: figuredash
Encoding: 8210 8210 108
Width: 1150
VWidth: 2048
Flags: HMW
LayerCount: 2
Fore
SplineSet
40 445 m 10
 40 780 l 22
 40 787 43 790 50 790 c 14
 1100 790 l 22
 1107 790 1110 787 1110 780 c 14
 1110 445 l 18
 1110 438 1107 435 1100 435 c 10
 50 435 l 18
 43 435 40 438 40 445 c 10
EndSplineSet
EndChar

StartChar: endash
Encoding: 8211 8211 109
Width: 1100
VWidth: 2048
Flags: HMW
LayerCount: 2
Fore
SplineSet
40 445 m 10
 40 780 l 22
 40 787 43 790 50 790 c 14
 1050 790 l 22
 1057 790 1060 787 1060 780 c 14
 1060 445 l 18
 1060 438 1057 435 1050 435 c 10
 50 435 l 18
 43 435 40 438 40 445 c 10
EndSplineSet
EndChar

StartChar: emdash
Encoding: 8212 8212 110
Width: 2200
VWidth: 2048
Flags: HMW
LayerCount: 2
Fore
SplineSet
40 445 m 14
 40 780 l 18
 40 787 43 790 50 790 c 10
 2150 790 l 18
 2157 790 2160 787 2160 780 c 10
 2160 445 l 22
 2160 438 2157 435 2150 435 c 14
 50 435 l 22
 43 435 40 438 40 445 c 14
EndSplineSet
EndChar

StartChar: uni2015
Encoding: 8213 8213 111
Width: 2360
VWidth: 2048
Flags: HMW
LayerCount: 2
Fore
SplineSet
40 445 m 10
 40 780 l 22
 40 787 43 790 50 790 c 14
 2310 790 l 22
 2317 790 2320 787 2320 780 c 14
 2320 445 l 18
 2320 438 2317 435 2310 435 c 10
 50 435 l 18
 43 435 40 438 40 445 c 10
EndSplineSet
EndChar

StartChar: quoteleft
Encoding: 8216 8216 114
Width: 740
VWidth: 1920
Flags: HMW
LayerCount: 2
Fore
SplineSet
547 1435 m 14
 645 1435 l 22
 652 1435 654.624023438 1432.11425781 650 1425 c 14
 455 1125 l 261
 615 1125 l 6
 623.520507812 1125 625 1123.59570312 625 1115 c 6
 625 675 l 6
 625 668 622 665 615 665 c 6
 125 665 l 6
 118 665 115 668 115 675 c 6
 115 1105 l 6
 115 1112 116.6640625 1116.46972656 124 1125 c 6
 526 1425 l 22
 534.231445312 1431.14257812 539 1435 547 1435 c 14
EndSplineSet
EndChar

StartChar: quotereversed
Encoding: 8219 8219 117
Width: 740
VWidth: 1920
Flags: HMW
LayerCount: 2
Fore
SplineSet
547 630 m 18
 539 630 534.231445312 633.857421875 526 640 c 10
 124 940 l 2
 116.6640625 948.530273438 115 953 115 960 c 2
 115 1390 l 2
 115 1397 118 1400 125 1400 c 2
 615 1400 l 2
 622 1400 625 1397 625 1390 c 2
 625 950 l 2
 625 941.404296875 623.520507812 940 615 940 c 2
 455 940 l 257
 650 640 l 18
 654.624023438 632.885742188 652 630 645 630 c 10
 547 630 l 18
EndSplineSet
EndChar

StartChar: bullet
Encoding: 8226 8226 120
Width: 890
VWidth: 2048
InSpiro: 1
Flags: HMW
LayerCount: 2
Fore
SplineSet
100 698 m 258
 100 793 l 258
 100 983 243 1100 440 1100 c 256
 637 1100 790 983 790 793 c 258
 790 698 l 258
 790 508 637 390 440 390 c 256
 243 390 100 508 100 698 c 258
EndSplineSet
EndChar

StartChar: dagger
Encoding: 8224 8224 124
Width: 1330
VWidth: 1920
Flags: HMW
LayerCount: 2
Fore
SplineSet
70 805 m 10
 70 1040 l 18
 70 1047 73 1050 80 1050 c 10
 1250 1050 l 22
 1257 1050 1260 1047 1260 1040 c 14
 1260 805 l 22
 1260 798 1257 795 1250 795 c 14
 80 795 l 18
 73 795 70 798 70 805 c 10
430 1400 m 10
 900 1400 l 18
 907 1400 910 1397 910 1390 c 10
 910 10 l 18
 910 3 907 0 900 0 c 10
 430 0 l 18
 423 0 420 3 420 10 c 10
 420 1390 l 18
 420 1397 423 1400 430 1400 c 10
EndSplineSet
EndChar

StartChar: daggerdbl
Encoding: 8225 8225 125
Width: 1330
VWidth: 1920
Flags: HMW
LayerCount: 2
Fore
SplineSet
70 10 m 10
 70 245 l 18
 70 252 73 255 80 255 c 10
 1250 255 l 18
 1257 255 1260 252 1260 245 c 10
 1260 10 l 18
 1260 3 1257 0 1250 0 c 10
 80 0 l 18
 73 0 70 3 70 10 c 10
70 805 m 10
 70 1040 l 18
 70 1047 73 1050 80 1050 c 10
 1250 1050 l 18
 1257 1050 1260 1047 1260 1040 c 10
 1260 805 l 18
 1260 798 1257 795 1250 795 c 10
 80 795 l 18
 73 795 70 798 70 805 c 10
430 1400 m 10
 900 1400 l 18
 907 1400 910 1397 910 1390 c 10
 910 -350 l 18
 910 -357 907 -360 900 -360 c 10
 430 -360 l 18
 423 -360 420 -357 420 -350 c 10
 420 1390 l 18
 420 1397 423 1400 430 1400 c 10
EndSplineSet
EndChar

StartChar: perthousand
Encoding: 8240 8240 126
Width: 2785
VWidth: 2048
Flags: HMW
LayerCount: 2
Fore
SplineSet
1855 283 m 262
 1855 318 l 262
 1855 508 2013 635 2290 635 c 260
 2567 635 2735 508 2735 318 c 262
 2735 283 l 262
 2735 93 2567 -35 2290 -35 c 260
 2013 -35 1855 93 1855 283 c 262
2230 293 m 262
 2230 213 2253 185 2290 185 c 260
 2327 185 2360 213 2360 293 c 262
 2360 308 l 262
 2360 388 2327 415 2290 415 c 260
 2253 415 2230 388 2230 308 c 262
 2230 293 l 262
50 1083 m 262
 50 1118 l 262
 50 1308 208 1435 485 1435 c 260
 762 1435 930 1308 930 1118 c 262
 930 1083 l 262
 930 893 762 765 485 765 c 260
 208 765 50 893 50 1083 c 262
425 1093 m 262
 425 1013 448 985 485 985 c 260
 522 985 555 1013 555 1093 c 262
 555 1108 l 262
 555 1188 522 1215 485 1215 c 260
 448 1215 425 1188 425 1108 c 262
 425 1093 l 262
925 283 m 262
 925 318 l 262
 925 508 1083 635 1360 635 c 260
 1637 635 1805 508 1805 318 c 262
 1805 283 l 262
 1805 93 1637 -35 1360 -35 c 260
 1083 -35 925 93 925 283 c 262
1300 293 m 262
 1300 213 1323 185 1360 185 c 260
 1397 185 1430 213 1430 293 c 262
 1430 308 l 262
 1430 388 1397 415 1360 415 c 260
 1323 415 1300 388 1300 308 c 262
 1300 293 l 262
1779 1390 m 6
 436 10 l 6
 431.551757812 2.7177734375 427 0 420 0 c 6
 80 0 l 6
 73 0 71.5517578125 2.7177734375 76 10 c 6
 1419 1390 l 6
 1423.44824219 1397.28222656 1428 1400 1435 1400 c 6
 1775 1400 l 6
 1782 1400 1783.44824219 1397.28222656 1779 1390 c 6
EndSplineSet
EndChar

StartChar: uni2031
Encoding: 8241 8241 127
Width: 3715
VWidth: 2048
Flags: HMW
LayerCount: 2
Fore
SplineSet
2785 283 m 262
 2785 318 l 262
 2785 508 2943 635 3220 635 c 260
 3497 635 3665 508 3665 318 c 262
 3665 283 l 262
 3665 93 3497 -35 3220 -35 c 260
 2943 -35 2785 93 2785 283 c 262
3160 293 m 262
 3160 213 3183 185 3220 185 c 260
 3257 185 3290 213 3290 293 c 262
 3290 308 l 262
 3290 388 3257 415 3220 415 c 260
 3183 415 3160 388 3160 308 c 262
 3160 293 l 262
1855 283 m 258
 1855 318 l 258
 1855 508 2013 635 2290 635 c 256
 2567 635 2735 508 2735 318 c 258
 2735 283 l 258
 2735 93 2567 -35 2290 -35 c 256
 2013 -35 1855 93 1855 283 c 258
2230 293 m 258
 2230 213 2253 185 2290 185 c 256
 2327 185 2360 213 2360 293 c 258
 2360 308 l 258
 2360 388 2327 415 2290 415 c 256
 2253 415 2230 388 2230 308 c 258
 2230 293 l 258
50 1083 m 258
 50 1118 l 258
 50 1308 208 1435 485 1435 c 256
 762 1435 930 1308 930 1118 c 258
 930 1083 l 258
 930 893 762 765 485 765 c 256
 208 765 50 893 50 1083 c 258
425 1093 m 258
 425 1013 448 985 485 985 c 256
 522 985 555 1013 555 1093 c 258
 555 1108 l 258
 555 1188 522 1215 485 1215 c 256
 448 1215 425 1188 425 1108 c 258
 425 1093 l 258
925 283 m 258
 925 318 l 258
 925 508 1083 635 1360 635 c 256
 1637 635 1805 508 1805 318 c 258
 1805 283 l 258
 1805 93 1637 -35 1360 -35 c 256
 1083 -35 925 93 925 283 c 258
1300 293 m 258
 1300 213 1323 185 1360 185 c 256
 1397 185 1430 213 1430 293 c 258
 1430 308 l 258
 1430 388 1397 415 1360 415 c 256
 1323 415 1300 388 1300 308 c 258
 1300 293 l 258
1779 1390 m 2
 436 10 l 2
 431.551757812 2.7177734375 427 0 420 0 c 2
 80 0 l 2
 73 0 71.5517578125 2.7177734375 76 10 c 2
 1419 1390 l 2
 1423.44824219 1397.28222656 1428 1400 1435 1400 c 2
 1775 1400 l 2
 1782 1400 1783.44824219 1397.28222656 1779 1390 c 2
EndSplineSet
EndChar

StartChar: fraction
Encoding: 8260 8260 128
Width: 930
VWidth: 1920
Flags: HMW
LayerCount: 2
Fore
SplineSet
705.538085938 1361.625 m 10
 909.461914062 1201.625 l 22
 915.5234375 1198.125 916.622070312 1194.02636719 913.122070312 1187.96484375 c 14
 238.122070312 92.03515625 l 22
 234.622070312 85.9736328125 230.5234375 84.875 224.461914062 88.375 c 14
 20.5380859375 248.375 l 18
 14.4765625 251.875 13.3779296875 255.973632812 16.8779296875 262.03515625 c 10
 691.877929688 1357.96484375 l 18
 695.377929688 1364.02636719 699.4765625 1365.125 705.538085938 1361.625 c 10
EndSplineSet
EndChar

StartChar: uni2074
Encoding: 8308 8308 129
Width: 784
VWidth: 1920
Flags: HMW
LayerCount: 2
Fore
SplineSet
784 972 m 2
 784 774 l 2
 784 770 782 768 778 768 c 2
 670 768 l 257
 670 636 l 2
 670 632 668 630 664 630 c 2
 382 630 l 2
 378 630 376 632 376 636 c 2
 376 768 l 257
 16 768 l 2
 12 768 10 770 10 774 c 2
 10 1044 l 2
 10 1048 11 1052 14 1056 c 2
 360 1464 l 2
 362 1467 366 1470 370 1470 c 2
 664 1470 l 2
 668 1470 670 1468 670 1464 c 2
 670 978 l 257
 778 978 l 2
 782 978 784 976 784 972 c 2
382 978 m 257
 382 1218 l 257
 181 978 l 257
 382 978 l 257
EndSplineSet
EndChar

StartChar: uni2073
Encoding: 8307 8307 130
Width: 773
VWidth: 1920
Flags: HMW
LayerCount: 2
Fore
SplineSet
21 934 m 2
 303 934 l 2
 307 934 309 932 309 928 c 2
 309 922 l 2
 309 850 334 819 381 819 c 0
 433 819 462 841 462 883 c 2
 462 898 l 2
 462 940 433 966 375 966 c 2
 327 966 l 2
 323 966 321 968 321 972 c 2
 321 1170 l 2
 321 1174 323 1176 327 1176 c 2
 363 1176 l 2
 403 1176 429 1190 429 1226 c 2
 429 1235 l 2
 429 1259 414 1281 380 1281 c 0
 338 1281 324 1263 324 1225 c 2
 324 1207 l 2
 324 1203 322 1201 318 1201 c 2
 42 1201 l 2
 38 1201 36 1203 36 1207 c 2
 36 1261 l 2
 36 1401 175 1491 383 1491 c 0
 591 1491 726 1418 726 1280 c 2
 726 1265 l 2
 726 1115 577 1062 423 1062 c 1
 435 1092 l 1
 589 1092 756 1033 756 883 c 2
 756 838 l 2
 756 694 613 609 375 609 c 4
 164 609 15 707 15 886 c 6
 15 928 l 2
 15 932 17 934 21 934 c 2
EndSplineSet
EndChar

StartChar: uni2072
Encoding: 8306 8306 131
Width: 762
VWidth: 1920
Flags: HMW
LayerCount: 2
Fore
SplineSet
15 673 m 262
 15 999 438 1055 438 1233 c 262
 438 1236 l 262
 438 1272 416 1288 382 1288 c 260
 340 1288 318 1270 318 1238 c 262
 318 1184 l 6
 318 1180 316 1178 312 1178 c 6
 36 1178 l 6
 32 1178 30 1180 30 1184 c 6
 30 1238 l 262
 30 1402 154 1498 392 1498 c 260
 588 1498 726 1419 726 1263 c 262
 726 1236 l 262
 726 986 369 956 369 865 c 262
 369 859 l 261
 741 859 l 6
 745 859 747 857 747 853 c 6
 747 643 l 6
 747 639 745 637 741 637 c 6
 21 637 l 6
 17 637 15 639 15 643 c 6
 15 673 l 262
EndSplineSet
EndChar

StartChar: uni2070
Encoding: 8304 8304 132
Width: 800
VWidth: 1920
Flags: HMW
LayerCount: 2
Fore
SplineSet
25 923 m 262
 25 1178 l 262
 25 1374 159 1491 400 1491 c 260
 641 1491 775 1374 775 1178 c 262
 775 923 l 262
 775 727 641 609 400 609 c 260
 159 609 25 727 25 923 c 262
319 935 m 262
 319 846 338 813 400 813 c 260
 462 813 481 846 481 935 c 262
 481 1166 l 262
 481 1255 462 1287 400 1287 c 260
 338 1287 319 1255 319 1166 c 262
 319 935 l 262
EndSplineSet
EndChar

StartChar: uni2075
Encoding: 8309 8309 133
Width: 769
VWidth: 1920
Flags: HMW
LayerCount: 2
Fore
SplineSet
36 874 m 2
 306 874 l 2
 310 874 311 872 312 868 c 0
 320 822 353 806 381 806 c 0
 422 806 450 836 450 892 c 2
 450 907 l 2
 450 967 431 986 393 986 c 0
 362 986 340 961 328 931 c 0
 326 926 322 925 318 925 c 2
 48 925 l 2
 44 925 42 926 43 931 c 2
 108 1457 l 2
 109 1461 111 1463 115 1463 c 2
 703 1463 l 2
 707 1463 709 1461 709 1457 c 2
 709 1370 l 2
 709 1298 679 1253 547 1253 c 2
 328 1253 l 5
 289 1070 l 1
 276 1070 l 1
 309 1144 414 1196 510 1196 c 0
 654 1196 744 1127 744 931 c 2
 744 892 l 2
 744 696 621 602 375 602 c 0
 175 602 39 684 30 868 c 0
 30 872 32 874 36 874 c 2
EndSplineSet
EndChar

StartChar: uni2076
Encoding: 8310 8310 134
Width: 843
VWidth: 1920
Flags: HMW
LayerCount: 2
Fore
SplineSet
430 1014 m 260
 364 1014 328 981 328 931 c 262
 328 895 l 261
 274 943 l 261
 274 1101 354 1164 532 1164 c 260
 728 1164 813 1068 813 904 c 262
 813 874 l 262
 813 707 664 609 429 609 c 260
 143 609 37 730 37 946 c 262
 37 1136 l 262
 37 1364 168 1491 424 1491 c 260
 662 1491 780 1359 780 1249 c 262
 780 1231 l 6
 780 1227 778 1225 774 1225 c 6
 504 1225 l 6
 500 1225 498 1227 498 1231 c 6
 498 1237 l 262
 498 1257 484 1281 436 1281 c 260
 360 1281 328 1223 328 1133 c 262
 328 907 l 262
 328 853 359 819 423 819 c 260
 494 819 519 856 519 904 c 262
 519 916 l 262
 519 966 496 1014 430 1014 c 260
EndSplineSet
EndChar

StartChar: uni2077
Encoding: 8311 8311 135
Width: 719
VWidth: 1920
Flags: HMW
LayerCount: 2
Fore
SplineSet
748 1464 m 2
 495 636 l 2
 493 632 491 630 487 630 c 2
 133 630 l 2
 129 630 127 632 129 636 c 2
 445 1200 l 261
 43 1200 l 2
 39 1200 37 1202 37 1206 c 2
 37 1464 l 2
 37 1468 39 1470 43 1470 c 2
 745 1470 l 2
 749 1470 750 1468 748 1464 c 2
EndSplineSet
EndChar

StartChar: uni2078
Encoding: 8312 8312 136
Width: 816
VWidth: 1920
Flags: HMW
LayerCount: 2
Fore
SplineSet
408 816 m 256
 462 816 490 843 490 889 c 258
 490 892 l 258
 490 938 462 966 408 966 c 256
 354 966 326 938 326 892 c 258
 326 889 l 258
 326 843 354 816 408 816 c 256
408 1176 m 256
 438 1176 460 1199 460 1232 c 258
 460 1235 l 258
 460 1263 437 1284 408 1284 c 256
 379 1284 356 1263 356 1235 c 258
 356 1232 l 258
 356 1199 378 1176 408 1176 c 256
427 1086 m 257
 685 1086 784 1004 784 865 c 258
 784 838 l 258
 784 690 683 609 408 609 c 256
 163 609 32 690 32 838 c 258
 32 865 l 258
 32 1004 161 1086 389 1086 c 257
 391 1062 l 257
 171 1065 62 1132 62 1265 c 258
 62 1280 l 258
 62 1413 187 1491 408 1491 c 256
 659 1491 754 1413 754 1280 c 258
 754 1265 l 258
 754 1132 675 1065 425 1062 c 257
 427 1086 l 257
EndSplineSet
EndChar

StartChar: uni2079
Encoding: 8313 8313 137
Width: 843
VWidth: 1920
Flags: HMW
LayerCount: 2
Fore
SplineSet
413 1086 m 256
 479 1086 515 1119 515 1169 c 258
 515 1205 l 257
 569 1157 l 257
 569 999 489 936 311 936 c 256
 115 936 30 1032 30 1196 c 258
 30 1226 l 258
 30 1393 179 1491 414 1491 c 256
 700 1491 806 1370 806 1154 c 258
 806 964 l 258
 806 736 663 609 401 609 c 260
 145 609 27 723 27 851 c 262
 27 869 l 6
 27 873 29 875 33 875 c 6
 303 875 l 6
 307 875 309 873 309 869 c 6
 309 863 l 262
 309 837 341 819 389 819 c 256
 465 819 515 865 515 967 c 262
 515 1193 l 258
 515 1247 484 1281 420 1281 c 256
 349 1281 324 1244 324 1196 c 258
 324 1184 l 258
 324 1134 347 1086 413 1086 c 256
EndSplineSet
EndChar

StartChar: uni00B9
Encoding: 185 185 138
Width: 368
VWidth: 1920
Flags: HMW
LayerCount: 2
Fore
SplineSet
44 1435 m 4
 129 1436 159 1460 165 1504 c 4
 166 1508 169 1510 173 1510 c 6
 325 1510 l 6
 329 1510 331 1508 331 1504 c 6
 331 646 l 6
 331 642 329 640 325 640 c 6
 43 640 l 6
 39 640 37 642 37 646 c 6
 37 1428 l 6
 37 1432 39 1435 44 1435 c 4
EndSplineSet
EndChar

StartChar: cent
Encoding: 162 162 154
Width: 1130
VWidth: 1920
Flags: HMW
LayerCount: 2
Fore
SplineSet
630.392578125 1240 m 2
 690.392578125 1240 l 2
 697.392578125 1240 700.392578125 1237 700.392578125 1230 c 2
 700.392578125 -180 l 2
 700.392578125 -187 697.392578125 -190 690.392578125 -190 c 2
 630.392578125 -190 l 2
 623.392578125 -190 620.392578125 -187 620.392578125 -180 c 2
 620.392578125 1230 l 2
 620.392578125 1237 623.392578125 1240 630.392578125 1240 c 2
EndSplineSet
Refer: 40 99 N 1 0 0 1 0 0 2
EndChar

StartChar: uni203D
Encoding: 8253 8253 157
Width: 1640
VWidth: 1920
Flags: HMW
LayerCount: 2
Fore
SplineSet
605 830 m 2
 605 1030 l 2
 605 1037 608 1040 615 1040 c 2
 1005 1040 l 2
 1012 1040 1015 1037 1015 1030 c 2
 1015 830 l 2
 1015 823 1014.81738281 816.903320312 1014 810 c 2
 916 540 l 2
 915.182617188 533.096679688 912 530 905 530 c 2
 715 530 l 2
 708 530 704.817382812 533.096679688 704 540 c 2
 606 810 l 2
 605.182617188 816.903320312 605 823 605 830 c 2
1135 0 m 2
 645 0 l 2
 638 0 635 3 635 10 c 2
 635 450 l 2
 635 457 638 460 645 460 c 2
 1135 460 l 2
 1142 460 1145 457 1145 450 c 2
 1145 10 l 2
 1145 3 1142 0 1135 0 c 2
  Spiro
    1135 0 [
    645 0 ]
    639.301 1.03493 o
    636.035 4.30074 o
    635 10 [
    635 450 ]
    636.035 455.699 o
    639.301 458.965 o
    645 460 [
    1135 460 ]
    1140.7 458.965 o
    1143.97 455.699 o
    1145 450 [
    1145 10 ]
    1143.97 4.30074 o
    1140.7 1.03493 o
    0 0 z
  EndSpiro
1030 530 m 2
 740 530 l 2
 732.912109375 530 729.69140625 532.961914062 728.740234375 539 c 0
 685.885742188 810.931640625 1045 848.14453125 1045 983 c 258
 1045 998 l 258
 1045 1048 1006 1085 819 1085 c 256
 609 1085 545 1034.77148438 545 982 c 258
 545 962 l 2
 545 955 542 952 535 952 c 2
 75 952 l 2
 68 952 65 955 65 962 c 2
 65 1052 l 258
 65 1276 312 1435 859 1435 c 256
 1336 1435 1605 1323 1605 1103 c 258
 1605 1078 l 258
 1605 714.727539062 1129.93066406 773.434570312 1041.55664062 538 c 0
 1039.70898438 533.078125 1036.93066406 530 1030 530 c 2
EndSplineSet
EndChar

StartChar: ordfeminine
Encoding: 170 170 159
Width: 948
VWidth: 1920
Flags: HMW
LayerCount: 2
Fore
SplineSet
389 892 m 0
 389 854 408 821 457 821 c 256
 507 821 530 865 530 933 c 257
 608 827 l 257
 608 705 486 609 317 609 c 256
 143 609 25 693 25 852 c 0
 25 1047 197 1115 401 1139 c 256
 511 1152 530 1175 530 1201 c 257
 554 1023 l 257
 554 985 502.717773438 973.237304688 465 964 c 256
 416 952 389 930 389 892 c 0
530 769 m 258
 530 1221 l 258
 530 1245 508 1271 469 1271 c 256
 428 1271 410 1253 408 1222 c 0
 407.7421875 1218.0078125 406 1217 402 1217 c 2
 102 1217 l 2
 98 1217 95 1218 96 1222 c 0
 116 1362 253 1489 510 1489 c 260
 796 1489 888 1375 888 1214 c 258
 888 769 l 258
 888 712 900 673 922 648 c 0
 925 645 924 644 920 644 c 2
 590 644 l 2
 586 644 583 646 581 648 c 0
 559 674 530 712 530 769 c 258
EndSplineSet
EndChar

StartChar: exclamdown
Encoding: 161 161 160
Width: 740
VWidth: 1920
Flags: HMW
LayerCount: 2
Fore
SplineSet
125 1050 m 6
 615 1050 l 6
 622 1050 625 1047 625 1040 c 6
 625 600 l 6
 625 593 622 590 615 590 c 6
 125 590 l 6
 118 590 115 593 115 600 c 6
 115 1040 l 6
 115 1047 118 1050 125 1050 c 6
675 0 m 6
 675 -390 l 6
 675 -397 672 -400 665 -400 c 6
 75 -400 l 6
 68 -400 65 -397 65 -390 c 6
 65 0 l 6
 65 7 65.1826171875 13.0966796875 66 20 c 6
 264 510 l 6
 264.817382812 516.903320312 268 520 275 520 c 6
 465 520 l 6
 472 520 475.182617188 516.903320312 476 510 c 6
 674 20 l 6
 674.817382812 13.0966796875 675 7 675 0 c 6
EndSplineSet
EndChar

StartChar: AE
Encoding: 198 198 161
Width: 2268
VWidth: 1920
Flags: HMW
LayerCount: 2
Fore
SplineSet
488 570 m 257
 1158 570 l 257
 1158 320 l 257
 488 320 l 257
 488 570 l 257
1303 1400 m 1
 391 10 l 2
 387.338867188 4.4189453125 385 0 378 0 c 2
 -12 0 l 2
 -19 0 -22.361328125 4.896484375 -19 10 c 2
 890 1390 l 2
 893.361328125 1395.10351562 896 1400 903 1400 c 2
 1303 1400 l 1
EndSplineSet
Refer: 16 69 N 1 0 0 1 958 0 2
EndChar

StartChar: questiondown
Encoding: 191 191 162
Width: 1320
VWidth: 1920
Flags: HMW
LayerCount: 2
Fore
SplineSet
445 1050 m 6
 935 1050 l 6
 942 1050 945 1047 945 1040 c 6
 945 600 l 6
 945 593 942 590 935 590 c 6
 445 590 l 6
 438 590 435 593 435 600 c 6
 435 1040 l 6
 435 1047 438 1050 445 1050 c 6
550 520 m 6
 840 520 l 6
 847.087890625 520 850.30859375 517.038085938 851.259765625 511 c 4
 894.114257812 239.068359375 595 201.85546875 595 67 c 262
 595 52 l 262
 595 2 624 -35 681 -35 c 260
 741 -35 775 15.228515625 775 68 c 262
 775 88 l 6
 775 95 778 98 785 98 c 6
 1245 98 l 6
 1252 98 1255 95 1255 88 c 6
 1255 -2 l 262
 1255 -226 1058 -385 661 -385 c 260
 264 -385 35 -273 35 -53 c 262
 35 -28 l 262
 35 335.272460938 450.069335938 276.565429688 538.443359375 512 c 4
 540.291015625 516.921875 543.069335938 520 550 520 c 6
EndSplineSet
EndChar

StartChar: yen
Encoding: 165 165 163
Width: 1490
VWidth: 1920
Flags: HMW
LayerCount: 2
Fore
SplineSet
145.0390625 285 m 10
 145.0390625 390 l 18
 145.0390625 397 148.0390625 400 155.0390625 400 c 10
 1325.0390625 400 l 22
 1332.0390625 400 1335.0390625 397 1335.0390625 390 c 14
 1335.0390625 285 l 22
 1335.0390625 278 1332.0390625 275 1325.0390625 275 c 14
 155.0390625 275 l 18
 148.0390625 275 145.0390625 278 145.0390625 285 c 10
145.0390625 555 m 10
 145.0390625 660 l 18
 145.0390625 667 148.0390625 670 155.0390625 670 c 10
 1325.0390625 670 l 22
 1332.0390625 670 1335.0390625 667 1335.0390625 660 c 14
 1335.0390625 555 l 22
 1335.0390625 548 1332.0390625 545 1325.0390625 545 c 14
 155.0390625 545 l 18
 148.0390625 545 145.0390625 548 145.0390625 555 c 10
EndSplineSet
Refer: 36 89 N 1 0 0 1 0 0 2
EndChar

StartChar: gravecomb
Encoding: 768 768 164
Width: 0
Flags: HMW
AnchorPoint: "top" -563 1000 mark 0
LayerCount: 2
Fore
SplineSet
-414 1104 m 6
 -664 1104 l 6
 -671 1104 -679 1109 -684 1114 c 6
 -1059 1390 l 6
 -1064 1395 -1066 1400 -1059 1400 c 6
 -499 1400 l 6
 -492 1400 -487 1397 -483 1390 c 6
 -410 1114 l 6
 -406 1107 -407 1104 -414 1104 c 6
EndSplineSet
EndChar

StartChar: acutecomb
Encoding: 769 769 165
Width: 0
Flags: HMW
AnchorPoint: "top" -548 1000 mark 0
LayerCount: 2
Fore
SplineSet
-697 1104 m 6
 -704 1104 -705 1107 -701 1114 c 6
 -628 1390 l 6
 -624 1397 -619 1400 -612 1400 c 6
 -52 1400 l 6
 -45 1400 -47 1395 -52 1390 c 6
 -427 1114 l 6
 -432 1109 -440 1104 -447 1104 c 6
 -697 1104 l 6
EndSplineSet
EndChar

StartChar: uni0302
Encoding: 770 770 166
Width: 0
VWidth: 1920
Flags: HMW
AnchorPoint: "top" -559 1000.48 mark 0
LayerCount: 2
Fore
SplineSet
-560 1191.48144531 m 261
 -606 1110 l 6
 -610.228515625 1104.74316406 -618 1100 -625 1100 c 6
 -930 1100 l 6
 -937 1100 -940.044921875 1103.77734375 -936 1110 c 6
 -754 1390 l 6
 -748.756835938 1398.06640625 -747 1400 -740 1400 c 6
 -380 1400 l 6
 -373 1400 -371.427734375 1397.91601562 -366 1390 c 6
 -174 1110 l 6
 -169.802734375 1103.87890625 -167.505859375 1100 -180 1100 c 6
 -485 1100 l 6
 -495.428710938 1100 -499.743164062 1105.04785156 -504 1110 c 6
 -560 1191.48144531 l 261
EndSplineSet
EndChar

StartChar: tildecomb
Encoding: 771 771 167
Width: 0
Flags: HMW
AnchorPoint: "top" -578 1000 mark 0
LayerCount: 2
Fore
SplineSet
-648 1189 m 260
 -690.086914062 1189 -706.875976562 1149.86816406 -709.916015625 1117 c 0
 -710.46875 1111.0234375 -713.0859375 1108 -720 1108 c 2
 -920 1108 l 2
 -927.088867188 1108 -930.016659987 1110.99817883 -929.911132812 1117 c 0
 -925.719726562 1355.38476562 -808.5546875 1429 -718 1429 c 256
 -589 1429 -533 1322 -481 1322 c 260
 -439.127929688 1322 -422.37109375 1360.80957031 -419.104492188 1393 c 0
 -418.397460938 1399.96679688 -415.893554688 1403 -409 1403 c 2
 -210 1403 l 2
 -202.890625 1403 -199.977020618 1400.00247825 -200.109375 1393 c 0
 -204.60546875 1155.125 -320.71875 1082 -411 1082 c 256
 -540 1082 -596 1189 -648 1189 c 260
EndSplineSet
EndChar

StartChar: uni0304
Encoding: 772 772 168
Width: 0
VWidth: 1920
Flags: HMW
AnchorPoint: "top" -560 1000 mark 0
LayerCount: 2
Fore
SplineSet
-830 1105 m 10
 -830 1320 l 22
 -830 1327 -827 1330 -820 1330 c 14
 -300 1330 l 22
 -293 1330 -290 1327 -290 1320 c 14
 -290 1105 l 18
 -290 1098 -293 1095 -300 1095 c 10
 -820 1095 l 18
 -827 1095 -830 1098 -830 1105 c 10
EndSplineSet
EndChar

StartChar: uni0306
Encoding: 774 774 169
Width: 0
VWidth: 1920
Flags: HMW
AnchorPoint: "top" -560 1000 mark 0
LayerCount: 2
Fore
SplineSet
-560 1365 m 4
 -500 1365 -486 1399 -485 1427 c 4
 -484.714467756 1434.99490283 -482 1438 -475 1438 c 6
 -210 1438 l 6
 -203 1438 -199.514957983 1435.0347059 -200 1424 c 4
 -208 1242 -297 1095 -560 1095 c 4
 -823 1095 -914 1243 -920 1427 c 4
 -920.260730981 1434.99575008 -917 1438 -910 1438 c 6
 -645 1438 l 6
 -638 1438 -635.333148302 1434.99444907 -635 1425 c 4
 -634 1395 -618 1365 -560 1365 c 4
EndSplineSet
EndChar

StartChar: uni0307
Encoding: 775 775 170
Width: 0
Flags: HMW
AnchorPoint: "top" -548 950 mark 0
LayerCount: 2
Fore
SplineSet
-355 1040 m 6
 -745 1040 l 6
 -752 1040 -755 1043 -755 1050 c 6
 -755 1390 l 6
 -755 1397 -752 1400 -745 1400 c 6
 -355 1400 l 6
 -348 1400 -345 1397 -345 1390 c 6
 -345 1050 l 6
 -345 1043 -348 1040 -355 1040 c 6
EndSplineSet
EndChar

StartChar: uni0308
Encoding: 776 776 171
Width: 0
Flags: HMW
AnchorPoint: "top" -548 950 mark 0
LayerCount: 2
Fore
SplineSet
-635 1040 m 2
 -925 1040 l 2
 -932 1040 -935 1043 -935 1050 c 2
 -935 1390 l 2
 -935 1397 -932 1400 -925 1400 c 2
 -635 1400 l 2
 -628 1400 -625 1397 -625 1390 c 2
 -625 1050 l 2
 -625 1043 -628 1040 -635 1040 c 2
-185 1040 m 6
 -475 1040 l 2
 -482 1040 -485 1043 -485 1050 c 2
 -485 1390 l 2
 -485 1397 -482 1400 -475 1400 c 2
 -185 1400 l 6
 -178 1400 -175 1397 -175 1390 c 6
 -175 1050 l 6
 -175 1043 -178 1040 -185 1040 c 6
EndSplineSet
EndChar

StartChar: uni030A
Encoding: 778 778 172
Width: 0
Flags: HMW
AnchorPoint: "top" -554 1000 mark 0
LayerCount: 2
Fore
SplineSet
-360 1312 m 0
 -360 1208 -450 1122 -554 1122 c 0
 -660 1122 -750 1206 -750 1312 c 0
 -750 1414 -660 1502 -554 1502 c 0
 -448 1502 -360 1420 -360 1312 c 0
-454 1312 m 0
 -454 1368 -500 1407 -554 1407 c 0
 -608 1407 -654 1362 -654 1312 c 0
 -654 1258 -608 1217 -554 1217 c 0
 -502 1217 -454 1262 -454 1312 c 0
EndSplineSet
EndChar

StartChar: uni030B
Encoding: 779 779 173
Width: 0
Flags: HMW
AnchorPoint: "top" -618 1000 mark 0
LayerCount: 2
Fore
SplineSet
-477 1104 m 6
 -484 1104 -485 1107 -481 1114 c 6
 -408 1390 l 6
 -404 1397 -399 1400 -392 1400 c 6
 168 1400 l 6
 175 1400 173 1395 168 1390 c 6
 -207 1114 l 6
 -212 1109 -220 1104 -227 1104 c 6
 -477 1104 l 6
-987 1104 m 6
 -994 1104 -995 1107 -991 1114 c 6
 -918 1390 l 6
 -914 1397 -909 1400 -902 1400 c 6
 -422 1400 l 6
 -415 1400 -417 1395 -422 1390 c 6
 -717 1114 l 6
 -722 1109 -730 1104 -737 1104 c 6
 -987 1104 l 6
EndSplineSet
EndChar

StartChar: uni030C
Encoding: 780 780 174
Width: 0
Flags: HMW
AnchorPoint: "top" -554 1000 mark 0
LayerCount: 2
Fore
SplineSet
-554 1329 m 257
 -508 1410.48144531 l 2
 -503.771484375 1415.73828125 -496 1420.48144531 -489 1420.48144531 c 2
 -184 1420.48144531 l 2
 -177 1420.48144531 -173.955078125 1416.70410156 -178 1410.48144531 c 2
 -360 1130.48144531 l 2
 -365.243164062 1122.41503906 -367 1120.48144531 -374 1120.48144531 c 2
 -734 1120.48144531 l 2
 -741 1120.48144531 -742.572265625 1122.56542969 -748 1130.48144531 c 2
 -940 1410.48144531 l 2
 -944.197265625 1416.60253906 -946.494140625 1420.48144531 -934 1420.48144531 c 2
 -629 1420.48144531 l 2
 -618.571289062 1420.48144531 -614.256835938 1415.43359375 -610 1410.48144531 c 2
 -554 1329 l 257
EndSplineSet
EndChar

StartChar: uni030F
Encoding: 783 783 175
Width: 0
Flags: HMW
AnchorPoint: "top" -508 1000 mark 0
LayerCount: 2
Fore
SplineSet
-124 1104 m 6
 -374 1104 l 6
 -381 1104 -389 1109 -394 1114 c 6
 -669 1390 l 6
 -674 1395 -676 1400 -669 1400 c 6
 -209 1400 l 6
 -202 1400 -197 1397 -193 1390 c 6
 -120 1114 l 6
 -116 1107 -117 1104 -124 1104 c 6
-614 1104 m 6
 -864 1104 l 6
 -871 1104 -879 1109 -884 1114 c 6
 -1259 1390 l 6
 -1264 1395 -1266 1400 -1259 1400 c 6
 -699 1400 l 6
 -692 1400 -687 1397 -683 1390 c 6
 -610 1114 l 6
 -606 1107 -607 1104 -614 1104 c 6
EndSplineSet
EndChar

StartChar: uni0311
Encoding: 785 785 176
Width: 0
Flags: HMW
AnchorPoint: "top" -604 1000 mark 0
LayerCount: 2
Fore
SplineSet
-604 1245 m 0
 -664 1245 -678 1211 -679 1183 c 0
 -679.28515625 1175.00488281 -682 1172 -689 1172 c 2
 -954 1172 l 2
 -961 1172 -964.485351562 1174.96484375 -964 1186 c 0
 -956 1368 -867 1515 -604 1515 c 0
 -341 1515 -250 1367 -244 1183 c 0
 -243.739257812 1175.00390625 -247 1172 -254 1172 c 2
 -519 1172 l 2
 -526 1172 -528.666992188 1175.00585938 -529 1185 c 0
 -530 1215 -546 1245 -604 1245 c 0
EndSplineSet
EndChar

StartChar: dotbelowcomb
Encoding: 803 803 177
Width: 0
Flags: HMW
AnchorPoint: "bottom" -551 0 mark 0
LayerCount: 2
Fore
SplineSet
-355 -410 m 2
 -745 -410 l 2
 -752 -410 -755 -407 -755 -400 c 2
 -755 -60 l 2
 -755 -53 -752 -50 -745 -50 c 2
 -355 -50 l 2
 -348 -50 -345 -53 -345 -60 c 2
 -345 -400 l 2
 -345 -407 -348 -410 -355 -410 c 2
EndSplineSet
EndChar

StartChar: uni0326
Encoding: 806 806 178
Width: 0
Flags: HMW
AnchorPoint: "bottom" -561 0 mark 0
LayerCount: 2
Fore
SplineSet
-704 -703 m 10
 -782 -703 l 18
 -788 -703 -790 -701 -786 -695 c 10
 -630 -455 l 257
 -758 -455 l 2
 -765 -455 -766 -454 -766 -447 c 2
 -766 -95 l 2
 -766 -89 -764 -87 -758 -87 c 2
 -366 -87 l 2
 -360 -87 -358 -89 -358 -95 c 2
 -358 -439 l 2
 -358 -445 -360 -448 -366 -455 c 2
 -687 -695 l 18
 -694 -700 -698 -703 -704 -703 c 10
EndSplineSet
EndChar

StartChar: uni0327
Encoding: 807 807 179
Width: 1200
Flags: HMW
AnchorPoint: "bottom" -531 0 mark 0
LayerCount: 2
Fore
SplineSet
-633 -650 m 0
 -772.012695312 -650 -868.021484375 -635.84375 -921 -600.872070312 c 0
 -931.1015625 -594.204101562 -931.1015625 -594.204101562 -926 -584 c 2
 -890 -304 l 2
 -885.067382812 -294.133789062 -885.894487699 -296.189990628 -876 -298.975585938 c 0
 -774.208984375 -327.6328125 -730.182617188 -339 -671 -339 c 0
 -627 -339 -593 -319 -593 -297 c 4
 -593 -280.534179688 -601.099609375 -241.55859375 -780 -240.073242188 c 0
 -793.030680928 -239.965052696 -793.030273438 -239.923828125 -797 -230 c 2
 -813 -196 l 2
 -817.287109375 -186.890625 -813.5390625 -182.612304688 -809 -176 c 2
 -647 60 l 1
 -305 60 l 1
 -472 -172 l 1
 -456 -167 -440 -164 -425 -164 c 0
 -339 -164 -249 -182 -249 -362 c 0
 -249 -590 -429 -650 -633 -650 c 0
EndSplineSet
EndChar

StartChar: uni0328
Encoding: 808 808 180
Width: 1200
Flags: HMW
AnchorPoint: "ogonek" -551 0 mark 0
LayerCount: 2
Fore
SplineSet
-375 -210 m 2
 -375 -530 l 2
 -375 -537 -378 -540 -385 -540 c 2
 -465 -540 l 2
 -633 -540 -911 -488 -911 -280 c 0
 -911 -62 -687 -2 -527 70 c 1
 -465 0 l 1
 -569 -44 -601 -96 -601 -150 c 4
 -601 -192 -574.989257812 -200 -455 -200 c 6
 -385 -200 l 2
 -378 -200 -375 -203 -375 -210 c 2
EndSplineSet
EndChar

StartChar: uni0312
Encoding: 786 786 181
Width: 0
Flags: HMW
AnchorPoint: "top" -604 900 mark 0
LayerCount: 2
Fore
SplineSet
-455 1628 m 10
 -377 1628 l 18
 -371 1628 -369 1626 -373 1620 c 10
 -529 1380 l 257
 -401 1380 l 2
 -394 1380 -393 1379 -393 1372 c 2
 -393 1020 l 2
 -393 1014 -395 1012 -401 1012 c 2
 -793 1012 l 2
 -799 1012 -801 1014 -801 1020 c 2
 -801 1364 l 2
 -801 1370 -799 1373 -793 1380 c 2
 -472 1620 l 18
 -465 1625 -461 1628 -455 1628 c 10
EndSplineSet
EndChar

StartChar: sterling
Encoding: 163 163 182
Width: 1420
VWidth: 1920
Flags: HMW
LayerCount: 2
Fore
SplineSet
40 545 m 10
 40 840 l 18
 40 847 43 850 50 850 c 10
 1040 850 l 22
 1047 850 1050 847 1050 840 c 14
 1050 545 l 22
 1050 538 1047 535 1040 535 c 14
 50 535 l 18
 43 535 40 538 40 545 c 10
74 354 m 0
 190.069335938 410.069335938 318 465 318 614.35546875 c 0
 318 792.5078125 130 794.966796875 130 1043 c 0
 130 1273 378 1435 715 1435 c 0
 1059.171875 1435 1306.63476562 1266.05566406 1319.68945312 971 c 0
 1320.04394531 963 1317.04394531 963 1310 963 c 2
 860 963 l 2
 853.072265625 963 850.272460938 963.006835938 849.927734375 971 c 0
 846.21484375 1057.09472656 809.612304688 1095 735 1095 c 0
 658 1095 610 1063 610 993 c 0
 610 871.723632812 778 850 778 644.35546875 c 0
 778 472.653320312 647.922851562 411.385742188 528.950195312 355 c 1
 1320 355 l 2
 1327 355 1330 352 1330 345 c 2
 1330 10 l 2
 1330 3 1327 0 1320 0 c 2
 80 0 l 2
 73 0 70 3 70 10 c 2
 70 345 l 2
 70 349.28125 68.90625 351.5390625 74 354 c 0
EndSplineSet
EndChar

StartChar: currency
Encoding: 164 164 183
Width: 1112
Flags: HMW
LayerCount: 2
Fore
SplineSet
888.354492188 1274.2421875 m 10
 1116.7421875 1045.85449219 l 18
 1121.69238281 1040.90429688 1121.69238281 1036.66210938 1116.7421875 1031.71191406 c 10
 954.108398438 869.077148438 l 18
 949.158203125 864.127929688 944.916015625 864.127929688 939.965820312 869.077148438 c 10
 711.577148438 1097.46582031 l 18
 706.627929688 1102.41601562 706.627929688 1106.65820312 711.577148438 1111.60839844 c 10
 874.211914062 1274.2421875 l 18
 879.162109375 1279.19238281 883.404296875 1279.19238281 888.354492188 1274.2421875 c 10
160.034179688 545.922851562 m 10
 388.422851562 317.534179688 l 18
 393.372070312 312.583984375 393.372070312 308.341796875 388.422851562 303.391601562 c 10
 225.788085938 140.7578125 l 18
 220.837890625 135.807617188 216.595703125 135.807617188 211.645507812 140.7578125 c 10
 -16.7421875 369.145507812 l 18
 -21.6923828125 374.095703125 -21.6923828125 378.337890625 -16.7421875 383.288085938 c 10
 145.891601562 545.922851562 l 18
 150.841796875 550.872070312 155.083984375 550.872070312 160.034179688 545.922851562 c 10
-16.7421875 1045.85449219 m 10
 211.645507812 1274.2421875 l 18
 216.595703125 1279.19238281 220.837890625 1279.19238281 225.788085938 1274.2421875 c 10
 388.422851562 1111.60839844 l 18
 393.372070312 1106.65820312 393.372070312 1102.41601562 388.422851562 1097.46582031 c 10
 160.034179688 869.077148438 l 18
 155.083984375 864.127929688 150.841796875 864.127929688 145.891601562 869.077148438 c 10
 -16.7421875 1031.71191406 l 18
 -21.6923828125 1036.66210938 -21.6923828125 1040.90429688 -16.7421875 1045.85449219 c 10
711.577148438 317.534179688 m 10
 869.965820312 475.922851562 l 18
 874.916015625 480.872070312 949.158203125 550.872070312 954.108398438 545.922851562 c 10
 1116.7421875 383.288085938 l 18
 1121.69238281 378.337890625 1121.69238281 374.095703125 1116.7421875 369.145507812 c 10
 888.354492188 140.7578125 l 18
 883.404296875 135.807617188 879.162109375 135.807617188 874.211914062 140.7578125 c 10
 711.577148438 303.391601562 l 18
 706.627929688 308.341796875 706.627929688 312.583984375 711.577148438 317.534179688 c 10
63 710 m 0
 63 979 284 1200 553 1200 c 0
 822 1200 1043 979 1043 710 c 0
 1043 441 822 220 553 220 c 0
 284 220 63 441 63 710 c 0
423 710 m 0
 423 621 464 570 553 570 c 0
 642 570 683 621 683 710 c 0
 683 799 642 850 553 850 c 0
 464 850 423 799 423 710 c 0
EndSplineSet
EndChar

StartChar: brokenbar
Encoding: 166 166 184
Width: 515
VWidth: 1920
Flags: HMW
LayerCount: 2
Fore
SplineSet
88 430 m 14
 428 430 l 22
 435 430 438 427 438 420 c 14
 438 -350 l 22
 438 -357 435 -360 428 -360 c 14
 88 -360 l 22
 81 -360 78 -357 78 -350 c 14
 78 420 l 22
 78 427 81 430 88 430 c 14
88 1600 m 14
 428 1600 l 22
 435 1600 438 1597 438 1590 c 14
 438 820 l 22
 438 813 435 810 428 810 c 14
 88 810 l 22
 81 810 78 813 78 820 c 14
 78 1590 l 22
 78 1597 81 1600 88 1600 c 14
EndSplineSet
EndChar

StartChar: section
Encoding: 167 167 185
Width: 1186
VWidth: 1920
Flags: HMW
LayerCount: 2
Fore
SplineSet
533 850 m 257
 458 850 395 786 395 668 c 256
 395 531 458.229492188 474.002929688 640 371 c 260
 880 235 1025 187 1025 -43 c 260
 1025 -265 850 -400 573 -400 c 260
 319 -400 174 -267 160 -57 c 4
 160 -51 163 -48 170 -48 c 6
 409 -48 l 6
 416 -48 418.61328125 -51.06640625 420 -58 c 4
 434 -128 458 -165 521 -165 c 260
 569 -165 605 -140 605 -100 c 260
 605 -62 555 -39 440 12 c 260
 144.400390625 143.091796875 25 306 25 563 c 256
 25 835 280 930 544 930 c 257
 533 850 l 257
653 185 m 257
 728 185 791 249 791 367 c 256
 791 504 727.770507812 560.997070312 546 664 c 256
 306 800 161 848 161 1078 c 256
 161 1300 336 1435 613 1435 c 256
 867 1435 1012 1302 1026 1092 c 0
 1026 1086 1023 1083 1016 1083 c 2
 777 1083 l 2
 770 1083 767.38671875 1086.06640625 766 1093 c 0
 752 1163 728 1200 665 1200 c 256
 617 1200 581 1175 581 1135 c 256
 581 1097 631 1074 746 1023 c 256
 1041.59960938 891.908203125 1161 729 1161 472 c 256
 1161 200 906 105 642 105 c 257
 653 185 l 257
EndSplineSet
EndChar

StartChar: copyright
Encoding: 169 169 186
Width: 1484
Flags: HMW
LayerCount: 2
Fore
SplineSet
1156 609 m 260
 1143 410 1031 229 751 229 c 260
 459 229 334 393 334 621 c 262
 334 720 l 262
 334 948 459 1111 751 1111 c 260
 1031 1111 1133 937 1138 774 c 260
 1138 769 1136 768 1132 768 c 262
 923 768 l 262
 919 768 916 769 916 774 c 260
 915 849 869 907 781 907 c 260
 693 907 634 852 634 726 c 262
 634 615 l 262
 634 483 687 433 787 433 c 260
 887 433 936 499 934 609 c 260
 934 614 936 615 940 615 c 262
 1150 615 l 262
 1154 615 1156 614 1156 609 c 260
1439 668 m 0
 1439 284 1125 -28 741 -28 c 0
 357 -28 45 284 45 668 c 0
 45 1052 357 1366 741 1366 c 0
 1125 1366 1439 1052 1439 668 c 0
1353 668 m 0
 1353 1006 1079 1280 741 1280 c 0
 403 1280 131 1006 131 668 c 0
 131 330 403 58 741 58 c 0
 1079 58 1353 330 1353 668 c 0
EndSplineSet
EndChar

StartChar: registered
Encoding: 174 174 188
Width: 1484
Flags: HMW
LayerCount: 2
Fore
SplineSet
662 890 m 261
 662 704 l 261
 722 704 l 262
 798 704 815 742 815 796 c 262
 815 798 l 262
 815 846 798 890 722 890 c 262
 662 890 l 261
782 1100 m 262
 1026 1100 1115 987 1115 849 c 262
 1115 835 l 262
 1115 691 978 608 782 608 c 261
 782 644 l 261
 996 644 1121 627 1121 483 c 262
 1121 457 l 262
 1121 389 1139 338 1167 297 c 4
 1172 290 1172 288 1172 284 c 6
 1172 266 l 6
 1172 262 1170 260 1166 260 c 6
 866 260 l 6
 862 260 860 260 857 265 c 4
 824 324 815 405 815 457 c 262
 815 483 l 262
 815 531 798 554 734 554 c 262
 662 554 l 261
 662 266 l 6
 662 262 660 260 656 260 c 6
 374 260 l 6
 370 260 368 262 368 266 c 6
 368 1094 l 6
 368 1098 370 1100 374 1100 c 6
 782 1100 l 262
1439 668 m 0
 1439 284 1125 -28 741 -28 c 0
 357 -28 45 284 45 668 c 0
 45 1052 357 1366 741 1366 c 0
 1125 1366 1439 1052 1439 668 c 0
1353 668 m 0
 1353 1006 1079 1280 741 1280 c 0
 403 1280 131 1006 131 668 c 0
 131 330 403 58 741 58 c 0
 1079 58 1353 330 1353 668 c 0
EndSplineSet
EndChar

StartChar: dotlessi
Encoding: 305 305 279
Width: 590
VWidth: 1920
Flags: HMW
AnchorPoint: "top" 270 1050 basechar 0
LayerCount: 2
Fore
SplineSet
540 1040 m 2
 540 10 l 2
 540 3 537 0 530 0 c 2
 60 0 l 2
 53 0 50 3 50 10 c 2
 50 1040 l 2
 50 1047 53 1050 60 1050 c 2
 530 1050 l 2
 537 1050 540 1047 540 1040 c 2
EndSplineSet
EndChar

StartChar: uni0237
Encoding: 567 567 291
Width: 590
VWidth: 1920
Flags: HMW
AnchorPoint: "top" 291 1050 basechar 0
LayerCount: 2
Fore
SplineSet
540 2 m 258
 540 -355.388671875 268.923828125 -378.211914062 -119 -351.072265625 c 0
 -127.045898438 -350.509765625 -130 -347.040039062 -130 -340 c 2
 -130 -80 l 2
 -130 -73.0595703125 -127.018554688 -70.1767578125 -120 -71.2158203125 c 0
 -0.9189453125 -88.853515625 50 -55.2080078125 50 72 c 258
 50 1040 l 2
 50 1047 53 1050 60 1050 c 2
 530 1050 l 2
 537 1050 540 1047 540 1040 c 2
 540 2 l 258
EndSplineSet
EndChar

StartChar: kgreenlandic
Encoding: 312 312 298
Width: 1340
VWidth: 1920
Flags: HMW
LayerCount: 2
Fore
SplineSet
60 1050 m 6
 530 1050 l 6
 537 1050 540 1047 540 1040 c 6
 540 10 l 2
 540 3 537 0 530 0 c 2
 60 0 l 2
 53 0 50 3 50 10 c 2
 50 1040 l 6
 50 1047 53 1050 60 1050 c 6
270 463 m 257
 761 1040 l 2
 769 1048 772 1050 780 1050 c 2
 1330 1050 l 2
 1337 1050 1338 1048 1329 1040 c 2
 530 233 l 257
 270 463 l 257
480 653 m 257
 930 713 l 257
 1434 10 l 2
 1439 3 1437 0 1430 0 c 2
 840 0 l 2
 832 0 828 3 824 10 c 2
 480 653 l 257
EndSplineSet
EndChar

StartChar: grave
Encoding: 96 96 339
Width: 773
VWidth: 0
Flags: HMW
LayerCount: 2
Fore
SplineSet
706 1104 m 6
 456 1104 l 6
 449 1104 441 1109 436 1114 c 6
 61 1390 l 6
 56 1395 54 1400 61 1400 c 6
 621 1400 l 6
 628 1400 633 1397 637 1390 c 6
 710 1114 l 6
 714 1107 713 1104 706 1104 c 6
EndSplineSet
EndChar

StartChar: longs
Encoding: 383 383 352
Width: 690
VWidth: 1920
Flags: HMW
LayerCount: 2
Fore
SplineSet
50 1188 m 262
 50 1425.14550781 280.911132812 1468.85058594 668 1441.16601562 c 4
 677.045898438 1440.51855469 680 1437.046875 680 1430 c 6
 680 1170 l 6
 680 1163.15625 676.849609375 1159.265625 664 1161.88964844 c 4
 588.801757812 1177.24707031 535 1153.49511719 535 1068 c 262
 535 10 l 6
 535 3 532 0 525 0 c 6
 60 0 l 6
 53 0 50 3 50 10 c 6
 50 1188 l 262
EndSplineSet
EndChar

StartChar: uni0259
Encoding: 601 601 359
Width: 1258
VWidth: 1920
Flags: HMW
LayerCount: 2
Fore
SplineSet
25 720.84765625 m 0
 75.732421875 954.708007812 295.868164062 1085 627 1085 c 256
 996 1085 1233 912 1233 602 c 258
 1233 447 l 258
 1233 147 996 -35 619 -35 c 256
 252 -35 47 161 23 426 c 256
 16.5771484375 496.923828125 15.01171875 523.3828125 15 607 c 0
 15 612 18 615 25 615 c 2
 959 615 l 257
 959 445 l 257
 499 445 l 257
 504 303 551 245 624 245 c 256
 691 245 743 297 743 417 c 258
 743 632 l 258
 743 782 696 805 619 805 c 256
 536.727539062 805 505.87890625 775.5625 494.3515625 718 c 0
 493.51953125 713.845703125 489.955078125 712 483 712 c 2
 33 712 l 2
 25.9375 712 23.685546875 714.788085938 25 720.84765625 c 0
EndSplineSet
EndChar

StartChar: logicalnot
Encoding: 172 172 373
Width: 1150
VWidth: 2048
Flags: HMW
LayerCount: 2
Fore
SplineSet
80 505 m 6
 80 840 l 6
 80 847 83 850 90 850 c 6
 1070 850 l 2
 1077 850 1080 847 1080 840 c 2
 1080 325 l 2
 1080 318 1077 315 1070 315 c 2
 700 315 l 2
 693 315 690 318 690 325 c 2
 690 495 l 1
 90 495 l 6
 83 495 80 498 80 505 c 6
EndSplineSet
EndChar

StartChar: acute
Encoding: 180 180 374
Width: 773
Flags: HMW
LayerCount: 2
Fore
SplineSet
67 1104 m 2
 60 1104 59 1107 63 1114 c 2
 136 1390 l 2
 140 1397 145 1400 152 1400 c 2
 712 1400 l 2
 719 1400 717 1395 712 1390 c 2
 337 1114 l 2
 332 1109 324 1104 317 1104 c 2
 67 1104 l 2
EndSplineSet
EndChar

StartChar: degree
Encoding: 176 176 376
Width: 980
VWidth: 2048
Flags: HMW
LayerCount: 2
Fore
SplineSet
50 983 m 258
 50 1018 l 258
 50 1278 238 1435 485 1435 c 260
 732 1435 930 1278 930 1018 c 258
 930 983 l 258
 930 723 732 565 485 565 c 260
 238 565 50 723 50 983 c 258
405 983 m 258
 405 913 443 885 490 885 c 256
 537 885 575 913 575 983 c 258
 575 1018 l 258
 575 1088 537 1115 490 1115 c 256
 443 1115 405 1088 405 1018 c 258
 405 983 l 258
EndSplineSet
EndChar

StartChar: plusminus
Encoding: 177 177 377
Width: 1168
Flags: HMW
LayerCount: 2
Fore
SplineSet
105 110 m 10
 105 445 l 18
 105 452 108 455 115 455 c 10
 1045 455 l 18
 1052 455 1055 452 1055 445 c 10
 1055 110 l 18
 1055 103 1052 100 1045 100 c 10
 115 100 l 18
 108 100 105 103 105 110 c 10
105 875 m 10
 105 1210 l 18
 105 1217 108 1220 115 1220 c 10
 1045 1220 l 18
 1052 1220 1055 1217 1055 1210 c 10
 1055 875 l 18
 1055 868 1052 865 1045 865 c 10
 115 865 l 18
 108 865 105 868 105 875 c 10
415 1490 m 10
 745 1490 l 22
 752 1490 755 1487 755 1480 c 14
 755 580 l 22
 755 573 752 570 745 570 c 14
 415 570 l 18
 408 570 405 573 405 580 c 10
 405 1480 l 18
 405 1487 408 1490 415 1490 c 10
EndSplineSet
EndChar

StartChar: ae
Encoding: 230 230 379
Width: 1958
VWidth: 1920
Flags: HMW
LayerCount: 2
Fore
SplineSet
516.040039062 320 m 0
 516.040039062 256.396484375 548.221679688 235 596.040039062 235 c 256
 680.040039062 235 734.040039062 292 734.040039062 438 c 257
 924.040039062 328 l 261
 924.040039062 105 743.040039062 -35 462.040039062 -35 c 256
 192.776367188 -35 26.0400390625 55.109375 26.0400390625 270 c 0
 26.0400390625 461.0078125 144.599609375 575.212890625 485.040039062 615 c 256
 669.09765625 636.510742188 734.040039062 675 734.040039062 718 c 257
 774.040039062 538 l 257
 774.040039062 475 706.123046875 453.532226562 642.040039062 440 c 256
 564.118164062 423.545898438 516.040039062 400.081054688 516.040039062 320 c 0
734.040039062 298 m 265
 734.040039062 738 l 258
 734.040039062 778 714.040039062 805 649.040039062 805 c 256
 580.293945312 805 567.36328125 754.200195312 564.17578125 702 c 0
 563.809719457 696.005177386 560.903320312 693 554.040039062 693 c 2
 104.040039062 693 l 2
 96.9736328125 693 94.0244140625 695.9921875 94.8935546875 702 c 0
 128.569335938 934.799804688 328.421875 1085 624.040039062 1085 c 256
 924.040039062 1085 1064.04003906 961 1064.04003906 693 c 258
 1064.04003906 298 l 273
 734.040039062 298 l 265
1933 329.15234375 m 0
 1882.26757812 95.2919921875 1682.13183594 -35 1381 -35 c 256
 1022 -35 855 138 855 448 c 258
 855 603 l 258
 855 903 1042 1085 1369 1085 c 256
 1706 1085 1911 889 1935 624 c 256
 1941.42285156 553.076171875 1942.98828125 526.6171875 1943 443 c 0
 1943 438 1940 435 1933 435 c 2
 999 435 l 257
 999 605 l 257
 1459 605 l 257
 1454 747 1407 805 1334 805 c 256
 1267 805 1215 753 1215 633 c 258
 1215 418 l 258
 1215 268 1262 245 1339 245 c 256
 1421.27246094 245 1452.12109375 274.4375 1463.6484375 332 c 0
 1464.48046875 336.154296875 1468.04492188 338 1475 338 c 2
 1925 338 l 2
 1932.0625 338 1934.31445312 335.211914062 1933 329.15234375 c 0
EndSplineSet
EndChar

StartChar: paragraph
Encoding: 182 182 380
Width: 1510
VWidth: 1920
Flags: HMW
LayerCount: 2
Fore
SplineSet
1325 1075 m 1
 1325 -350 l 2
 1325 -357 1322 -360 1315 -360 c 2
 985 -360 l 2
 978 -360 974.357421875 -356.959960938 975 -350 c 2
 975 1075 l 1
 895 1075 l 1
 895 -350 l 2
 894.357421875 -356.959960938 892 -360 885 -360 c 2
 565 -360 l 2
 558 -360 555 -357 555 -350 c 2
 555 400 l 1
 545 400 l 6
 288 400 50 548 50 868 c 6
 50 932 l 6
 50 1252 288.120117188 1400 545 1400 c 6
 1465 1400 l 2
 1472 1400 1475 1397 1475 1390 c 2
 1475 1085 l 2
 1475 1078 1472 1075 1465 1075 c 2
 1325 1075 l 1
EndSplineSet
EndChar

StartChar: guilsinglleft
Encoding: 8249 8249 381
Width: 630
Flags: HMW
LayerCount: 2
Fore
SplineSet
460 116 m 2
 90 429 l 6
 82.61328125 433.393554688 80 438 80 445 c 6
 80 675 l 2
 80 682 82.61328125 686.606445312 90 691 c 2
 460 974 l 2
 467.38671875 978.393554688 470 977 470 970 c 2
 470 610 l 2
 470 603 467.579101562 598.283203125 460 594 c 2
 369.01953125 555 l 257
 460 496 l 2
 467.579101562 491.716796875 470 487 470 480 c 2
 470 120 l 2
 470 113 467.38671875 111.606445312 460 116 c 2
EndSplineSet
EndChar

StartChar: guilsinglright
Encoding: 8250 8250 382
Width: 630
Flags: HW
LayerCount: 2
Fore
SplineSet
170 974 m 2
 540 671 l 6
 547.38671875 666.606445312 550 662 550 655 c 6
 550 425 l 2
 550 418 547.38671875 413.393554688 540 409 c 2
 170 116 l 2
 162.61328125 111.606445312 160 113 160 120 c 2
 160 480 l 2
 160 487 162.420898438 491.716796875 170 496 c 2
 260.98046875 545 l 257
 170 594 l 2
 162.420898438 598.283203125 160 603 160 610 c 2
 160 970 l 2
 160 977 162.61328125 978.393554688 170 974 c 2
EndSplineSet
EndChar

StartChar: mu
Encoding: 181 181 385
Width: 1255
VWidth: 1920
Flags: HW
LayerCount: 2
Fore
SplineSet
55 1050 m 2
 525 1050 l 2
 532 1050 535 1047 535 1040 c 2
 535 -350 l 2
 535 -357 532 -360 525 -360 c 2
 55 -360 l 2
 48 -360 45 -357 45 -350 c 2
 45 1040 l 2
 45 1047 48 1050 55 1050 c 2
1195 0 m 2
 735 0 l 2
 728 0 725 3 725 10 c 2
 725 363 l 257
 715 390 l 257
 715 1040 l 2
 715 1047 718 1050 725 1050 c 2
 1195 1050 l 2
 1202 1050 1205 1047 1205 1040 c 2
 1205 10 l 2
 1205 3 1202 0 1195 0 c 2
765 347 m 257
 765 107 697 -35 550 -35 c 260
 423 -35 345 27.0048828125 345 237 c 262
 345 1040 l 2
 345 1047 348 1050 355 1050 c 2
 525 1050 l 2
 532 1050 535 1047 535 1040 c 2
 535 437 l 258
 535 337 553 295 610 295 c 256
 667 295 715 367 715 577 c 257
 765 347 l 257
EndSplineSet
EndChar

StartChar: Eth
Encoding: 208 208 387
Width: 1430
VWidth: 1920
Flags: HW
LayerCount: 2
Fore
SplineSet
-80 545 m 14
 -80 880 l 22
 -80 887 -77 890 -70 890 c 14
 740 890 l 22
 747 890 750 887 750 880 c 14
 750 545 l 22
 750 538 747 535 740 535 c 14
 -70 535 l 22
 -77 535 -80 538 -80 545 c 14
EndSplineSet
Refer: 15 68 S 1 0 0 1 0 0 2
EndChar

StartChar: Dcroat
Encoding: 272 272 388
Width: 1430
VWidth: 1920
Flags: HW
LayerCount: 2
Fore
SplineSet
-80 545 m 14
 -80 880 l 22
 -80 887 -77 890 -70 890 c 14
 740 890 l 22
 747 890 750 887 750 880 c 14
 750 545 l 22
 750 538 747 535 740 535 c 14
 -70 535 l 22
 -77 535 -80 538 -80 545 c 14
EndSplineSet
Refer: 15 68 S 1 0 0 1 0 0 2
EndChar

StartChar: thorn
Encoding: 254 254 389
Width: 1315
VWidth: 1920
Flags: HW
LayerCount: 2
Fore
SplineSet
60 1450 m 2
 530 1450 l 2
 537 1450 540 1447 540 1440 c 2
 540 -350 l 6
 540 -357 536.595703125 -360 530 -360 c 6
 60 -360 l 6
 53 -360 50 -357 50 -350 c 6
 50 1440 l 2
 50 1447 53 1450 60 1450 c 2
480 633 m 257
 480 923 617 1085 874 1085 c 256
 1141 1085 1290 943 1290 603 c 258
 1290 447 l 258
 1290 107 1141 -35 874 -35 c 256
 617 -35 480 127 480 417 c 257
 540 487 l 257
 540 377 587 305 664 305 c 256
 751 305 800 357 800 467 c 258
 800 583 l 258
 800 693 751 745 664 745 c 256
 587 745 540 673 540 563 c 257
 480 633 l 257
EndSplineSet
EndChar

StartChar: Thorn
Encoding: 222 222 390
Width: 1330
VWidth: 1920
Flags: HW
LayerCount: 2
Fore
SplineSet
720 1160 m 6
 1106.87988281 1160 1275 1012 1275 742 c 6
 1275 678 l 6
 1275 408 1107 260 720 260 c 6
 560 260 l 5
 560 10 l 2
 560 3 557 0 550 0 c 2
 80 0 l 2
 73 0 70 3 70 10 c 2
 70 1390 l 2
 70 1397 73 1400 80 1400 c 2
 550 1400 l 2
 557 1400 560 1397 560 1390 c 2
 560 1160 l 5
 720 1160 l 6
560 510 m 5
 670 510 l 6
 787 510 825 558 825 648 c 6
 825 672 l 6
 825 762 787 810 670 810 c 6
 560 810 l 5
 560 510 l 5
EndSplineSet
EndChar

StartChar: divide
Encoding: 247 247 391
Width: 1380
VWidth: 2048
Flags: HW
LayerCount: 2
Fore
SplineSet
35 575 m 10
 35 810 l 18
 35 817 38 820 45 820 c 10
 1335 820 l 18
 1342 820 1345 817 1345 810 c 10
 1345 575 l 18
 1345 568 1342 565 1335 565 c 10
 45 565 l 18
 38 565 35 568 35 575 c 10
EndSplineSet
Refer: 1 46 N 1 0 0 1 320 920 2
Refer: 1 46 N 1 0 0 1 320 5 2
EndChar

StartChar: multiply
Encoding: 215 215 392
Width: 1060
VWidth: 1920
Flags: HW
LayerCount: 2
Fore
SplineSet
976 487 m 10
 755 266 l 18
 750 261 746 261 741 266 c 10
 83 924 l 18
 78 929 78 933 83 938 c 10
 305 1159 l 18
 310 1164 314 1164 319 1159 c 10
 976 501 l 18
 981 496 981 492 976 487 c 10
305 266 m 14
 83 487 l 18
 78 492 78 496 83 501 c 10
 741 1159 l 18
 746 1164 750 1164 755 1159 c 10
 976 938 l 22
 981 933 981 929 976 924 c 14
 319 266 l 22
 314 261 310 261 305 266 c 14
EndSplineSet
EndChar

StartChar: Oslash
Encoding: 216 216 393
Width: 1590
VWidth: 1920
Flags: HW
LayerCount: 2
Fore
SplineSet
1219.01953125 1485.76269531 m 6
 1270.98046875 1455.76269531 l 6
 1277.04296875 1452.26269531 1278.140625 1448.1640625 1274.640625 1442.10253906 c 6
 394.640625 -82.1025390625 l 6
 391.140625 -88.1640625 387.04296875 -89.2626953125 380.98046875 -85.7626953125 c 6
 329.01953125 -55.7626953125 l 6
 322.95703125 -52.2626953125 321.859375 -48.1640625 325.359375 -42.1025390625 c 6
 1205.359375 1482.10253906 l 6
 1208.859375 1488.1640625 1212.95703125 1489.26269531 1219.01953125 1485.76269531 c 6
EndSplineSet
Refer: 26 79 N 1 0 0 1 0 0 2
EndChar

StartChar: oslash
Encoding: 248 248 394
Width: 1280
VWidth: 1920
Flags: HW
LayerCount: 2
Fore
SplineSet
969.01953125 1168.53808594 m 6
 1020.98046875 1138.53808594 l 6
 1027.04296875 1135.03808594 1028.140625 1130.94042969 1024.640625 1124.87792969 c 6
 314.640625 -104.877929688 l 6
 311.140625 -110.940429688 307.04296875 -112.038085938 300.98046875 -108.538085938 c 6
 249.01953125 -78.5380859375 l 6
 242.95703125 -75.0380859375 241.859375 -70.9404296875 245.359375 -64.8779296875 c 6
 955.359375 1164.87792969 l 6
 958.859375 1170.94042969 962.95703125 1172.03808594 969.01953125 1168.53808594 c 6
EndSplineSet
Refer: 52 111 N 1 0 0 1 0 0 2
EndChar

StartChar: germandbls
Encoding: 223 223 396
Width: 1560
VWidth: 1920
Flags: HW
LayerCount: 2
Fore
SplineSet
90 1088 m 2
 90 1432 347 1487 727 1487 c 0
 1140 1487 1312 1342 1312 1175 c 0
 1312 978 1172 935 1172 815 c 0
 1172 636 1532 663 1532 322 c 4
 1532 50 1293 -35 713 -35 c 0
 704 -35 703 -34 703 -25 c 2
 703 285 l 2
 703 294 704.000081484 294.961702474 713 295 c 0
 948 296 1032 309 1032 377 c 0
 1032 500 682 537 682 768 c 0
 682 940 822 978 822 1068 c 0
 822 1129 779 1160 707 1160 c 0
 635 1160 575 1131 575 1038 c 2
 575 10 l 2
 575 3 572 0 565 0 c 2
 100 0 l 2
 93 0 90 3 90 10 c 2
 90 1088 l 2
EndSplineSet
EndChar

StartChar: eth
Encoding: 240 240 397
Width: 1314
VWidth: 1920
Flags: HW
LayerCount: 2
Fore
SplineSet
323 1101 m 10
 283 1185 l 18
 280 1191 282 1195 288 1198 c 10
 964 1538 l 18
 970 1541 974 1540 977 1534 c 10
 1016 1450 l 18
 1019 1444 1017 1440 1011 1437 c 10
 336 1096 l 18
 330 1093 326 1095 323 1101 c 10
654 785 m 256
 564 785 515 710 515 537 c 258
 515 497 l 258
 515 327 556 265 665 265 c 256
 782 265 804 342 804 472 c 258
 804 698 l 258
 804 983.786132812 519.865234375 1209.69335938 237 1330.11230469 c 0
 226.758789062 1334.47167969 224.943359375 1337.56347656 229 1345 c 2
 429 1605 l 2
 433.16015625 1612.62792969 434.363635165 1615.85545865 447 1610.09863281 c 0
 870.54296875 1417.14257812 1289 1048.63769531 1289 623 c 258
 1289 537 l 258
 1289 207 1112 -35 655 -35 c 260
 233 -35 25 179 25 457 c 258
 25 567 l 258
 25 841 177 1085 474 1085 c 256
 681 1085 844 856 844 662 c 257
 804 472 l 257
 804 602 l 258
 804 745 734 785 654 785 c 256
EndSplineSet
EndChar

StartChar: dcroat
Encoding: 273 273 398
Width: 1315
VWidth: 1920
Flags: HW
LayerCount: 2
Fore
SplineSet
590 1105 m 14
 590 1370 l 22
 590 1377 593 1380 600 1380 c 14
 1450 1380 l 22
 1457 1380 1460 1377 1460 1370 c 14
 1460 1105 l 22
 1460 1098 1457 1095 1450 1095 c 14
 600 1095 l 22
 593 1095 590 1098 590 1105 c 14
EndSplineSet
Refer: 41 100 N 1 0 0 1 0 0 2
EndChar

StartChar: Hbar
Encoding: 294 294 399
Width: 1420
VWidth: 1920
Flags: HW
LayerCount: 2
Fore
SplineSet
-30 960 m 14
 -30 1275 l 22
 -30 1282 -27 1285 -20 1285 c 14
 1440 1285 l 18
 1447 1285 1450 1282 1450 1275 c 10
 1450 960 l 18
 1450 953 1447 950 1440 950 c 10
 -20 950 l 22
 -27 950 -30 953 -30 960 c 14
EndSplineSet
Refer: 19 72 N 1 0 0 1 0 0 2
EndChar

StartChar: hbar
Encoding: 295 295 400
Width: 1255
VWidth: 1920
Flags: HW
LayerCount: 2
Fore
SplineSet
-120 1105 m 14
 -120 1370 l 22
 -120 1377 -117 1380 -110 1380 c 14
 740 1380 l 22
 747 1380 750 1377 750 1370 c 14
 750 1105 l 22
 750 1098 747 1095 740 1095 c 14
 -110 1095 l 22
 -117 1095 -120 1098 -120 1105 c 14
EndSplineSet
Refer: 45 104 N 1 0 0 1 0 0 2
EndChar

StartChar: Lslash
Encoding: 321 321 405
Width: 1135
VWidth: 1920
Flags: HW
LayerCount: 2
Fore
SplineSet
723.157226562 1158.48046875 m 6
 753.157226562 1106.51953125 l 6
 756.657226562 1100.45703125 755.55859375 1096.359375 749.497070312 1092.859375 c 6
 -69.4970703125 617.859375 l 6
 -75.55859375 614.359375 -79.6572265625 615.45703125 -83.1572265625 621.51953125 c 6
 -113.157226562 673.48046875 l 6
 -116.657226562 679.54296875 -115.55859375 683.640625 -109.497070312 687.140625 c 6
 709.497070312 1162.140625 l 6
 715.55859375 1165.640625 719.657226562 1164.54296875 723.157226562 1158.48046875 c 6
EndSplineSet
Refer: 23 76 N 1 0 0 1 0 0 2
EndChar

StartChar: lslash
Encoding: 322 322 406
Width: 590
VWidth: 1920
Flags: HW
LayerCount: 2
Fore
SplineSet
713.157226562 1158.48046875 m 6
 743.157226562 1106.51953125 l 6
 746.657226562 1100.45703125 745.55859375 1096.359375 739.497070312 1092.859375 c 6
 -79.4970703125 617.859375 l 6
 -85.55859375 614.359375 -89.6572265625 615.45703125 -93.1572265625 621.51953125 c 6
 -123.157226562 673.48046875 l 6
 -126.657226562 679.54296875 -125.55859375 683.640625 -119.497070312 687.140625 c 6
 699.497070312 1162.140625 l 6
 705.55859375 1165.640625 709.657226562 1164.54296875 713.157226562 1158.48046875 c 6
EndSplineSet
Refer: 49 108 N 1 0 0 1 0 0 2
EndChar

StartChar: eng
Encoding: 331 331 408
Width: 1255
VWidth: 1920
Flags: HW
LayerCount: 2
Fore
SplineSet
60 1050 m 2
 520 1050 l 2
 527 1050 530 1047 530 1040 c 2
 530 687 l 257
 540 660 l 257
 540 10 l 2
 540 3 537 0 530 0 c 2
 60 0 l 2
 53 0 50 3 50 10 c 2
 50 1040 l 2
 50 1047 53 1050 60 1050 c 2
1210 2 m 6
 1210 -355.388671875 938.923828125 -378.211914062 551 -351.072265625 c 0
 542.954101562 -350.509765625 540 -347.040039062 540 -340 c 2
 540 -80 l 2
 540 -73.0595703125 542.981445312 -70.1767578125 550 -71.2158203125 c 0
 669.081054688 -88.853515625 720 -55.2080078125 720 72 c 2
 720 613 l 2
 720 713 702 755 645 755 c 0
 588 755 540 683 540 473 c 1
 490 703 l 1
 490 943 648 1085 865 1085 c 0
 1092 1085 1210 972.995117188 1210 663 c 2
 1210 2 l 6
EndSplineSet
EndChar

StartChar: Eng
Encoding: 330 330 409
Width: 1380
VWidth: 1920
Flags: HW
LayerCount: 2
Fore
SplineSet
970 1400 m 2
 1320 1400 l 2
 1327 1400 1330 1397 1330 1390 c 2
 1330 2 l 2
 1330 -355 1059 -378 671 -351 c 0
 663 -350 660 -347 660 -340 c 2
 660 -80 l 2
 660 -73 663 -70 670 -71 c 0
 789 -89 840 -55 840 72 c 2
 840 127 l 1
 420 910 l 1
 420 10 l 2
 420 3 417 0 410 0 c 2
 60 0 l 2
 53 0 50 3 50 10 c 2
 50 1390 l 2
 50 1397 53 1400 60 1400 c 2
 650 1400 l 2
 658 1400 661 1398 667 1390 c 2
 960 769 l 1
 960 1390 l 2
 960 1397 963 1400 970 1400 c 2
EndSplineSet
EndChar

StartChar: oe
Encoding: 339 339 410
Width: 1998
VWidth: 1920
Flags: HW
LayerCount: 2
Fore
SplineSet
25 448 m 258
 25 603 l 258
 25 893 233 1085 590 1085 c 260
 967 1085 1105 893 1105 603 c 258
 1105 448 l 258
 1105 158 967 -35 590 -35 c 260
 233 -35 25 158 25 448 c 258
520 418 m 258
 520 298 553 245 640 245 c 256
 727 245 760 298 760 418 c 258
 760 633 l 258
 760 753 727 805 640 805 c 256
 553 805 520 753 520 633 c 258
 520 418 l 258
1973 329.15234375 m 0
 1922.26757812 95.2919921875 1732.13183594 -35 1421 -35 c 260
 1052 -35 915 138 915 448 c 258
 915 603 l 258
 915 903 1052 1085 1429 1085 c 260
 1776 1085 1951 889 1975 624 c 256
 1981.42285156 553.076171875 1982.98828125 526.6171875 1983 443 c 0
 1983 438 1980 435 1973 435 c 2
 1039 435 l 257
 1039 605 l 257
 1499 605 l 257
 1494 747 1447 805 1374 805 c 256
 1307 805 1255 753 1255 633 c 258
 1255 418 l 258
 1255 268 1302 245 1379 245 c 256
 1461.27246094 245 1492.12109375 274.4375 1503.6484375 332 c 0
 1504.48046875 336.154296875 1508.04492188 338 1515 338 c 2
 1965 338 l 2
 1972.0625 338 1974.31445312 335.211914062 1973 329.15234375 c 0
EndSplineSet
EndChar

StartChar: OE
Encoding: 338 338 411
Width: 2110
VWidth: 1920
Flags: HW
LayerCount: 2
Fore
SplineSet
725 1400 m 258
 1350 1400 l 258
 1357 1400 1360 1397 1360 1390 c 258
 1360 10 l 258
 1360 3 1357 0 1350 0 c 258
 725 0 l 258
 311.000976562 0 50 231.205078125 50 617 c 258
 50 782 l 258
 50 1168.10839844 270.80078125 1400 725 1400 c 258
765 1050 m 258
 610.610351562 1050 550 960.212890625 550 792 c 258
 550 607 l 258
 550 439.125 610.99609375 350 765 350 c 258
 870 350 l 257
 870 1050 l 257
 765 1050 l 258
EndSplineSet
Refer: 16 69 N 1 0 0 1 800 0 2
EndChar

StartChar: Tbar
Encoding: 358 358 413
Width: 1350
VWidth: 1920
Flags: HW
LayerCount: 2
Fore
SplineSet
230 540 m 10
 230 755 l 18
 230 762 233 765 240 765 c 10
 1110 765 l 22
 1117 765 1120 762 1120 755 c 14
 1120 540 l 22
 1120 533 1117 530 1110 530 c 14
 240 530 l 18
 233 530 230 533 230 540 c 10
EndSplineSet
Refer: 31 84 N 1 0 0 1 0 0 2
EndChar

StartChar: tbar
Encoding: 359 359 414
Width: 815
VWidth: 1920
Flags: HW
LayerCount: 2
Fore
SplineSet
15 470 m 10
 15 685 l 18
 15 692 18 695 25 695 c 10
 705 695 l 22
 712 695 715 692 715 685 c 14
 715 470 l 22
 715 463 712 460 705 460 c 14
 25 460 l 18
 18 460 15 463 15 470 c 10
EndSplineSet
Refer: 57 116 N 1 0 0 1 0 0 2
EndChar

StartChar: uni0394
Encoding: 916 916 430
Width: 1445
VWidth: 1920
Flags: HW
LayerCount: 2
Fore
SplineSet
-12.2578125 0 m 2
 -15.462890625 0 -22.3837890625 0.9931640625 -19.2578125 10 c 2
 459.7421875 1390 l 2
 462.743164062 1398.64550781 468.342773438 1400 472.7421875 1400 c 2
 972.7421875 1400 l 2
 978.819335938 1400 983.173828125 1397.24902344 985.7421875 1390 c 2
 1474.7421875 10 l 2
 1475.70996094 7.26953125 1477.38085938 0 1467.7421875 0 c 2
 -12.2578125 0 l 2
434.874418905 250 m 1
 896.643013946 250 l 1
 659.7421875 978 l 1
 434.874418905 250 l 1
EndSplineSet
EndChar

StartChar: uni03A9
Encoding: 937 937 431
Width: 1690
VWidth: 1920
Flags: HW
LayerCount: 2
Fore
SplineSet
933 371 m 0
 1068 454 1140 578 1140 758 c 2
 1140 823 l 2
 1140 991 1039 1095 845 1095 c 0
 651 1095 550 991 550 823 c 2
 550 758 l 2
 550 577 623 452 760 370 c 0
 773.566883588 361.879675517 775 362 775 351 c 2
 775 10 l 2
 775 3 772 0 765 0 c 2
 65 0 l 2
 58 0 55 3 55 10 c 2
 55 345 l 2
 55 352 58 355 65 355 c 2
 410 355 l 5
 208 462 50 643 50 848 c 6
 50 883 l 2
 50 1269 363 1435 845 1435 c 0
 1327 1435 1640 1269 1640 883 c 2
 1640 848 l 6
 1640 643 1479 462 1278 355 c 5
 1625 355 l 2
 1632 355 1635 352 1635 345 c 2
 1635 10 l 2
 1635 3 1632 0 1625 0 c 2
 925 0 l 2
 918 0 915 3 915 10 c 2
 915 351 l 2
 915 362 916.836810157 361.06263143 933 371 c 0
EndSplineSet
EndChar

StartChar: pi
Encoding: 960 960 432
Width: 1515
VWidth: 1920
Flags: HW
LayerCount: 2
Fore
SplineSet
668 990 m 2
 668 10 l 2
 668 3 665 0 658 0 c 2
 188 0 l 2
 181 0 178 3 178 10 c 2
 178 990 l 2
 178 997 181 1000 188 1000 c 2
 658 1000 l 2
 665 1000 668 997 668 990 c 2
1490 320 m 2
 1490 10 l 2
 1490 2.9619140625 1487.06640625 -0.4794921875 1480 -1.30859375 c 0
 992.491210938 -58.482421875 815 44.3720703125 815 352 c 258
 815 900 l 2
 815 907 818 910 825 910 c 2
 1290 910 l 2
 1297 910 1300 907 1300 900 c 2
 1300 422 l 258
 1300 314.506835938 1381.08203125 310.674804688 1481 328.901367188 c 0
 1486.9921875 329.994140625 1490 326.951171875 1490 320 c 2
10 705 m 10
 10 1040 l 18
 10 1047 13 1050 20 1050 c 10
 1470 1050 l 18
 1477 1050 1480 1047 1480 1040 c 10
 1480 705 l 18
 1480 698 1477 695 1470 695 c 10
 20 695 l 18
 13 695 10 698 10 705 c 10
EndSplineSet
EndChar

StartChar: minute
Encoding: 8242 8242 433
Width: 570
VWidth: 1920
Flags: HW
LayerCount: 2
Fore
SplineSet
207 930 m 2
 56 930 l 2
 49 930 46 934 48 940 c 2
 70 1410 l 2
 72 1417 75 1420 82 1420 c 2
 562 1420 l 2
 569 1420 573 1416 570 1410 c 2
 222 940 l 2
 219 934 214 930 207 930 c 2
EndSplineSet
EndChar

StartChar: Euro
Encoding: 8364 8364 435
Width: 1555
VWidth: 1920
Flags: HW
LayerCount: 2
Fore
SplineSet
10 455 m 14
 10 660 l 18
 10 667 13 670 20 670 c 10
 940 670 l 18
 947 670 950 667 950 660 c 10
 950 455 l 22
 950 448 947 445 940 445 c 14
 20 445 l 22
 13 445 10 448 10 455 c 14
10 725 m 10
 10 930 l 18
 10 937 13 940 20 940 c 10
 940 940 l 18
 947 940 950 937 950 930 c 10
 950 725 l 18
 950 718 947 715 940 715 c 10
 20 715 l 18
 13 715 10 718 10 725 c 10
1490 448 m 256
 1447.63183594 226.248046875 1282 -35 815 -35 c 256
 328 -35 120 238 120 618 c 258
 120 783 l 258
 120 1163 328 1435 815 1435 c 256
 1302 1435 1440.93261719 1183.29882812 1450 1033 c 256
 1450.5234375 1024.328125 1447 1023 1440 1023 c 258
 1091 1023 l 258
 1084 1023 1074.54980469 1025.51953125 1070 1033 c 256
 1048.25195312 1068.75585938 1012 1095 875 1095 c 256
 698 1095 620 983 620 793 c 258
 620 608 l 258
 620 418 678 305 875 305 c 256
 1042 305 1102.85644531 395.458007812 1120 448 c 256
 1122.68927719 456.242163508 1123 458 1130 458 c 258
 1480 458 l 258
 1487 458 1491.64839376 456.627575543 1490 448 c 256
EndSplineSet
EndChar

StartChar: uni2116
Encoding: 8470 8470 436
Width: 2180
VWidth: 1920
Flags: HW
LayerCount: 2
Fore
SplineSet
1450 10 m 10
 1450 245 l 18
 1450 252 1453 255 1460 255 c 10
 2090 255 l 22
 2097 255 2100 252 2100 245 c 14
 2100 10 l 22
 2100 3 2097 0 2090 0 c 14
 1460 0 l 18
 1453 0 1450 3 1450 10 c 10
EndSplineSet
Refer: 132 8304 N 1 0 0 1 1370 -295 2
Refer: 25 78 N 1 0 0 1 0 0 2
EndChar

StartChar: trademark
Encoding: 8482 8482 437
Width: 1924
VWidth: 1920
Flags: HW
LayerCount: 2
Fore
SplineSet
41 1400 m 6
 803 1400 l 6
 807 1400 809 1398 809 1394 c 6
 809 1196 l 6
 809 1192 807 1190 803 1190 c 6
 569 1190 l 261
 569 566 l 6
 569 562 567 560 563 560 c 6
 281 560 l 6
 277 560 275 562 275 566 c 6
 275 1190 l 261
 41 1190 l 6
 37 1190 35 1192 35 1196 c 6
 35 1394 l 6
 35 1398 37 1400 41 1400 c 6
1067 1058 m 257
 1067 566 l 2
 1067 562 1065 560 1061 560 c 2
 863 560 l 2
 859 560 857 562 857 566 c 2
 857 1394 l 2
 857 1398 859 1400 863 1400 c 2
 1223 1400 l 2
 1227 1400 1229 1398 1231 1394 c 2
 1373 973 l 257
 1533 1394 l 2
 1535 1398 1537 1400 1541 1400 c 2
 1883 1400 l 2
 1887 1400 1889 1398 1889 1394 c 2
 1889 566 l 2
 1889 562 1887 560 1883 560 c 2
 1613 560 l 2
 1609 560 1607 562 1607 566 c 2
 1607 1058 l 257
 1429 566 l 2
 1427 562 1425 560 1421 560 c 2
 1265 560 l 2
 1261 560 1259 562 1257 566 c 2
 1067 1058 l 257
EndSplineSet
EndChar

StartChar: partialdiff
Encoding: 8706 8706 438
Width: 1314
VWidth: 1920
Flags: HW
LayerCount: 2
Fore
SplineSet
654 585 m 256
 574 585 515 550 515 467 c 258
 515 427 l 258
 515 347 576 315 665 315 c 256
 742 315 804 352 804 452 c 258
 804 698 l 258
 804 983.786132812 519.865234375 1109.69335938 237 1230.11230469 c 0
 226.758789062 1234.47167969 224.943359375 1237.56347656 229 1245 c 2
 379 1535 l 2
 383.16015625 1542.62792969 383.869770089 1544.61701996 397 1540.09863281 c 0
 870.54296875 1377.14257812 1289 1058.63769531 1289 623 c 258
 1289 537 l 258
 1289 207 1112 -35 655 -35 c 256
 263 -35 25 89 25 357 c 258
 25 467 l 258
 25 731 177 885 534 885 c 256
 771 885 864 756 864 562 c 257
 804 462 l 257
 804 482 l 258
 804 555 724 585 654 585 c 256
EndSplineSet
EndChar

StartChar: summation
Encoding: 8721 8721 439
Width: 1550
VWidth: 1920
Flags: HW
LayerCount: 2
Fore
SplineSet
1279.44628906 505 m 2
 911.928710938 -10 l 1
 1488 -10 l 2
 1495 -10 1498 -13 1498 -20 c 2
 1498 -350 l 2
 1498 -357 1495 -360 1488 -360 c 2
 78 -360 l 2
 71 -360 69.4931640625 -357.767578125 75 -350 c 2
 691.767759262 520 l 1
 75 1390 l 2
 69.4931640625 1397.76757812 71 1400 78 1400 c 2
 1488 1400 l 2
 1495 1400 1498 1397 1498 1390 c 2
 1498 1060 l 2
 1498 1053 1495 1050 1488 1050 c 2
 911.928710938 1050 l 1
 1279.44628906 535 l 2
 1287.64257812 523.453125 1287.69238281 516.6171875 1279.44628906 505 c 2
  Spiro
    1279.45 505 [
    911.929 -10 v
    1488 -10 ]
    1493.7 -11.0349 o
    1496.97 -14.3007 o
    1498 -20 [
    1498 -350 ]
    1496.97 -355.699 o
    1493.7 -358.965 o
    1488 -360 [
    78 -360 ]
    72.8905 -359.135 o
    71.7757 -356.04 o
    75 -350 [
    691.768 520 v
    75 1390 ]
    71.7757 1396.04 o
    72.8905 1399.14 o
    78 1400 [
    1488 1400 ]
    1493.7 1398.97 o
    1496.97 1395.7 o
    1498 1390 [
    1498 1060 ]
    1496.97 1054.3 o
    1493.7 1051.03 o
    1488 1050 [
    911.929 1050 v
    1279.45 535 ]
    1284.92 524.681 o
    1284.93 515.366 o
    0 0 z
  EndSpiro
EndSplineSet
EndChar

StartChar: minus
Encoding: 8722 8722 440
Width: 1170
Flags: HW
LayerCount: 2
Fore
SplineSet
130 335 m 10
 130 670 l 22
 130 677 133 680 140 680 c 14
 1030 680 l 22
 1037 680 1040 677 1040 670 c 14
 1040 335 l 18
 1040 328 1037 325 1030 325 c 10
 140 325 l 18
 133 325 130 328 130 335 c 10
EndSplineSet
EndChar

StartChar: integral
Encoding: 8747 8747 441
Width: 775
VWidth: 1920
Flags: HW
LayerCount: 2
Fore
SplineSet
615 -102 m 6
 615 -339.145507812 384.088867188 -382.850585938 -3 -355.166015625 c 0
 -12.0458984375 -354.518554688 -15 -351.046875 -15 -344 c 2
 -15 -84 l 2
 -15 -77.15625 -11.849609375 -73.265625 1 -75.8896484375 c 0
 76.1982421875 -91.2470703125 130 -67.4951171875 130 18 c 2
 130 1188 l 2
 130 1425.14550781 360.911132812 1468.85058594 748 1441.16601562 c 0
 757.045898438 1440.51855469 760 1437.046875 760 1430 c 2
 760 1170 l 2
 760 1163.15625 756.849609375 1159.265625 744 1161.88964844 c 0
 668.801757812 1177.24707031 615 1153.49511719 615 1068 c 2
 615 -102 l 6
EndSplineSet
EndChar

StartChar: radical
Encoding: 8730 8730 443
Width: 1305
VWidth: 1920
Flags: HMW
LayerCount: 2
Fore
SplineSet
400 1050 m 2
 407 1050 410.802734375 1046.12207031 413 1040 c 2
 588.581054688 597.907226562 l 1
 813 1590 l 2
 813 1597 816 1600 823 1600 c 2
 1228 1600 l 2
 1235 1600 1239.34667969 1596.73535156 1238 1590 c 2
 671.395507812 -143.0234375 l 6
 669.89453125 -150.52734375 667.641601562 -151.240234375 664.395507812 -143.0234375 c 6
 179.110351562 700 l 1
 38 700 l 2
 31 700 28 703 28 710 c 2
 28 1040 l 2
 28 1047 31 1050 38 1050 c 2
 400 1050 l 2
EndSplineSet
EndChar

StartChar: infinity
Encoding: 8734 8734 444
Width: 1432
Flags: HMW
LayerCount: 2
Fore
SplineSet
398 311 m 4
 188 311 50 481 50 675 c 0
 50 869 188 1035 398 1035 c 4
 612 1035 674 935 718 835 c 1
 762 935 812 1035 1036 1035 c 4
 1246 1035 1382 869 1382 675 c 0
 1382 481 1246 311 1036 311 c 4
 812 311 742 401 718 511 c 1
 672 401 612 311 398 311 c 4
450 567 m 0
 518 567 578 601 632 675 c 1
 582 747 518 781 450 781 c 0
 370 781 328 745 328 675 c 0
 328 607 370 567 450 567 c 0
984 567 m 4
 1064 567 1104 607 1104 675 c 4
 1104 745 1064 781 984 781 c 4
 926 781 852 747 802 675 c 1
 832 603 926 567 984 567 c 4
EndSplineSet
EndChar

StartChar: product
Encoding: 8719 8719 445
Width: 1420
VWidth: 1920
Flags: HW
LayerCount: 2
Fore
SplineSet
1340 1400 m 2
 1347 1400 1350 1397 1350 1390 c 2
 1350 10 l 2
 1350 3 1347 0 1340 0 c 2
 870 0 l 2
 863 0 860 3 860 10 c 2
 860 1050 l 257
 560 1050 l 257
 560 10 l 2
 560 3 557 0 550 0 c 2
 80 0 l 2
 73 0 70 3 70 10 c 2
 70 1390 l 18
 70 1397 73 1400 80 1400 c 10
 1340 1400 l 2
EndSplineSet
EndChar

StartChar: uni2219
Encoding: 8729 8729 446
Width: 548
Flags: HW
LayerCount: 2
Fore
SplineSet
50 675 m 4
 50 807 142 900 274 900 c 4
 406 900 498 807 498 675 c 4
 498 543 414 450 282 450 c 4
 150 450 50 543 50 675 c 4
EndSplineSet
EndChar

StartChar: approxequal
Encoding: 8776 8776 447
Width: 1180
VWidth: 1920
Flags: HW
LayerCount: 2
Fore
SplineSet
462 624 m 260
 379.913085938 624 353.124023438 569.868164062 350.083984375 537 c 4
 349.53125 531.0234375 346.9140625 528 340 528 c 6
 110 528 l 6
 102.911132812 528 99.955078125 530.999023438 100.088867188 537 c 4
 104.280273438 725.384765625 231.4453125 889 432 889 c 260
 561 889 637 767 719 767 c 260
 800.872070312 767 827.62890625 820.809570312 830.895507812 853 c 4
 831.602539062 859.966796875 834.106445312 863 841 863 c 6
 1070 863 l 6
 1077.109375 863 1080.05859375 860.001953125 1079.890625 853 c 4
 1075.39453125 665.125 969.28125 502 749 502 c 260
 620 502 564 624 462 624 c 260
462 234 m 260
 379.913085938 234 353.124023438 179.868164062 350.083984375 147 c 4
 349.53125 141.0234375 346.9140625 138 340 138 c 6
 110 138 l 6
 102.911132812 138 99.955078125 140.999023438 100.088867188 147 c 4
 104.280273438 335.384765625 231.4453125 499 432 499 c 260
 561 499 637 377 719 377 c 260
 800.872070312 377 827.62890625 430.809570312 830.895507812 463 c 4
 831.602539062 469.966796875 834.106445312 473 841 473 c 6
 1070 473 l 6
 1077.109375 473 1080.05859375 470.001953125 1079.890625 463 c 4
 1075.39453125 275.125 1019.28125 112 799 112 c 260
 670 112 564 234 462 234 c 260
EndSplineSet
EndChar

StartChar: notequal
Encoding: 8800 8800 448
Width: 1180
VWidth: 1920
Flags: HW
LayerCount: 2
Fore
SplineSet
1008 960 m 6
 1050 918 l 6
 1055 913 1055 909 1050 904 c 6
 186 40 l 6
 181 35 177 35 172 40 c 6
 130 82 l 6
 125 87 125 91 130 96 c 6
 994 960 l 6
 999 965 1003 965 1008 960 c 6
EndSplineSet
Refer: 83 61 N 1 0 0 1 0 0 2
EndChar

StartChar: lessequal
Encoding: 8804 8804 449
Width: 1010
VWidth: 1920
Flags: HW
LayerCount: 2
Fore
SplineSet
60 10 m 10
 60 295 l 18
 60 302 63 305 70 305 c 10
 890 305 l 18
 897 305 900 302 900 295 c 10
 900 10 l 18
 900 3 897 0 890 0 c 10
 70 0 l 18
 63 0 60 3 60 10 c 10
EndSplineSet
Refer: 84 60 S 1 0 0 1 0 230 2
EndChar

StartChar: greaterequal
Encoding: 8805 8805 450
Width: 1010
VWidth: 1920
Flags: HW
LayerCount: 2
Fore
SplineSet
110 10 m 10
 110 295 l 18
 110 302 113 305 120 305 c 10
 940 305 l 18
 947 305 950 302 950 295 c 10
 950 10 l 18
 950 3 947 0 940 0 c 10
 120 0 l 18
 113 0 110 3 110 10 c 10
EndSplineSet
Refer: 85 62 S 1 0 0 1 0 230 2
EndChar

StartChar: lozenge
Encoding: 9674 9674 451
Width: 1150
Flags: HW
LayerCount: 2
Fore
SplineSet
581 40 m 2
 31 702 l 2
 26.384765625 709.638671875 26.3486328125 714.325195312 31 722 c 2
 581 1382 l 2
 586.672851562 1391.36035156 587.493164062 1391.66601562 593 1382 c 2
 1119 722 l 2
 1123.39257812 714.2890625 1123.40332031 709.751953125 1119 702 c 2
 593 40 l 2
 587.569335938 30.4375 586.728515625 30.5205078125 581 40 c 2
581 454 m 1
 713 712 l 1
 581 970 l 1
 437 712 l 1
 581 454 l 1
EndSplineSet
EndChar

StartChar: uniF8EA
Encoding: 63722 63722 452
Width: 1212
VWidth: 1920
Flags: HW
LayerCount: 2
Fore
SplineSet
53 1400 m 6
 511 1400 l 6
 513 1400 514 1398 514 1396 c 6
 514 1278 l 6
 514 1276 513 1274 511 1274 c 6
 370 1274 l 261
 370 900 l 6
 370 898 369 896 367 896 c 6
 197 896 l 6
 195 896 194 898 194 900 c 6
 194 1274 l 261
 53 1274 l 6
 51 1274 50 1276 50 1278 c 6
 50 1396 l 6
 50 1398 51 1400 53 1400 c 6
669 1195 m 261
 669 900 l 6
 669 898 667 896 665 896 c 6
 547 896 l 6
 545 896 543 898 543 900 c 6
 543 1396 l 6
 543 1398 545 1400 547 1400 c 6
 763 1400 l 6
 765 1400 766 1398 767 1396 c 6
 853 1144 l 261
 949 1396 l 6
 950 1398 951 1400 953 1400 c 6
 1159 1400 l 6
 1161 1400 1162 1398 1162 1396 c 6
 1162 900 l 6
 1162 898 1161 896 1159 896 c 6
 997 896 l 6
 995 896 993 898 993 900 c 6
 993 1195 l 261
 886 900 l 6
 885 898 883 896 881 896 c 6
 788 896 l 6
 786 896 784 898 783 900 c 6
 669 1195 l 261
EndSplineSet
EndChar

StartChar: uniF8E8
Encoding: 63720 63720 453
Width: 936
Flags: HW
LayerCount: 2
Fore
SplineSet
420 1150 m 261
 420 1038 l 261
 456 1038 l 262
 502 1038 512 1061 512 1093 c 262
 512 1094 l 262
 512 1123 502 1150 456 1150 c 262
 420 1150 l 261
492 1276 m 262
 638 1276 692 1208 692 1125 c 262
 692 1117 l 262
 692 1031 610 980 492 980 c 261
 492 1002 l 261
 620 1002 695 991 695 905 c 262
 695 890 l 262
 695 849 706 819 723 794 c 4
 726 790 726 788 726 786 c 6
 726 775 l 6
 726 773 724 772 722 772 c 6
 542 772 l 6
 540 772 539 772 537 775 c 4
 517 810 512 859 512 890 c 262
 512 905 l 262
 512 934 501 948 463 948 c 262
 420 948 l 261
 420 775 l 6
 420 773 418 772 416 772 c 6
 247 772 l 6
 245 772 244 773 244 775 c 6
 244 1272 l 6
 244 1274 245 1276 247 1276 c 6
 492 1276 l 262
886 1016 m 4
 886 786 697 599 467 599 c 4
 237 599 50 786 50 1016 c 4
 50 1246 237 1435 467 1435 c 4
 697 1435 886 1246 886 1016 c 4
835 1016 m 4
 835 1219 670 1384 467 1384 c 4
 264 1384 101 1219 101 1016 c 4
 101 813 264 650 467 650 c 4
 670 650 835 813 835 1016 c 4
EndSplineSet
EndChar

StartChar: uniF8E9
Encoding: 63721 63721 454
Width: 936
Flags: HW
LayerCount: 2
Fore
SplineSet
716 981 m 260
 708 862 641 753 473 753 c 260
 298 753 223 851 223 988 c 262
 223 1048 l 262
 223 1185 298 1282 473 1282 c 260
 641 1282 703 1178 706 1080 c 260
 706 1077 704 1076 702 1076 c 262
 577 1076 l 262
 575 1076 572 1077 572 1080 c 260
 571 1125 544 1160 491 1160 c 260
 438 1160 403 1127 403 1051 c 262
 403 985 l 262
 403 906 435 875 495 875 c 260
 555 875 584 915 583 981 c 260
 583 984 585 985 587 985 c 262
 713 985 l 262
 715 985 716 984 716 981 c 260
886 1016 m 4
 886 786 697 599 467 599 c 4
 237 599 50 786 50 1016 c 4
 50 1246 237 1435 467 1435 c 4
 697 1435 886 1246 886 1016 c 4
835 1016 m 4
 835 1219 670 1384 467 1384 c 4
 264 1384 101 1219 101 1016 c 4
 101 813 264 650 467 650 c 4
 670 650 835 813 835 1016 c 4
EndSplineSet
EndChar

StartChar: uni1E9E
Encoding: 7838 7838 457
Width: 1527
VWidth: 1920
InSpiro: 1
Flags: HW
LayerCount: 2
Fore
SplineSet
70 1005 m 2
 70 1289 357 1434 747 1434 c 0
 1118.00683594 1434 1318.88183594 1228.54101562 1419 1090.51074219 c 0
 1432.2109375 1072.296875 1432.20410156 1072.30175781 1420.59960938 1056 c 2
 1162.265625 775 l 1
 1281.52636719 685.846679688 1512 568.829101562 1512 328.020507812 c 0
 1512 54.259765625 1318.4609375 -35 999.372070312 -35 c 0
 901.129882812 -35 758.5078125 -15.0126953125 667.315429688 15.533203125 c 0
 642.299804688 23.912109375 643 26 643 35 c 2
 643 355 l 2
 643 365.908203125 644.962890625 366.741210938 664.728515625 357.918945312 c 0
 767.80859375 311.908203125 864.987304688 297 926.9453125 297 c 0
 992.14453125 297 1022 323.416015625 1022 370.912109375 c 0
 1022 467.498046875 817.876953125 582.094726562 642 672.3671875 c 0
 623.537109375 681.84375 622.080078125 678.053710938 634.34765625 697 c 2
 881.541992188 1046 l 1
 858.818359375 1067.953125 802.23046875 1092 744 1092 c 0
 575 1092 555 1038 555 935 c 2
 555 10 l 2
 555 3 552 0 545 0 c 2
 80 0 l 2
 73 0 70 3 70 10 c 2
 70 1005 l 2
EndSplineSet
EndChar
